solid model
facet normal 0.25881904510252 0.965925826289068 0.0
outer loop
vertex 3.86370330515627 -1.03527618041009 24.0
vertex 5.98874012299222 -1.60467807963563 0.0
vertex 3.86370330515627 -1.03527618041009 0.0
endloop
endfacet
facet normal 0.25881904510252 0.965925826289068 0.0
outer loop
vertex 5.98874012299222 -1.60467807963563 0.0
vertex 3.86370330515627 -1.03527618041009 24.0
vertex 5.98874012299222 -1.60467807963563 24.0
endloop
endfacet
facet normal -0.793353340291236 -0.60876142900872 0.0
outer loop
vertex -5.95015005218427 -4.5657107175654 24.0
vertex -5.30330085889911 -5.30330085889911 0.0
vertex -5.30330085889911 -5.30330085889911 24.0
endloop
endfacet
facet normal -0.707106781186548 -0.707106781186547 0.0
outer loop
vertex -5.30330085889911 -5.30330085889911 0.0
vertex -5.95015005218427 -4.5657107175654 24.0
vertex -5.95015005218427 -4.5657107175654 0.0
endloop
endfacet
facet normal 0.99144486137381 -0.130526192220052 0.0
outer loop
vertex 7.43583646030358 -0.978946441650388 0.0
vertex 7.24444369716801 -1.94114283826891 24.0
vertex 7.24444369716801 -1.94114283826891 0.0
endloop
endfacet
facet normal 0.965925826289068 -0.258819045102521 0.0
outer loop
vertex 7.24444369716801 -1.94114283826891 24.0
vertex 7.43583646030358 -0.978946441650388 0.0
vertex 7.43583646030358 -0.978946441650388 24.0
endloop
endfacet
facet normal 0.258819045102521 -0.965925826289068 0.0
outer loop
vertex 1.94114283826891 -7.24444369716801 24.0
vertex 0.978946441650387 -7.43583646030358 0.0
vertex 1.94114283826891 -7.24444369716801 0.0
endloop
endfacet
facet normal 0.130526192220052 -0.99144486137381 0.0
outer loop
vertex 0.978946441650387 -7.43583646030358 0.0
vertex 1.94114283826891 -7.24444369716801 24.0
vertex 0.978946441650387 -7.43583646030358 24.0
endloop
endfacet
facet normal 0.500000000000001 0.866025403784438 0.0
outer loop
vertex 3.75 6.49519052838329 24.0
vertex 4.56571071756541 5.95015005218426 0.0
vertex 3.75 6.49519052838329 0.0
endloop
endfacet
facet normal 0.608761429008721 0.793353340291235 0.0
outer loop
vertex 4.56571071756541 5.95015005218426 0.0
vertex 3.75 6.49519052838329 24.0
vertex 4.56571071756541 5.95015005218426 24.0
endloop
endfacet
facet normal 0.0 0.0 1.0
outer loop
vertex -6.2 1.13892152320704e-15 24.0
vertex -5.95015005218426 4.56571071756541 24.0
vertex -6.49519052838329 3.75 24.0
endloop
endfacet
facet normal 0.0 0.0 1.0
outer loop
vertex -5.95015005218426 4.56571071756541 24.0
vertex -6.2 1.13892152320704e-15 24.0
vertex -6.14695814051762 0.809262391764326 24.0
endloop
endfacet
facet normal 0.0 0.0 1.0
outer loop
vertex -5.95015005218426 4.56571071756541 24.0
vertex -6.14695814051762 0.809262391764326 24.0
vertex -5.98874012299222 1.60467807963563 24.0
endloop
endfacet
facet normal 0.0 0.0 1.0
outer loop
vertex -5.95015005218426 4.56571071756541 24.0
vertex -5.98874012299222 1.60467807963563 24.0
vertex -5.36935750346352 3.1 24.0
endloop
endfacet
facet normal 0.0 0.0 1.0
outer loop
vertex -5.36935750346352 3.1 24.0
vertex -5.98874012299222 1.60467807963563 24.0
vertex -3.86370330515627 1.03527618041008 24.0
endloop
endfacet
facet normal 0.0 0.0 1.0
outer loop
vertex -5.36935750346352 3.1 24.0
vertex -3.86370330515627 1.03527618041008 24.0
vertex -3.69551813004515 1.53073372946036 24.0
endloop
endfacet
facet normal 0.0 0.0 1.0
outer loop
vertex -5.36935750346352 3.1 24.0
vertex -3.69551813004515 1.53073372946036 24.0
vertex -3.46410161513775 2.0 24.0
endloop
endfacet
facet normal 0.0 0.0 1.0
outer loop
vertex -5.36935750346352 3.1 24.0
vertex -5.3033008588991 5.30330085889911 24.0
vertex -5.95015005218426 4.56571071756541 24.0
endloop
endfacet
facet normal 0.0 0.0 1.0
outer loop
vertex -5.3033008588991 5.30330085889911 24.0
vertex -5.36935750346352 3.1 24.0
vertex -4.91879070980566 3.77432085985407 24.0
endloop
endfacet
facet normal 0.0 0.0 1.0
outer loop
vertex -5.3033008588991 5.30330085889911 24.0
vertex -4.91879070980566 3.77432085985407 24.0
vertex -4.5657107175654 5.95015005218426 24.0
endloop
endfacet
facet normal 0.0 0.0 1.0
outer loop
vertex -4.5657107175654 5.95015005218426 24.0
vertex -4.91879070980566 3.77432085985407 24.0
vertex -4.38406204335659 4.3840620433566 24.0
endloop
endfacet
facet normal 0.0 0.0 1.0
outer loop
vertex -4.5657107175654 5.95015005218426 24.0
vertex -4.38406204335659 4.3840620433566 24.0
vertex -3.75 6.49519052838329 24.0
endloop
endfacet
facet normal 0.0 0.0 1.0
outer loop
vertex -3.75 6.49519052838329 24.0
vertex -4.38406204335659 4.3840620433566 24.0
vertex -2.82842712474619 2.82842712474619 24.0
endloop
endfacet
facet normal 0.0 0.0 1.0
outer loop
vertex -3.75 6.49519052838329 24.0
vertex -2.82842712474619 2.82842712474619 24.0
vertex -3.1 5.36935750346352 24.0
endloop
endfacet
facet normal 0.0 0.0 1.0
outer loop
vertex -3.1 5.36935750346352 24.0
vertex -2.82842712474619 2.82842712474619 24.0
vertex -2.43504571603488 3.17341336116494 24.0
endloop
endfacet
facet normal 0.0 0.0 1.0
outer loop
vertex -3.1 5.36935750346352 24.0
vertex -2.43504571603488 3.17341336116494 24.0
vertex -2.0 3.46410161513775 24.0
endloop
endfacet
facet normal 0.0 0.0 1.0
outer loop
vertex -0.978946441650394 -7.43583646030358 24.0
vertex -1.60467807963563 -5.98874012299222 24.0
vertex -1.94114283826891 -7.24444369716801 24.0
endloop
endfacet
facet normal 0.0 0.0 1.0
outer loop
vertex -1.60467807963563 -5.98874012299222 24.0
vertex -0.978946441650394 -7.43583646030358 24.0
vertex -0.809262391764326 -6.14695814051762 24.0
endloop
endfacet
facet normal 0.0 0.0 1.0
outer loop
vertex -0.809262391764326 -6.14695814051762 24.0
vertex -0.978946441650394 -7.43583646030358 24.0
vertex 0.0 -7.5 24.0
endloop
endfacet
facet normal 0.0 0.0 1.0
outer loop
vertex -0.809262391764326 -6.14695814051762 24.0
vertex 0.0 -7.5 24.0
vertex 0.0 -6.2 24.0
endloop
endfacet
facet normal 0.0 0.0 1.0
outer loop
vertex 0.0 -6.2 24.0
vertex 0.0 -7.5 24.0
vertex 0.978946441650387 -7.43583646030358 24.0
endloop
endfacet
facet normal 0.0 0.0 1.0
outer loop
vertex 0.0 -6.2 24.0
vertex 0.978946441650387 -7.43583646030358 24.0
vertex 0.522104768880205 -3.96577944549524 24.0
endloop
endfacet
facet normal 0.0 0.0 1.0
outer loop
vertex 0.522104768880205 -3.96577944549524 24.0
vertex 0.978946441650387 -7.43583646030358 24.0
vertex 1.03527618041008 -3.86370330515627 24.0
endloop
endfacet
facet normal 0.0 0.0 1.0
outer loop
vertex 1.03527618041008 -3.86370330515627 24.0
vertex 0.978946441650387 -7.43583646030358 24.0
vertex 1.94114283826891 -7.24444369716801 24.0
endloop
endfacet
facet normal 0.0 0.0 1.0
outer loop
vertex 1.03527618041008 -3.86370330515627 24.0
vertex 1.94114283826891 -7.24444369716801 24.0
vertex 1.60467807963563 -5.98874012299222 24.0
endloop
endfacet
facet normal 0.0 0.0 1.0
outer loop
vertex 1.60467807963563 -5.98874012299222 24.0
vertex 1.94114283826891 -7.24444369716801 24.0
vertex 2.37263728066356 -5.72805310156998 24.0
endloop
endfacet
facet normal 0.0 0.0 1.0
outer loop
vertex 2.37263728066356 -5.72805310156998 24.0
vertex 1.94114283826891 -7.24444369716801 24.0
vertex 2.87012574273817 -6.92909649383465 24.0
endloop
endfacet
facet normal 0.0 0.0 1.0
outer loop
vertex 2.37263728066356 -5.72805310156998 24.0
vertex 2.87012574273817 -6.92909649383465 24.0
vertex 3.1 -5.36935750346352 24.0
endloop
endfacet
facet normal 0.0 0.0 1.0
outer loop
vertex 3.1 -5.36935750346352 24.0
vertex 2.87012574273817 -6.92909649383465 24.0
vertex 3.75 -6.49519052838329 24.0
endloop
endfacet
facet normal 0.0 0.0 1.0
outer loop
vertex 3.1 -5.36935750346352 24.0
vertex 2.43504571603488 -3.17341336116494 24.0
vertex 2.0 -3.46410161513775 24.0
endloop
endfacet
facet normal 0.0 0.0 1.0
outer loop
vertex 2.43504571603488 -3.17341336116494 24.0
vertex 3.1 -5.36935750346352 24.0
vertex 2.82842712474619 -2.82842712474619 24.0
endloop
endfacet
facet normal 0.0 0.0 1.0
outer loop
vertex 2.82842712474619 -2.82842712474619 24.0
vertex 3.1 -5.36935750346352 24.0
vertex 4.38406204335659 -4.38406204335659 24.0
endloop
endfacet
facet normal 0.0 0.0 1.0
outer loop
vertex 4.38406204335659 -4.38406204335659 24.0
vertex 3.1 -5.36935750346352 24.0
vertex 3.75 -6.49519052838329 24.0
endloop
endfacet
facet normal 0.0 0.0 1.0
outer loop
vertex 4.38406204335659 -4.38406204335659 24.0
vertex 3.75 -6.49519052838329 24.0
vertex 4.5657107175654 -5.95015005218426 24.0
endloop
endfacet
facet normal 0.0 0.0 1.0
outer loop
vertex 4.38406204335659 -4.38406204335659 24.0
vertex 4.5657107175654 -5.95015005218426 24.0
vertex 4.91879070980566 -3.77432085985407 24.0
endloop
endfacet
facet normal 0.0 0.0 1.0
outer loop
vertex 4.91879070980566 -3.77432085985407 24.0
vertex 4.5657107175654 -5.95015005218426 24.0
vertex 5.30330085889911 -5.30330085889911 24.0
endloop
endfacet
facet normal 0.0 0.0 1.0
outer loop
vertex 4.91879070980566 -3.77432085985407 24.0
vertex 5.30330085889911 -5.30330085889911 24.0
vertex 5.36935750346352 -3.1 24.0
endloop
endfacet
facet normal 0.0 0.0 1.0
outer loop
vertex 5.36935750346352 -3.1 24.0
vertex 5.30330085889911 -5.30330085889911 24.0
vertex 5.95015005218426 -4.56571071756541 24.0
endloop
endfacet
facet normal 0.0 0.0 1.0
outer loop
vertex 3.96577944549524 0.522104768880205 24.0
vertex 5.98874012299222 1.60467807963563 24.0
vertex 3.86370330515627 1.03527618041008 24.0
endloop
endfacet
facet normal 0.0 0.0 1.0
outer loop
vertex 5.98874012299222 1.60467807963563 24.0
vertex 3.96577944549524 0.522104768880205 24.0
vertex 4.0 -7.34788079488412e-16 24.0
endloop
endfacet
facet normal 0.0 0.0 1.0
outer loop
vertex 5.98874012299222 1.60467807963563 24.0
vertex 4.0 -7.34788079488412e-16 24.0
vertex 6.2 -3.7964050773568e-16 24.0
endloop
endfacet
facet normal 0.0 0.0 1.0
outer loop
vertex 5.36935750346352 -3.1 24.0
vertex 3.69551813004515 -1.53073372946036 24.0
vertex 3.46410161513775 -2.0 24.0
endloop
endfacet
facet normal 0.0 0.0 1.0
outer loop
vertex 3.69551813004515 -1.53073372946036 24.0
vertex 5.36935750346352 -3.1 24.0
vertex 3.86370330515627 -1.03527618041009 24.0
endloop
endfacet
facet normal 0.0 0.0 1.0
outer loop
vertex 3.86370330515627 -1.03527618041009 24.0
vertex 5.36935750346352 -3.1 24.0
vertex 5.98874012299222 -1.60467807963563 24.0
endloop
endfacet
facet normal 0.0 0.0 1.0
outer loop
vertex 5.98874012299222 -1.60467807963563 24.0
vertex 5.36935750346352 -3.1 24.0
vertex 5.95015005218426 -4.56571071756541 24.0
endloop
endfacet
facet normal 0.0 0.0 1.0
outer loop
vertex 5.98874012299222 -1.60467807963563 24.0
vertex 5.95015005218426 -4.56571071756541 24.0
vertex 6.49519052838329 -3.75 24.0
endloop
endfacet
facet normal 0.0 0.0 1.0
outer loop
vertex 5.98874012299222 -1.60467807963563 24.0
vertex 6.49519052838329 -3.75 24.0
vertex 6.14695814051762 -0.809262391764321 24.0
endloop
endfacet
facet normal 0.0 0.0 1.0
outer loop
vertex 6.14695814051762 -0.809262391764321 24.0
vertex 6.49519052838329 -3.75 24.0
vertex 6.2 -3.7964050773568e-16 24.0
endloop
endfacet
facet normal 0.0 0.0 1.0
outer loop
vertex 3.17341336116494 2.43504571603488 24.0
vertex 4.38406204335659 4.38406204335659 24.0
vertex 2.82842712474619 2.82842712474619 24.0
endloop
endfacet
facet normal 0.0 0.0 1.0
outer loop
vertex 4.38406204335659 4.38406204335659 24.0
vertex 3.17341336116494 2.43504571603488 24.0
vertex 3.46410161513776 2.0 24.0
endloop
endfacet
facet normal 0.0 0.0 1.0
outer loop
vertex 4.38406204335659 4.38406204335659 24.0
vertex 3.46410161513776 2.0 24.0
vertex 5.36935750346352 3.1 24.0
endloop
endfacet
facet normal 0.0 0.0 1.0
outer loop
vertex 4.38406204335659 4.38406204335659 24.0
vertex 5.36935750346352 3.1 24.0
vertex 4.56571071756541 5.95015005218426 24.0
endloop
endfacet
facet normal 0.0 0.0 1.0
outer loop
vertex 4.56571071756541 5.95015005218426 24.0
vertex 5.36935750346352 3.1 24.0
vertex 5.30330085889911 5.30330085889911 24.0
endloop
endfacet
facet normal 0.0 0.0 1.0
outer loop
vertex 5.30330085889911 5.30330085889911 24.0
vertex 5.36935750346352 3.1 24.0
vertex 5.95015005218426 4.5657107175654 24.0
endloop
endfacet
facet normal 0.0 0.0 1.0
outer loop
vertex 5.95015005218426 4.5657107175654 24.0
vertex 5.36935750346352 3.1 24.0
vertex 5.72805310156998 2.37263728066355 24.0
endloop
endfacet
facet normal 0.0 0.0 1.0
outer loop
vertex 5.95015005218426 4.5657107175654 24.0
vertex 5.72805310156998 2.37263728066355 24.0
vertex 5.98874012299222 1.60467807963563 24.0
endloop
endfacet
facet normal 0.0 0.0 1.0
outer loop
vertex 5.95015005218426 4.5657107175654 24.0
vertex 5.98874012299222 1.60467807963563 24.0
vertex 6.49519052838329 3.75 24.0
endloop
endfacet
facet normal 0.0 0.0 1.0
outer loop
vertex 6.49519052838329 3.75 24.0
vertex 5.98874012299222 1.60467807963563 24.0
vertex 6.2 -3.7964050773568e-16 24.0
endloop
endfacet
facet normal 0.0 0.0 1.0
outer loop
vertex 6.49519052838329 3.75 24.0
vertex 6.2 -3.7964050773568e-16 24.0
vertex 6.49519052838329 -3.75 24.0
endloop
endfacet
facet normal 0.0 0.0 1.0
outer loop
vertex 6.49519052838329 3.75 24.0
vertex 6.49519052838329 -3.75 24.0
vertex 6.92909649383465 -2.87012574273817 24.0
endloop
endfacet
facet normal 0.0 0.0 1.0
outer loop
vertex 6.49519052838329 3.75 24.0
vertex 6.92909649383465 -2.87012574273817 24.0
vertex 6.92909649383465 2.87012574273817 24.0
endloop
endfacet
facet normal 0.0 0.0 1.0
outer loop
vertex 6.92909649383465 2.87012574273817 24.0
vertex 6.92909649383465 -2.87012574273817 24.0
vertex 7.24444369716801 -1.94114283826891 24.0
endloop
endfacet
facet normal 0.0 0.0 1.0
outer loop
vertex 6.92909649383465 2.87012574273817 24.0
vertex 7.24444369716801 -1.94114283826891 24.0
vertex 7.24444369716801 1.9411428382689 24.0
endloop
endfacet
facet normal 0.0 0.0 1.0
outer loop
vertex 7.24444369716801 1.9411428382689 24.0
vertex 7.24444369716801 -1.94114283826891 24.0
vertex 7.43583646030358 -0.978946441650388 24.0
endloop
endfacet
facet normal 0.0 0.0 1.0
outer loop
vertex 7.24444369716801 1.9411428382689 24.0
vertex 7.43583646030358 -0.978946441650388 24.0
vertex 7.43583646030358 0.978946441650385 24.0
endloop
endfacet
facet normal 0.0 0.0 1.0
outer loop
vertex 7.43583646030358 0.978946441650385 24.0
vertex 7.43583646030358 -0.978946441650388 24.0
vertex 7.5 -4.59242549680257e-16 24.0
endloop
endfacet
facet normal 0.0 0.0 1.0
outer loop
vertex 1.53073372946036 3.69551813004515 24.0
vertex 1.60467807963563 5.98874012299222 24.0
vertex 1.03527618041009 3.86370330515627 24.0
endloop
endfacet
facet normal 0.0 0.0 1.0
outer loop
vertex 1.60467807963563 5.98874012299222 24.0
vertex 1.53073372946036 3.69551813004515 24.0
vertex 2.0 3.46410161513775 24.0
endloop
endfacet
facet normal 0.0 0.0 1.0
outer loop
vertex 1.60467807963563 5.98874012299222 24.0
vertex 2.0 3.46410161513775 24.0
vertex 1.94114283826891 7.24444369716801 24.0
endloop
endfacet
facet normal 0.0 0.0 1.0
outer loop
vertex 1.94114283826891 7.24444369716801 24.0
vertex 2.0 3.46410161513775 24.0
vertex 2.87012574273817 6.92909649383465 24.0
endloop
endfacet
facet normal 0.0 0.0 1.0
outer loop
vertex 2.87012574273817 6.92909649383465 24.0
vertex 2.0 3.46410161513775 24.0
vertex 3.1 5.36935750346352 24.0
endloop
endfacet
facet normal 0.0 0.0 1.0
outer loop
vertex 2.87012574273817 6.92909649383465 24.0
vertex 3.1 5.36935750346352 24.0
vertex 3.75 6.49519052838329 24.0
endloop
endfacet
facet normal 0.0 0.0 1.0
outer loop
vertex 3.75 6.49519052838329 24.0
vertex 3.1 5.36935750346352 24.0
vertex 3.77432085985407 4.91879070980566 24.0
endloop
endfacet
facet normal 0.0 0.0 1.0
outer loop
vertex 3.75 6.49519052838329 24.0
vertex 3.77432085985407 4.91879070980566 24.0
vertex 4.56571071756541 5.95015005218426 24.0
endloop
endfacet
facet normal 0.0 0.0 1.0
outer loop
vertex 4.56571071756541 5.95015005218426 24.0
vertex 3.77432085985407 4.91879070980566 24.0
vertex 4.38406204335659 4.38406204335659 24.0
endloop
endfacet
facet normal 0.0 0.0 1.0
outer loop
vertex -3.1 5.36935750346352 24.0
vertex -2.87012574273817 6.92909649383465 24.0
vertex -3.75 6.49519052838329 24.0
endloop
endfacet
facet normal 0.0 0.0 1.0
outer loop
vertex -2.87012574273817 6.92909649383465 24.0
vertex -3.1 5.36935750346352 24.0
vertex -2.37263728066355 5.72805310156998 24.0
endloop
endfacet
facet normal 0.0 0.0 1.0
outer loop
vertex -2.87012574273817 6.92909649383465 24.0
vertex -2.37263728066355 5.72805310156998 24.0
vertex -1.9411428382689 7.24444369716801 24.0
endloop
endfacet
facet normal 0.0 0.0 1.0
outer loop
vertex -1.9411428382689 7.24444369716801 24.0
vertex -2.37263728066355 5.72805310156998 24.0
vertex -1.60467807963563 5.98874012299222 24.0
endloop
endfacet
facet normal 0.0 0.0 1.0
outer loop
vertex -1.9411428382689 7.24444369716801 24.0
vertex -1.60467807963563 5.98874012299222 24.0
vertex -0.978946441650385 7.43583646030358 24.0
endloop
endfacet
facet normal 0.0 0.0 1.0
outer loop
vertex -0.978946441650385 7.43583646030358 24.0
vertex -1.60467807963563 5.98874012299222 24.0
vertex -1.03527618041008 3.86370330515627 24.0
endloop
endfacet
facet normal 0.0 0.0 1.0
outer loop
vertex -0.978946441650385 7.43583646030358 24.0
vertex -1.03527618041008 3.86370330515627 24.0
vertex -0.522104768880206 3.96577944549524 24.0
endloop
endfacet
facet normal 0.0 0.0 1.0
outer loop
vertex -0.978946441650385 7.43583646030358 24.0
vertex -0.522104768880206 3.96577944549524 24.0
vertex 9.18485099360515e-16 7.5 24.0
endloop
endfacet
facet normal 0.0 0.0 1.0
outer loop
vertex 9.18485099360515e-16 7.5 24.0
vertex -0.522104768880206 3.96577944549524 24.0
vertex 0.0 4.0 24.0
endloop
endfacet
facet normal 0.0 0.0 1.0
outer loop
vertex 9.18485099360515e-16 7.5 24.0
vertex 0.0 4.0 24.0
vertex 7.59281015471359e-16 6.2 24.0
endloop
endfacet
facet normal 0.0 0.0 1.0
outer loop
vertex 9.18485099360515e-16 7.5 24.0
vertex 7.59281015471359e-16 6.2 24.0
vertex 0.809262391764322 6.14695814051762 24.0
endloop
endfacet
facet normal 0.0 0.0 1.0
outer loop
vertex 9.18485099360515e-16 7.5 24.0
vertex 0.809262391764322 6.14695814051762 24.0
vertex 0.97894644165039 7.43583646030358 24.0
endloop
endfacet
facet normal 0.0 0.0 1.0
outer loop
vertex 0.97894644165039 7.43583646030358 24.0
vertex 0.809262391764322 6.14695814051762 24.0
vertex 1.60467807963563 5.98874012299222 24.0
endloop
endfacet
facet normal 0.0 0.0 1.0
outer loop
vertex 0.97894644165039 7.43583646030358 24.0
vertex 1.60467807963563 5.98874012299222 24.0
vertex 1.94114283826891 7.24444369716801 24.0
endloop
endfacet
facet normal 0.0 0.0 1.0
outer loop
vertex 0.522104768880205 -3.96577944549524 24.0
vertex -4.89858719658941e-16 -4.0 24.0
vertex 0.0 -6.2 24.0
endloop
endfacet
facet normal 0.0 0.0 1.0
outer loop
vertex -3.75 -6.49519052838329 24.0
vertex -4.38406204335659 -4.38406204335659 24.0
vertex -4.56571071756541 -5.95015005218426 24.0
endloop
endfacet
facet normal 0.0 0.0 1.0
outer loop
vertex -4.38406204335659 -4.38406204335659 24.0
vertex -3.75 -6.49519052838329 24.0
vertex -3.77432085985407 -4.91879070980566 24.0
endloop
endfacet
facet normal 0.0 0.0 1.0
outer loop
vertex -3.77432085985407 -4.91879070980566 24.0
vertex -3.75 -6.49519052838329 24.0
vertex -3.1 -5.36935750346352 24.0
endloop
endfacet
facet normal 0.0 0.0 1.0
outer loop
vertex -3.1 -5.36935750346352 24.0
vertex -3.75 -6.49519052838329 24.0
vertex -2.87012574273818 -6.92909649383465 24.0
endloop
endfacet
facet normal 0.0 0.0 1.0
outer loop
vertex -3.1 -5.36935750346352 24.0
vertex -2.87012574273818 -6.92909649383465 24.0
vertex -2.0 -3.46410161513775 24.0
endloop
endfacet
facet normal 0.0 0.0 1.0
outer loop
vertex -2.0 -3.46410161513775 24.0
vertex -2.87012574273818 -6.92909649383465 24.0
vertex -1.94114283826891 -7.24444369716801 24.0
endloop
endfacet
facet normal 0.0 0.0 1.0
outer loop
vertex -2.0 -3.46410161513775 24.0
vertex -1.94114283826891 -7.24444369716801 24.0
vertex -1.53073372946036 -3.69551813004515 24.0
endloop
endfacet
facet normal 0.0 0.0 1.0
outer loop
vertex -1.53073372946036 -3.69551813004515 24.0
vertex -1.94114283826891 -7.24444369716801 24.0
vertex -1.60467807963563 -5.98874012299222 24.0
endloop
endfacet
facet normal 0.0 0.0 1.0
outer loop
vertex -1.53073372946036 -3.69551813004515 24.0
vertex -1.60467807963563 -5.98874012299222 24.0
vertex -1.03527618041008 -3.86370330515627 24.0
endloop
endfacet
facet normal 0.0 0.0 1.0
outer loop
vertex -7.43583646030358 -0.978946441650384 24.0
vertex -7.43583646030358 0.978946441650394 24.0
vertex -7.5 1.37772764904077e-15 24.0
endloop
endfacet
facet normal 0.0 0.0 1.0
outer loop
vertex -7.43583646030358 0.978946441650394 24.0
vertex -7.43583646030358 -0.978946441650384 24.0
vertex -7.24444369716801 -1.9411428382689 24.0
endloop
endfacet
facet normal 0.0 0.0 1.0
outer loop
vertex -7.43583646030358 0.978946441650394 24.0
vertex -7.24444369716801 -1.9411428382689 24.0
vertex -7.24444369716801 1.94114283826891 24.0
endloop
endfacet
facet normal 0.0 0.0 1.0
outer loop
vertex -7.24444369716801 1.94114283826891 24.0
vertex -7.24444369716801 -1.9411428382689 24.0
vertex -6.92909649383465 -2.87012574273817 24.0
endloop
endfacet
facet normal 0.0 0.0 1.0
outer loop
vertex -7.24444369716801 1.94114283826891 24.0
vertex -6.92909649383465 -2.87012574273817 24.0
vertex -6.92909649383465 2.87012574273818 24.0
endloop
endfacet
facet normal 0.0 0.0 1.0
outer loop
vertex -6.92909649383465 2.87012574273818 24.0
vertex -6.92909649383465 -2.87012574273817 24.0
vertex -6.49519052838329 -3.74999999999999 24.0
endloop
endfacet
facet normal 0.0 0.0 1.0
outer loop
vertex -6.92909649383465 2.87012574273818 24.0
vertex -6.49519052838329 -3.74999999999999 24.0
vertex -6.49519052838329 3.75 24.0
endloop
endfacet
facet normal 0.0 0.0 1.0
outer loop
vertex -6.49519052838329 3.75 24.0
vertex -6.49519052838329 -3.74999999999999 24.0
vertex -5.95015005218427 -4.5657107175654 24.0
endloop
endfacet
facet normal 0.0 0.0 1.0
outer loop
vertex -6.49519052838329 3.75 24.0
vertex -5.95015005218427 -4.5657107175654 24.0
vertex -6.2 1.13892152320704e-15 24.0
endloop
endfacet
facet normal 0.0 0.0 1.0
outer loop
vertex -6.2 1.13892152320704e-15 24.0
vertex -5.95015005218427 -4.5657107175654 24.0
vertex -5.98874012299222 -1.60467807963563 24.0
endloop
endfacet
facet normal 0.0 0.0 1.0
outer loop
vertex -5.98874012299222 -1.60467807963563 24.0
vertex -5.95015005218427 -4.5657107175654 24.0
vertex -5.72805310156998 -2.37263728066355 24.0
endloop
endfacet
facet normal 0.0 0.0 1.0
outer loop
vertex -5.72805310156998 -2.37263728066355 24.0
vertex -5.95015005218427 -4.5657107175654 24.0
vertex -5.30330085889911 -5.30330085889911 24.0
endloop
endfacet
facet normal 0.0 0.0 1.0
outer loop
vertex -5.72805310156998 -2.37263728066355 24.0
vertex -5.30330085889911 -5.30330085889911 24.0
vertex -5.36935750346352 -3.1 24.0
endloop
endfacet
facet normal 0.0 0.0 1.0
outer loop
vertex -5.36935750346352 -3.1 24.0
vertex -5.30330085889911 -5.30330085889911 24.0
vertex -3.46410161513776 -2.0 24.0
endloop
endfacet
facet normal 0.0 0.0 1.0
outer loop
vertex -3.46410161513776 -2.0 24.0
vertex -5.30330085889911 -5.30330085889911 24.0
vertex -4.38406204335659 -4.38406204335659 24.0
endloop
endfacet
facet normal 0.0 0.0 1.0
outer loop
vertex -4.38406204335659 -4.38406204335659 24.0
vertex -5.30330085889911 -5.30330085889911 24.0
vertex -4.56571071756541 -5.95015005218426 24.0
endloop
endfacet
facet normal 0.0 0.0 1.0
outer loop
vertex -3.46410161513776 -2.0 24.0
vertex -4.38406204335659 -4.38406204335659 24.0
vertex -3.17341336116494 -2.43504571603488 24.0
endloop
endfacet
facet normal 0.0 0.0 1.0
outer loop
vertex -3.17341336116494 -2.43504571603488 24.0
vertex -4.38406204335659 -4.38406204335659 24.0
vertex -2.82842712474619 -2.82842712474619 24.0
endloop
endfacet
facet normal 0.0 0.0 1.0
outer loop
vertex -5.98874012299222 -1.60467807963563 24.0
vertex -4.0 2.44929359829471e-16 24.0
vertex -6.2 1.13892152320704e-15 24.0
endloop
endfacet
facet normal 0.0 0.0 1.0
outer loop
vertex -4.0 2.44929359829471e-16 24.0
vertex -5.98874012299222 -1.60467807963563 24.0
vertex -3.96577944549524 -0.522104768880205 24.0
endloop
endfacet
facet normal 0.0 0.0 1.0
outer loop
vertex -3.96577944549524 -0.522104768880205 24.0
vertex -5.98874012299222 -1.60467807963563 24.0
vertex -3.86370330515627 -1.03527618041008 24.0
endloop
endfacet
facet normal 0.5 -0.866025403784439 0.0
outer loop
vertex 3.75 -6.49519052838329 24.0
vertex 2.87012574273817 -6.92909649383465 0.0
vertex 3.75 -6.49519052838329 0.0
endloop
endfacet
facet normal 0.382683432365089 -0.923879532511287 0.0
outer loop
vertex 2.87012574273817 -6.92909649383465 0.0
vertex 3.75 -6.49519052838329 24.0
vertex 2.87012574273817 -6.92909649383465 24.0
endloop
endfacet
facet normal -0.130526192220052 -0.99144486137381 0.0
outer loop
vertex -0.978946441650394 -7.43583646030358 24.0
vertex -1.94114283826891 -7.24444369716801 0.0
vertex -0.978946441650394 -7.43583646030358 0.0
endloop
endfacet
facet normal -0.258819045102521 -0.965925826289068 0.0
outer loop
vertex -1.94114283826891 -7.24444369716801 0.0
vertex -0.978946441650394 -7.43583646030358 24.0
vertex -1.94114283826891 -7.24444369716801 24.0
endloop
endfacet
facet normal 0.130526192220052 -0.99144486137381 0.0
outer loop
vertex 0.978946441650387 -7.43583646030358 24.0
vertex 0.0 -7.5 0.0
vertex 0.978946441650387 -7.43583646030358 0.0
endloop
endfacet
facet normal -4.69253034872531e-16 -1.0 0.0
outer loop
vertex 0.0 -7.5 0.0
vertex 0.978946441650387 -7.43583646030358 24.0
vertex 0.0 -7.5 24.0
endloop
endfacet
facet normal 0.500000000000001 -0.866025403784438 0.0
outer loop
vertex 5.36935750346352 3.1 24.0
vertex 3.46410161513776 2.0 0.0
vertex 5.36935750346352 3.1 0.0
endloop
endfacet
facet normal 0.500000000000001 -0.866025403784438 0.0
outer loop
vertex 3.46410161513776 2.0 0.0
vertex 5.36935750346352 3.1 24.0
vertex 3.46410161513776 2.0 24.0
endloop
endfacet
facet normal 0.0 0.0 -1.0
outer loop
vertex -7.43583646030358 0.978946441650394 0.0
vertex -7.43583646030358 -0.978946441650384 0.0
vertex -7.5 1.37772764904077e-15 0.0
endloop
endfacet
facet normal 0.0 0.0 -1.0
outer loop
vertex -7.43583646030358 -0.978946441650384 0.0
vertex -7.43583646030358 0.978946441650394 0.0
vertex -7.24444369716801 -1.9411428382689 0.0
endloop
endfacet
facet normal 0.0 0.0 -1.0
outer loop
vertex -7.24444369716801 -1.9411428382689 0.0
vertex -7.43583646030358 0.978946441650394 0.0
vertex -7.24444369716801 1.94114283826891 0.0
endloop
endfacet
facet normal 0.0 0.0 -1.0
outer loop
vertex -7.24444369716801 -1.9411428382689 0.0
vertex -7.24444369716801 1.94114283826891 0.0
vertex -6.92909649383465 -2.87012574273817 0.0
endloop
endfacet
facet normal 0.0 0.0 -1.0
outer loop
vertex -6.92909649383465 -2.87012574273817 0.0
vertex -7.24444369716801 1.94114283826891 0.0
vertex -6.92909649383465 2.87012574273818 0.0
endloop
endfacet
facet normal 0.0 0.0 -1.0
outer loop
vertex -6.92909649383465 -2.87012574273817 0.0
vertex -6.92909649383465 2.87012574273818 0.0
vertex -6.49519052838329 -3.74999999999999 0.0
endloop
endfacet
facet normal 0.0 0.0 -1.0
outer loop
vertex -6.49519052838329 -3.74999999999999 0.0
vertex -6.92909649383465 2.87012574273818 0.0
vertex -6.49519052838329 3.75 0.0
endloop
endfacet
facet normal 0.0 0.0 -1.0
outer loop
vertex -6.49519052838329 -3.74999999999999 0.0
vertex -6.49519052838329 3.75 0.0
vertex -5.95015005218427 -4.5657107175654 0.0
endloop
endfacet
facet normal 0.0 0.0 -1.0
outer loop
vertex -5.95015005218427 -4.5657107175654 0.0
vertex -6.49519052838329 3.75 0.0
vertex -6.2 1.13892152320704e-15 0.0
endloop
endfacet
facet normal 0.0 0.0 -1.0
outer loop
vertex -5.95015005218427 -4.5657107175654 0.0
vertex -6.2 1.13892152320704e-15 0.0
vertex -5.98874012299222 -1.60467807963563 0.0
endloop
endfacet
facet normal 0.0 0.0 -1.0
outer loop
vertex -5.95015005218427 -4.5657107175654 0.0
vertex -5.98874012299222 -1.60467807963563 0.0
vertex -5.72805310156998 -2.37263728066355 0.0
endloop
endfacet
facet normal 0.0 0.0 -1.0
outer loop
vertex -5.95015005218427 -4.5657107175654 0.0
vertex -5.72805310156998 -2.37263728066355 0.0
vertex -5.30330085889911 -5.30330085889911 0.0
endloop
endfacet
facet normal 0.0 0.0 -1.0
outer loop
vertex -5.30330085889911 -5.30330085889911 0.0
vertex -5.72805310156998 -2.37263728066355 0.0
vertex -5.36935750346352 -3.1 0.0
endloop
endfacet
facet normal 0.0 0.0 -1.0
outer loop
vertex -5.30330085889911 -5.30330085889911 0.0
vertex -5.36935750346352 -3.1 0.0
vertex -3.46410161513776 -2.0 0.0
endloop
endfacet
facet normal 0.0 0.0 -1.0
outer loop
vertex -5.30330085889911 -5.30330085889911 0.0
vertex -3.46410161513776 -2.0 0.0
vertex -4.38406204335659 -4.38406204335659 0.0
endloop
endfacet
facet normal 0.0 0.0 -1.0
outer loop
vertex -5.30330085889911 -5.30330085889911 0.0
vertex -4.38406204335659 -4.38406204335659 0.0
vertex -4.56571071756541 -5.95015005218426 0.0
endloop
endfacet
facet normal 0.0 0.0 -1.0
outer loop
vertex -4.38406204335659 -4.38406204335659 0.0
vertex -3.46410161513776 -2.0 0.0
vertex -3.17341336116494 -2.43504571603488 0.0
endloop
endfacet
facet normal 0.0 0.0 -1.0
outer loop
vertex -4.38406204335659 -4.38406204335659 0.0
vertex -3.17341336116494 -2.43504571603488 0.0
vertex -2.82842712474619 -2.82842712474619 0.0
endloop
endfacet
facet normal 0.0 0.0 -1.0
outer loop
vertex -4.38406204335659 -4.38406204335659 0.0
vertex -3.75 -6.49519052838329 0.0
vertex -4.56571071756541 -5.95015005218426 0.0
endloop
endfacet
facet normal 0.0 0.0 -1.0
outer loop
vertex -3.75 -6.49519052838329 0.0
vertex -4.38406204335659 -4.38406204335659 0.0
vertex -3.77432085985407 -4.91879070980566 0.0
endloop
endfacet
facet normal 0.0 0.0 -1.0
outer loop
vertex -3.75 -6.49519052838329 0.0
vertex -3.77432085985407 -4.91879070980566 0.0
vertex -3.1 -5.36935750346352 0.0
endloop
endfacet
facet normal 0.0 0.0 -1.0
outer loop
vertex -3.75 -6.49519052838329 0.0
vertex -3.1 -5.36935750346352 0.0
vertex -2.87012574273818 -6.92909649383465 0.0
endloop
endfacet
facet normal 0.0 0.0 -1.0
outer loop
vertex -2.87012574273818 -6.92909649383465 0.0
vertex -3.1 -5.36935750346352 0.0
vertex -2.0 -3.46410161513775 0.0
endloop
endfacet
facet normal 0.0 0.0 -1.0
outer loop
vertex -2.87012574273818 -6.92909649383465 0.0
vertex -2.0 -3.46410161513775 0.0
vertex -1.94114283826891 -7.24444369716801 0.0
endloop
endfacet
facet normal 0.0 0.0 -1.0
outer loop
vertex -1.94114283826891 -7.24444369716801 0.0
vertex -2.0 -3.46410161513775 0.0
vertex -1.53073372946036 -3.69551813004515 0.0
endloop
endfacet
facet normal 0.0 0.0 -1.0
outer loop
vertex -1.94114283826891 -7.24444369716801 0.0
vertex -1.53073372946036 -3.69551813004515 0.0
vertex -1.60467807963563 -5.98874012299222 0.0
endloop
endfacet
facet normal 0.0 0.0 -1.0
outer loop
vertex -1.60467807963563 -5.98874012299222 0.0
vertex -1.53073372946036 -3.69551813004515 0.0
vertex -1.03527618041008 -3.86370330515627 0.0
endloop
endfacet
facet normal 0.0 0.0 -1.0
outer loop
vertex -2.87012574273817 6.92909649383465 0.0
vertex -3.1 5.36935750346352 0.0
vertex -3.75 6.49519052838329 0.0
endloop
endfacet
facet normal 0.0 0.0 -1.0
outer loop
vertex -3.1 5.36935750346352 0.0
vertex -2.87012574273817 6.92909649383465 0.0
vertex -2.37263728066355 5.72805310156998 0.0
endloop
endfacet
facet normal 0.0 0.0 -1.0
outer loop
vertex -2.37263728066355 5.72805310156998 0.0
vertex -2.87012574273817 6.92909649383465 0.0
vertex -1.9411428382689 7.24444369716801 0.0
endloop
endfacet
facet normal 0.0 0.0 -1.0
outer loop
vertex -2.37263728066355 5.72805310156998 0.0
vertex -1.9411428382689 7.24444369716801 0.0
vertex -1.60467807963563 5.98874012299222 0.0
endloop
endfacet
facet normal 0.0 0.0 -1.0
outer loop
vertex -1.60467807963563 5.98874012299222 0.0
vertex -1.9411428382689 7.24444369716801 0.0
vertex -0.978946441650385 7.43583646030358 0.0
endloop
endfacet
facet normal 0.0 0.0 -1.0
outer loop
vertex -1.60467807963563 5.98874012299222 0.0
vertex -0.978946441650385 7.43583646030358 0.0
vertex -1.03527618041008 3.86370330515627 0.0
endloop
endfacet
facet normal 0.0 0.0 -1.0
outer loop
vertex -1.03527618041008 3.86370330515627 0.0
vertex -0.978946441650385 7.43583646030358 0.0
vertex -0.522104768880206 3.96577944549524 0.0
endloop
endfacet
facet normal 0.0 0.0 -1.0
outer loop
vertex -0.522104768880206 3.96577944549524 0.0
vertex -0.978946441650385 7.43583646030358 0.0
vertex 9.18485099360515e-16 7.5 0.0
endloop
endfacet
facet normal 0.0 0.0 -1.0
outer loop
vertex -0.522104768880206 3.96577944549524 0.0
vertex 9.18485099360515e-16 7.5 0.0
vertex 0.0 4.0 0.0
endloop
endfacet
facet normal 0.0 0.0 -1.0
outer loop
vertex 0.0 4.0 0.0
vertex 9.18485099360515e-16 7.5 0.0
vertex 7.59281015471359e-16 6.2 0.0
endloop
endfacet
facet normal 0.0 0.0 -1.0
outer loop
vertex 7.59281015471359e-16 6.2 0.0
vertex 9.18485099360515e-16 7.5 0.0
vertex 0.809262391764322 6.14695814051762 0.0
endloop
endfacet
facet normal 0.0 0.0 -1.0
outer loop
vertex 0.809262391764322 6.14695814051762 0.0
vertex 9.18485099360515e-16 7.5 0.0
vertex 0.97894644165039 7.43583646030358 0.0
endloop
endfacet
facet normal 0.0 0.0 -1.0
outer loop
vertex 0.809262391764322 6.14695814051762 0.0
vertex 0.97894644165039 7.43583646030358 0.0
vertex 1.60467807963563 5.98874012299222 0.0
endloop
endfacet
facet normal 0.0 0.0 -1.0
outer loop
vertex 1.60467807963563 5.98874012299222 0.0
vertex 0.97894644165039 7.43583646030358 0.0
vertex 1.94114283826891 7.24444369716801 0.0
endloop
endfacet
facet normal 0.0 0.0 -1.0
outer loop
vertex 1.60467807963563 5.98874012299222 0.0
vertex 1.53073372946036 3.69551813004515 0.0
vertex 1.03527618041009 3.86370330515627 0.0
endloop
endfacet
facet normal 0.0 0.0 -1.0
outer loop
vertex 1.53073372946036 3.69551813004515 0.0
vertex 1.60467807963563 5.98874012299222 0.0
vertex 2.0 3.46410161513775 0.0
endloop
endfacet
facet normal 0.0 0.0 -1.0
outer loop
vertex 2.0 3.46410161513775 0.0
vertex 1.60467807963563 5.98874012299222 0.0
vertex 1.94114283826891 7.24444369716801 0.0
endloop
endfacet
facet normal 0.0 0.0 -1.0
outer loop
vertex 2.0 3.46410161513775 0.0
vertex 1.94114283826891 7.24444369716801 0.0
vertex 2.87012574273817 6.92909649383465 0.0
endloop
endfacet
facet normal 0.0 0.0 -1.0
outer loop
vertex 2.0 3.46410161513775 0.0
vertex 2.87012574273817 6.92909649383465 0.0
vertex 3.1 5.36935750346352 0.0
endloop
endfacet
facet normal 0.0 0.0 -1.0
outer loop
vertex 3.1 5.36935750346352 0.0
vertex 2.87012574273817 6.92909649383465 0.0
vertex 3.75 6.49519052838329 0.0
endloop
endfacet
facet normal 0.0 0.0 -1.0
outer loop
vertex 3.1 5.36935750346352 0.0
vertex 3.75 6.49519052838329 0.0
vertex 3.77432085985407 4.91879070980566 0.0
endloop
endfacet
facet normal 0.0 0.0 -1.0
outer loop
vertex 3.77432085985407 4.91879070980566 0.0
vertex 3.75 6.49519052838329 0.0
vertex 4.56571071756541 5.95015005218426 0.0
endloop
endfacet
facet normal 0.0 0.0 -1.0
outer loop
vertex 3.77432085985407 4.91879070980566 0.0
vertex 4.56571071756541 5.95015005218426 0.0
vertex 4.38406204335659 4.38406204335659 0.0
endloop
endfacet
facet normal 0.0 0.0 -1.0
outer loop
vertex 4.38406204335659 4.38406204335659 0.0
vertex 3.17341336116494 2.43504571603488 0.0
vertex 2.82842712474619 2.82842712474619 0.0
endloop
endfacet
facet normal 0.0 0.0 -1.0
outer loop
vertex 3.17341336116494 2.43504571603488 0.0
vertex 4.38406204335659 4.38406204335659 0.0
vertex 3.46410161513776 2.0 0.0
endloop
endfacet
facet normal 0.0 0.0 -1.0
outer loop
vertex 3.46410161513776 2.0 0.0
vertex 4.38406204335659 4.38406204335659 0.0
vertex 5.36935750346352 3.1 0.0
endloop
endfacet
facet normal 0.0 0.0 -1.0
outer loop
vertex 5.36935750346352 3.1 0.0
vertex 4.38406204335659 4.38406204335659 0.0
vertex 4.56571071756541 5.95015005218426 0.0
endloop
endfacet
facet normal 0.0 0.0 -1.0
outer loop
vertex 5.36935750346352 3.1 0.0
vertex 4.56571071756541 5.95015005218426 0.0
vertex 5.30330085889911 5.30330085889911 0.0
endloop
endfacet
facet normal 0.0 0.0 -1.0
outer loop
vertex 5.36935750346352 3.1 0.0
vertex 5.30330085889911 5.30330085889911 0.0
vertex 5.95015005218426 4.5657107175654 0.0
endloop
endfacet
facet normal 0.0 0.0 -1.0
outer loop
vertex 5.36935750346352 3.1 0.0
vertex 5.95015005218426 4.5657107175654 0.0
vertex 5.72805310156998 2.37263728066355 0.0
endloop
endfacet
facet normal 0.0 0.0 -1.0
outer loop
vertex 5.72805310156998 2.37263728066355 0.0
vertex 5.95015005218426 4.5657107175654 0.0
vertex 5.98874012299222 1.60467807963563 0.0
endloop
endfacet
facet normal 0.0 0.0 -1.0
outer loop
vertex 5.98874012299222 1.60467807963563 0.0
vertex 5.95015005218426 4.5657107175654 0.0
vertex 6.49519052838329 3.75 0.0
endloop
endfacet
facet normal 0.0 0.0 -1.0
outer loop
vertex 5.98874012299222 1.60467807963563 0.0
vertex 6.49519052838329 3.75 0.0
vertex 6.2 -3.7964050773568e-16 0.0
endloop
endfacet
facet normal 0.0 0.0 -1.0
outer loop
vertex 6.2 -3.7964050773568e-16 0.0
vertex 6.49519052838329 3.75 0.0
vertex 6.49519052838329 -3.75 0.0
endloop
endfacet
facet normal 0.0 0.0 -1.0
outer loop
vertex 6.49519052838329 -3.75 0.0
vertex 6.49519052838329 3.75 0.0
vertex 6.92909649383465 -2.87012574273817 0.0
endloop
endfacet
facet normal 0.0 0.0 -1.0
outer loop
vertex 6.92909649383465 -2.87012574273817 0.0
vertex 6.49519052838329 3.75 0.0
vertex 6.92909649383465 2.87012574273817 0.0
endloop
endfacet
facet normal 0.0 0.0 -1.0
outer loop
vertex 6.92909649383465 -2.87012574273817 0.0
vertex 6.92909649383465 2.87012574273817 0.0
vertex 7.24444369716801 1.9411428382689 0.0
endloop
endfacet
facet normal 0.0 0.0 -1.0
outer loop
vertex 6.92909649383465 -2.87012574273817 0.0
vertex 7.24444369716801 1.9411428382689 0.0
vertex 7.24444369716801 -1.94114283826891 0.0
endloop
endfacet
facet normal 0.0 0.0 -1.0
outer loop
vertex 7.24444369716801 -1.94114283826891 0.0
vertex 7.24444369716801 1.9411428382689 0.0
vertex 7.43583646030358 0.978946441650385 0.0
endloop
endfacet
facet normal 0.0 0.0 -1.0
outer loop
vertex 7.24444369716801 -1.94114283826891 0.0
vertex 7.43583646030358 0.978946441650385 0.0
vertex 7.43583646030358 -0.978946441650388 0.0
endloop
endfacet
facet normal 0.0 0.0 -1.0
outer loop
vertex 7.43583646030358 -0.978946441650388 0.0
vertex 7.43583646030358 0.978946441650385 0.0
vertex 7.5 -4.59242549680257e-16 0.0
endloop
endfacet
facet normal 0.0 0.0 -1.0
outer loop
vertex 3.69551813004515 -1.53073372946036 0.0
vertex 5.36935750346352 -3.1 0.0
vertex 3.46410161513775 -2.0 0.0
endloop
endfacet
facet normal 0.0 0.0 -1.0
outer loop
vertex 5.36935750346352 -3.1 0.0
vertex 3.69551813004515 -1.53073372946036 0.0
vertex 3.86370330515627 -1.03527618041009 0.0
endloop
endfacet
facet normal 0.0 0.0 -1.0
outer loop
vertex 5.36935750346352 -3.1 0.0
vertex 3.86370330515627 -1.03527618041009 0.0
vertex 5.98874012299222 -1.60467807963563 0.0
endloop
endfacet
facet normal 0.0 0.0 -1.0
outer loop
vertex 5.36935750346352 -3.1 0.0
vertex 5.98874012299222 -1.60467807963563 0.0
vertex 5.95015005218426 -4.56571071756541 0.0
endloop
endfacet
facet normal 0.0 0.0 -1.0
outer loop
vertex 5.95015005218426 -4.56571071756541 0.0
vertex 5.98874012299222 -1.60467807963563 0.0
vertex 6.49519052838329 -3.75 0.0
endloop
endfacet
facet normal 0.0 0.0 -1.0
outer loop
vertex 6.49519052838329 -3.75 0.0
vertex 5.98874012299222 -1.60467807963563 0.0
vertex 6.14695814051762 -0.809262391764321 0.0
endloop
endfacet
facet normal 0.0 0.0 -1.0
outer loop
vertex 6.49519052838329 -3.75 0.0
vertex 6.14695814051762 -0.809262391764321 0.0
vertex 6.2 -3.7964050773568e-16 0.0
endloop
endfacet
facet normal 0.0 0.0 -1.0
outer loop
vertex 5.98874012299222 1.60467807963563 0.0
vertex 3.96577944549524 0.522104768880205 0.0
vertex 3.86370330515627 1.03527618041008 0.0
endloop
endfacet
facet normal 0.0 0.0 -1.0
outer loop
vertex 3.96577944549524 0.522104768880205 0.0
vertex 5.98874012299222 1.60467807963563 0.0
vertex 4.0 -7.34788079488412e-16 0.0
endloop
endfacet
facet normal 0.0 0.0 -1.0
outer loop
vertex 4.0 -7.34788079488412e-16 0.0
vertex 5.98874012299222 1.60467807963563 0.0
vertex 6.2 -3.7964050773568e-16 0.0
endloop
endfacet
facet normal 0.0 0.0 -1.0
outer loop
vertex 2.43504571603488 -3.17341336116494 0.0
vertex 3.1 -5.36935750346352 0.0
vertex 2.0 -3.46410161513775 0.0
endloop
endfacet
facet normal 0.0 0.0 -1.0
outer loop
vertex 3.1 -5.36935750346352 0.0
vertex 2.43504571603488 -3.17341336116494 0.0
vertex 2.82842712474619 -2.82842712474619 0.0
endloop
endfacet
facet normal 0.0 0.0 -1.0
outer loop
vertex 3.1 -5.36935750346352 0.0
vertex 2.82842712474619 -2.82842712474619 0.0
vertex 4.38406204335659 -4.38406204335659 0.0
endloop
endfacet
facet normal 0.0 0.0 -1.0
outer loop
vertex 3.1 -5.36935750346352 0.0
vertex 4.38406204335659 -4.38406204335659 0.0
vertex 3.75 -6.49519052838329 0.0
endloop
endfacet
facet normal 0.0 0.0 -1.0
outer loop
vertex 3.75 -6.49519052838329 0.0
vertex 4.38406204335659 -4.38406204335659 0.0
vertex 4.5657107175654 -5.95015005218426 0.0
endloop
endfacet
facet normal 0.0 0.0 -1.0
outer loop
vertex 4.5657107175654 -5.95015005218426 0.0
vertex 4.38406204335659 -4.38406204335659 0.0
vertex 4.91879070980566 -3.77432085985407 0.0
endloop
endfacet
facet normal 0.0 0.0 -1.0
outer loop
vertex 4.5657107175654 -5.95015005218426 0.0
vertex 4.91879070980566 -3.77432085985407 0.0
vertex 5.30330085889911 -5.30330085889911 0.0
endloop
endfacet
facet normal 0.0 0.0 -1.0
outer loop
vertex 5.30330085889911 -5.30330085889911 0.0
vertex 4.91879070980566 -3.77432085985407 0.0
vertex 5.36935750346352 -3.1 0.0
endloop
endfacet
facet normal 0.0 0.0 -1.0
outer loop
vertex 5.30330085889911 -5.30330085889911 0.0
vertex 5.36935750346352 -3.1 0.0
vertex 5.95015005218426 -4.56571071756541 0.0
endloop
endfacet
facet normal 0.0 0.0 -1.0
outer loop
vertex 0.522104768880205 -3.96577944549524 0.0
vertex 0.0 -6.2 0.0
vertex -4.89858719658941e-16 -4.0 0.0
endloop
endfacet
facet normal 0.0 0.0 -1.0
outer loop
vertex 0.0 -6.2 0.0
vertex 0.522104768880205 -3.96577944549524 0.0
vertex 0.0 -7.5 0.0
endloop
endfacet
facet normal 0.0 0.0 -1.0
outer loop
vertex 0.0 -7.5 0.0
vertex 0.522104768880205 -3.96577944549524 0.0
vertex 0.978946441650387 -7.43583646030358 0.0
endloop
endfacet
facet normal 0.0 0.0 -1.0
outer loop
vertex 0.978946441650387 -7.43583646030358 0.0
vertex 0.522104768880205 -3.96577944549524 0.0
vertex 1.03527618041008 -3.86370330515627 0.0
endloop
endfacet
facet normal 0.0 0.0 -1.0
outer loop
vertex 0.978946441650387 -7.43583646030358 0.0
vertex 1.03527618041008 -3.86370330515627 0.0
vertex 1.94114283826891 -7.24444369716801 0.0
endloop
endfacet
facet normal 0.0 0.0 -1.0
outer loop
vertex 1.94114283826891 -7.24444369716801 0.0
vertex 1.03527618041008 -3.86370330515627 0.0
vertex 1.60467807963563 -5.98874012299222 0.0
endloop
endfacet
facet normal 0.0 0.0 -1.0
outer loop
vertex 1.94114283826891 -7.24444369716801 0.0
vertex 1.60467807963563 -5.98874012299222 0.0
vertex 2.37263728066356 -5.72805310156998 0.0
endloop
endfacet
facet normal 0.0 0.0 -1.0
outer loop
vertex 1.94114283826891 -7.24444369716801 0.0
vertex 2.37263728066356 -5.72805310156998 0.0
vertex 2.87012574273817 -6.92909649383465 0.0
endloop
endfacet
facet normal 0.0 0.0 -1.0
outer loop
vertex 2.87012574273817 -6.92909649383465 0.0
vertex 2.37263728066356 -5.72805310156998 0.0
vertex 3.1 -5.36935750346352 0.0
endloop
endfacet
facet normal 0.0 0.0 -1.0
outer loop
vertex 2.87012574273817 -6.92909649383465 0.0
vertex 3.1 -5.36935750346352 0.0
vertex 3.75 -6.49519052838329 0.0
endloop
endfacet
facet normal 0.0 0.0 -1.0
outer loop
vertex -1.60467807963563 -5.98874012299222 0.0
vertex -0.978946441650394 -7.43583646030358 0.0
vertex -1.94114283826891 -7.24444369716801 0.0
endloop
endfacet
facet normal 0.0 0.0 -1.0
outer loop
vertex -0.978946441650394 -7.43583646030358 0.0
vertex -1.60467807963563 -5.98874012299222 0.0
vertex -0.809262391764326 -6.14695814051762 0.0
endloop
endfacet
facet normal 0.0 0.0 -1.0
outer loop
vertex -0.978946441650394 -7.43583646030358 0.0
vertex -0.809262391764326 -6.14695814051762 0.0
vertex 0.0 -7.5 0.0
endloop
endfacet
facet normal 0.0 0.0 -1.0
outer loop
vertex 0.0 -7.5 0.0
vertex -0.809262391764326 -6.14695814051762 0.0
vertex 0.0 -6.2 0.0
endloop
endfacet
facet normal 0.0 0.0 -1.0
outer loop
vertex -5.3033008588991 5.30330085889911 0.0
vertex -5.36935750346352 3.1 0.0
vertex -5.95015005218426 4.56571071756541 0.0
endloop
endfacet
facet normal 0.0 0.0 -1.0
outer loop
vertex -5.36935750346352 3.1 0.0
vertex -5.3033008588991 5.30330085889911 0.0
vertex -4.91879070980566 3.77432085985407 0.0
endloop
endfacet
facet normal 0.0 0.0 -1.0
outer loop
vertex -4.91879070980566 3.77432085985407 0.0
vertex -5.3033008588991 5.30330085889911 0.0
vertex -4.5657107175654 5.95015005218426 0.0
endloop
endfacet
facet normal 0.0 0.0 -1.0
outer loop
vertex -4.91879070980566 3.77432085985407 0.0
vertex -4.5657107175654 5.95015005218426 0.0
vertex -4.38406204335659 4.3840620433566 0.0
endloop
endfacet
facet normal 0.0 0.0 -1.0
outer loop
vertex -4.38406204335659 4.3840620433566 0.0
vertex -4.5657107175654 5.95015005218426 0.0
vertex -3.75 6.49519052838329 0.0
endloop
endfacet
facet normal 0.0 0.0 -1.0
outer loop
vertex -4.38406204335659 4.3840620433566 0.0
vertex -3.75 6.49519052838329 0.0
vertex -2.82842712474619 2.82842712474619 0.0
endloop
endfacet
facet normal 0.0 0.0 -1.0
outer loop
vertex -2.82842712474619 2.82842712474619 0.0
vertex -3.75 6.49519052838329 0.0
vertex -3.1 5.36935750346352 0.0
endloop
endfacet
facet normal 0.0 0.0 -1.0
outer loop
vertex -2.82842712474619 2.82842712474619 0.0
vertex -3.1 5.36935750346352 0.0
vertex -2.43504571603488 3.17341336116494 0.0
endloop
endfacet
facet normal 0.0 0.0 -1.0
outer loop
vertex -2.43504571603488 3.17341336116494 0.0
vertex -3.1 5.36935750346352 0.0
vertex -2.0 3.46410161513775 0.0
endloop
endfacet
facet normal 0.0 0.0 -1.0
outer loop
vertex -4.0 2.44929359829471e-16 0.0
vertex -5.98874012299222 -1.60467807963563 0.0
vertex -6.2 1.13892152320704e-15 0.0
endloop
endfacet
facet normal 0.0 0.0 -1.0
outer loop
vertex -5.98874012299222 -1.60467807963563 0.0
vertex -4.0 2.44929359829471e-16 0.0
vertex -3.96577944549524 -0.522104768880205 0.0
endloop
endfacet
facet normal 0.0 0.0 -1.0
outer loop
vertex -5.98874012299222 -1.60467807963563 0.0
vertex -3.96577944549524 -0.522104768880205 0.0
vertex -3.86370330515627 -1.03527618041008 0.0
endloop
endfacet
facet normal 0.0 0.0 -1.0
outer loop
vertex -5.95015005218426 4.56571071756541 0.0
vertex -6.2 1.13892152320704e-15 0.0
vertex -6.49519052838329 3.75 0.0
endloop
endfacet
facet normal 0.0 0.0 -1.0
outer loop
vertex -6.2 1.13892152320704e-15 0.0
vertex -5.95015005218426 4.56571071756541 0.0
vertex -6.14695814051762 0.809262391764326 0.0
endloop
endfacet
facet normal 0.0 0.0 -1.0
outer loop
vertex -6.14695814051762 0.809262391764326 0.0
vertex -5.95015005218426 4.56571071756541 0.0
vertex -5.98874012299222 1.60467807963563 0.0
endloop
endfacet
facet normal 0.0 0.0 -1.0
outer loop
vertex -5.98874012299222 1.60467807963563 0.0
vertex -5.95015005218426 4.56571071756541 0.0
vertex -5.36935750346352 3.1 0.0
endloop
endfacet
facet normal 0.0 0.0 -1.0
outer loop
vertex -5.98874012299222 1.60467807963563 0.0
vertex -5.36935750346352 3.1 0.0
vertex -3.86370330515627 1.03527618041008 0.0
endloop
endfacet
facet normal 0.0 0.0 -1.0
outer loop
vertex -3.86370330515627 1.03527618041008 0.0
vertex -5.36935750346352 3.1 0.0
vertex -3.69551813004515 1.53073372946036 0.0
endloop
endfacet
facet normal 0.0 0.0 -1.0
outer loop
vertex -3.69551813004515 1.53073372946036 0.0
vertex -5.36935750346352 3.1 0.0
vertex -3.46410161513775 2.0 0.0
endloop
endfacet
facet normal 0.793353340291235 -0.608761429008721 0.0
outer loop
vertex -4.91879070980566 3.77432085985407 0.0
vertex -5.36935750346352 3.1 24.0
vertex -5.36935750346352 3.1 0.0
endloop
endfacet
facet normal 0.831469612302545 -0.555570233019602 0.0
outer loop
vertex -5.36935750346352 3.1 24.0
vertex -4.91879070980566 3.77432085985407 0.0
vertex -4.91879070980566 3.77432085985407 24.0
endloop
endfacet
facet normal 0.707106781186547 -0.707106781186548 0.0
outer loop
vertex 5.30330085889911 -5.30330085889911 24.0
vertex 4.5657107175654 -5.95015005218426 0.0
vertex 5.30330085889911 -5.30330085889911 0.0
endloop
endfacet
facet normal 0.608761429008721 -0.793353340291235 0.0
outer loop
vertex 4.5657107175654 -5.95015005218426 0.0
vertex 5.30330085889911 -5.30330085889911 24.0
vertex 4.5657107175654 -5.95015005218426 24.0
endloop
endfacet
facet normal -0.707106781186548 -0.707106781186546 -0.0
outer loop
vertex -4.38406204335659 4.3840620433566 24.0
vertex -2.82842712474619 2.82842712474619 0.0
vertex -2.82842712474619 2.82842712474619 24.0
endloop
endfacet
facet normal -0.707106781186548 -0.707106781186546 -0.0
outer loop
vertex -2.82842712474619 2.82842712474619 0.0
vertex -4.38406204335659 4.3840620433566 24.0
vertex -4.38406204335659 4.3840620433566 0.0
endloop
endfacet
facet normal -0.5 0.866025403784439 0.0
outer loop
vertex -3.75 6.49519052838329 24.0
vertex -2.87012574273817 6.92909649383465 0.0
vertex -3.75 6.49519052838329 0.0
endloop
endfacet
facet normal -0.38268343236509 0.923879532511287 0.0
outer loop
vertex -2.87012574273817 6.92909649383465 0.0
vertex -3.75 6.49519052838329 24.0
vertex -2.87012574273817 6.92909649383465 24.0
endloop
endfacet
facet normal -0.707106781186547 0.707106781186548 0.0
outer loop
vertex -5.3033008588991 5.30330085889911 24.0
vertex -5.95015005218426 4.56571071756541 0.0
vertex -5.95015005218426 4.56571071756541 24.0
endloop
endfacet
facet normal -0.793353340291235 0.608761429008721 0.0
outer loop
vertex -5.95015005218426 4.56571071756541 0.0
vertex -5.3033008588991 5.30330085889911 24.0
vertex -5.3033008588991 5.30330085889911 0.0
endloop
endfacet
facet normal -0.707106781186547 0.707106781186548 0.0
outer loop
vertex -5.3033008588991 5.30330085889911 24.0
vertex -4.5657107175654 5.95015005218426 0.0
vertex -5.3033008588991 5.30330085889911 0.0
endloop
endfacet
facet normal -0.60876142900872 0.793353340291235 0.0
outer loop
vertex -4.5657107175654 5.95015005218426 0.0
vertex -5.3033008588991 5.30330085889911 24.0
vertex -4.5657107175654 5.95015005218426 24.0
endloop
endfacet
facet normal 0.866025403784438 -0.5 0.0
outer loop
vertex 6.49519052838329 -3.75 0.0
vertex 5.95015005218426 -4.56571071756541 24.0
vertex 5.95015005218426 -4.56571071756541 0.0
endloop
endfacet
facet normal 0.793353340291235 -0.60876142900872 0.0
outer loop
vertex 5.95015005218426 -4.56571071756541 24.0
vertex 6.49519052838329 -3.75 0.0
vertex 6.49519052838329 -3.75 24.0
endloop
endfacet
facet normal 0.866025403784439 0.499999999999999 0.0
outer loop
vertex -3.1 5.36935750346352 0.0
vertex -2.0 3.46410161513775 24.0
vertex -2.0 3.46410161513775 0.0
endloop
endfacet
facet normal 0.866025403784439 0.499999999999999 0.0
outer loop
vertex -2.0 3.46410161513775 24.0
vertex -3.1 5.36935750346352 0.0
vertex -3.1 5.36935750346352 24.0
endloop
endfacet
facet normal 0.793353340291235 -0.60876142900872 0.0
outer loop
vertex 5.95015005218426 -4.56571071756541 0.0
vertex 5.30330085889911 -5.30330085889911 24.0
vertex 5.30330085889911 -5.30330085889911 0.0
endloop
endfacet
facet normal 0.707106781186547 -0.707106781186548 0.0
outer loop
vertex 5.30330085889911 -5.30330085889911 24.0
vertex 5.95015005218426 -4.56571071756541 0.0
vertex 5.95015005218426 -4.56571071756541 24.0
endloop
endfacet
facet normal -0.99144486137381 0.130526192220052 0.0
outer loop
vertex 6.14695814051762 -0.809262391764321 24.0
vertex 5.98874012299222 -1.60467807963563 0.0
vertex 5.98874012299222 -1.60467807963563 24.0
endloop
endfacet
facet normal -0.98078528040323 0.195090322016129 0.0
outer loop
vertex 5.98874012299222 -1.60467807963563 0.0
vertex 6.14695814051762 -0.809262391764321 24.0
vertex 6.14695814051762 -0.809262391764321 0.0
endloop
endfacet
facet normal 0.60876142900872 -0.793353340291235 0.0
outer loop
vertex -2.43504571603488 3.17341336116494 24.0
vertex -2.82842712474619 2.82842712474619 0.0
vertex -2.43504571603488 3.17341336116494 0.0
endloop
endfacet
facet normal 0.659345815100069 -0.751839807478978 0.0
outer loop
vertex -2.82842712474619 2.82842712474619 0.0
vertex -2.43504571603488 3.17341336116494 24.0
vertex -2.82842712474619 2.82842712474619 24.0
endloop
endfacet
facet normal 0.608761429008721 -0.793353340291235 0.0
outer loop
vertex 4.5657107175654 -5.95015005218426 24.0
vertex 3.75 -6.49519052838329 0.0
vertex 4.5657107175654 -5.95015005218426 0.0
endloop
endfacet
facet normal 0.5 -0.866025403784439 0.0
outer loop
vertex 3.75 -6.49519052838329 0.0
vertex 4.5657107175654 -5.95015005218426 24.0
vertex 3.75 -6.49519052838329 24.0
endloop
endfacet
facet normal 0.751839807478977 -0.659345815100069 0.0
outer loop
vertex -4.38406204335659 4.3840620433566 0.0
vertex -4.91879070980566 3.77432085985407 24.0
vertex -4.91879070980566 3.77432085985407 0.0
endloop
endfacet
facet normal 0.793353340291235 -0.608761429008721 0.0
outer loop
vertex -4.91879070980566 3.77432085985407 24.0
vertex -4.38406204335659 4.3840620433566 0.0
vertex -4.38406204335659 4.3840620433566 24.0
endloop
endfacet
facet normal -0.866025403784438 -0.5 -0.0
outer loop
vertex 2.0 -3.46410161513775 24.0
vertex 3.1 -5.36935750346352 0.0
vertex 3.1 -5.36935750346352 24.0
endloop
endfacet
facet normal -0.866025403784438 -0.5 -0.0
outer loop
vertex 3.1 -5.36935750346352 0.0
vertex 2.0 -3.46410161513775 24.0
vertex 2.0 -3.46410161513775 0.0
endloop
endfacet
facet normal -0.793353340291236 -0.60876142900872 0.0
outer loop
vertex 3.17341336116494 2.43504571603488 24.0
vertex 3.46410161513776 2.0 0.0
vertex 3.46410161513776 2.0 24.0
endloop
endfacet
facet normal -0.831469612302545 -0.555570233019602 -0.0
outer loop
vertex 3.46410161513776 2.0 0.0
vertex 3.17341336116494 2.43504571603488 24.0
vertex 3.17341336116494 2.43504571603488 0.0
endloop
endfacet
facet normal 0.382683432365089 -0.923879532511287 0.0
outer loop
vertex -2.37263728066355 5.72805310156998 24.0
vertex -3.1 5.36935750346352 0.0
vertex -2.37263728066355 5.72805310156998 0.0
endloop
endfacet
facet normal 0.442288690219001 -0.896872741532689 0.0
outer loop
vertex -3.1 5.36935750346352 0.0
vertex -2.37263728066355 5.72805310156998 24.0
vertex -3.1 5.36935750346352 24.0
endloop
endfacet
facet normal 0.793353340291235 0.60876142900872 0.0
outer loop
vertex 5.95015005218426 4.5657107175654 0.0
vertex 6.49519052838329 3.75 24.0
vertex 6.49519052838329 3.75 0.0
endloop
endfacet
facet normal 0.866025403784439 0.5 0.0
outer loop
vertex 6.49519052838329 3.75 24.0
vertex 5.95015005218426 4.5657107175654 0.0
vertex 5.95015005218426 4.5657107175654 24.0
endloop
endfacet
facet normal 0.866025403784439 0.5 0.0
outer loop
vertex 6.49519052838329 3.75 0.0
vertex 6.92909649383465 2.87012574273817 24.0
vertex 6.92909649383465 2.87012574273817 0.0
endloop
endfacet
facet normal 0.923879532511287 0.382683432365089 0.0
outer loop
vertex 6.92909649383465 2.87012574273817 24.0
vertex 6.49519052838329 3.75 0.0
vertex 6.49519052838329 3.75 24.0
endloop
endfacet
facet normal 0.923879532511287 0.382683432365089 0.0
outer loop
vertex 6.92909649383465 2.87012574273817 0.0
vertex 7.24444369716801 1.9411428382689 24.0
vertex 7.24444369716801 1.9411428382689 0.0
endloop
endfacet
facet normal 0.965925826289068 0.258819045102521 0.0
outer loop
vertex 7.24444369716801 1.9411428382689 24.0
vertex 6.92909649383465 2.87012574273817 0.0
vertex 6.92909649383465 2.87012574273817 24.0
endloop
endfacet
facet normal 0.965925826289068 0.258819045102521 0.0
outer loop
vertex 7.24444369716801 1.9411428382689 0.0
vertex 7.43583646030358 0.978946441650385 24.0
vertex 7.43583646030358 0.978946441650385 0.0
endloop
endfacet
facet normal 0.99144486137381 0.130526192220052 0.0
outer loop
vertex 7.43583646030358 0.978946441650385 24.0
vertex 7.24444369716801 1.9411428382689 0.0
vertex 7.24444369716801 1.9411428382689 24.0
endloop
endfacet
facet normal -0.751839807478978 -0.659345815100068 -0.0
outer loop
vertex 2.82842712474619 2.82842712474619 24.0
vertex 3.17341336116494 2.43504571603488 0.0
vertex 3.17341336116494 2.43504571603488 24.0
endloop
endfacet
facet normal -0.793353340291236 -0.60876142900872 0.0
outer loop
vertex 3.17341336116494 2.43504571603488 0.0
vertex 2.82842712474619 2.82842712474619 24.0
vertex 2.82842712474619 2.82842712474619 0.0
endloop
endfacet
facet normal -0.707106781186548 0.707106781186547 0.0
outer loop
vertex 4.38406204335659 4.38406204335659 24.0
vertex 2.82842712474619 2.82842712474619 0.0
vertex 2.82842712474619 2.82842712474619 24.0
endloop
endfacet
facet normal -0.707106781186548 0.707106781186547 0.0
outer loop
vertex 2.82842712474619 2.82842712474619 0.0
vertex 4.38406204335659 4.38406204335659 24.0
vertex 4.38406204335659 4.38406204335659 0.0
endloop
endfacet
facet normal -0.65934581510007 -0.751839807478977 -0.0
outer loop
vertex 4.38406204335659 4.38406204335659 24.0
vertex 3.77432085985407 4.91879070980566 0.0
vertex 4.38406204335659 4.38406204335659 0.0
endloop
endfacet
facet normal -0.608761429008721 -0.793353340291235 0.0
outer loop
vertex 3.77432085985407 4.91879070980566 0.0
vertex 4.38406204335659 4.38406204335659 24.0
vertex 3.77432085985407 4.91879070980566 24.0
endloop
endfacet
facet normal -1.0 -2.22663054390428e-16 -0.0
outer loop
vertex -4.89858719658941e-16 -4.0 24.0
vertex 0.0 -6.2 0.0
vertex 0.0 -6.2 24.0
endloop
endfacet
facet normal -1.0 -2.22663054390428e-16 -0.0
outer loop
vertex 0.0 -6.2 0.0
vertex -4.89858719658941e-16 -4.0 24.0
vertex -4.89858719658941e-16 -4.0 0.0
endloop
endfacet
facet normal 0.923879532511287 -0.38268343236509 0.0
outer loop
vertex 6.92909649383465 -2.87012574273817 0.0
vertex 6.49519052838329 -3.75 24.0
vertex 6.49519052838329 -3.75 0.0
endloop
endfacet
facet normal 0.866025403784438 -0.5 0.0
outer loop
vertex 6.49519052838329 -3.75 24.0
vertex 6.92909649383465 -2.87012574273817 0.0
vertex 6.92909649383465 -2.87012574273817 24.0
endloop
endfacet
facet normal -0.258819045102521 -0.965925826289068 0.0
outer loop
vertex -1.94114283826891 -7.24444369716801 24.0
vertex -2.87012574273818 -6.92909649383465 0.0
vertex -1.94114283826891 -7.24444369716801 0.0
endloop
endfacet
facet normal -0.38268343236509 -0.923879532511287 0.0
outer loop
vertex -2.87012574273818 -6.92909649383465 0.0
vertex -1.94114283826891 -7.24444369716801 24.0
vertex -2.87012574273818 -6.92909649383465 24.0
endloop
endfacet
facet normal 0.997858923238603 0.0654031292301424 0.0
outer loop
vertex -4.0 2.44929359829471e-16 0.0
vertex -3.96577944549524 -0.522104768880205 24.0
vertex -3.96577944549524 -0.522104768880205 0.0
endloop
endfacet
facet normal 0.99144486137381 0.130526192220052 0.0
outer loop
vertex -3.96577944549524 -0.522104768880205 24.0
vertex -4.0 2.44929359829471e-16 0.0
vertex -4.0 2.44929359829471e-16 24.0
endloop
endfacet
facet normal -0.965925826289069 -0.25881904510252 -0.0
outer loop
vertex -1.60467807963563 5.98874012299222 24.0
vertex -1.03527618041008 3.86370330515627 0.0
vertex -1.03527618041008 3.86370330515627 24.0
endloop
endfacet
facet normal -0.965925826289069 -0.25881904510252 -0.0
outer loop
vertex -1.03527618041008 3.86370330515627 0.0
vertex -1.60467807963563 5.98874012299222 24.0
vertex -1.60467807963563 5.98874012299222 0.0
endloop
endfacet
facet normal 0.382683432365089 -0.923879532511287 0.0
outer loop
vertex 2.87012574273817 -6.92909649383465 24.0
vertex 1.94114283826891 -7.24444369716801 0.0
vertex 2.87012574273817 -6.92909649383465 0.0
endloop
endfacet
facet normal 0.258819045102521 -0.965925826289068 0.0
outer loop
vertex 1.94114283826891 -7.24444369716801 0.0
vertex 2.87012574273817 -6.92909649383465 24.0
vertex 1.94114283826891 -7.24444369716801 24.0
endloop
endfacet
facet normal 0.130526192220052 0.99144486137381 0.0
outer loop
vertex 0.97894644165039 7.43583646030358 24.0
vertex 1.94114283826891 7.24444369716801 0.0
vertex 0.97894644165039 7.43583646030358 0.0
endloop
endfacet
facet normal 0.258819045102521 0.965925826289068 0.0
outer loop
vertex 1.94114283826891 7.24444369716801 0.0
vertex 0.97894644165039 7.43583646030358 24.0
vertex 1.94114283826891 7.24444369716801 24.0
endloop
endfacet
facet normal -0.38268343236509 -0.923879532511286 0.0
outer loop
vertex 1.53073372946036 3.69551813004515 24.0
vertex 1.03527618041009 3.86370330515627 0.0
vertex 1.53073372946036 3.69551813004515 0.0
endloop
endfacet
facet normal -0.321439465303162 -0.946930129495106 -0.0
outer loop
vertex 1.03527618041009 3.86370330515627 0.0
vertex 1.53073372946036 3.69551813004515 24.0
vertex 1.03527618041009 3.86370330515627 24.0
endloop
endfacet
facet normal -0.965925826289068 0.25881904510252 0.0
outer loop
vertex 1.60467807963563 5.98874012299222 24.0
vertex 1.03527618041009 3.86370330515627 0.0
vertex 1.03527618041009 3.86370330515627 24.0
endloop
endfacet
facet normal -0.965925826289068 0.25881904510252 0.0
outer loop
vertex 1.03527618041009 3.86370330515627 0.0
vertex 1.60467807963563 5.98874012299222 24.0
vertex 1.60467807963563 5.98874012299222 0.0
endloop
endfacet
facet normal -0.195090322016129 -0.98078528040323 -0.0
outer loop
vertex 1.60467807963563 5.98874012299222 24.0
vertex 0.809262391764322 6.14695814051762 0.0
vertex 1.60467807963563 5.98874012299222 0.0
endloop
endfacet
facet normal -0.130526192220052 -0.99144486137381 0.0
outer loop
vertex 0.809262391764322 6.14695814051762 0.0
vertex 1.60467807963563 5.98874012299222 24.0
vertex 0.809262391764322 6.14695814051762 24.0
endloop
endfacet
facet normal 0.99144486137381 0.130526192220052 0.0
outer loop
vertex -3.96577944549524 -0.522104768880205 0.0
vertex -3.86370330515627 -1.03527618041008 24.0
vertex -3.86370330515627 -1.03527618041008 0.0
endloop
endfacet
facet normal 0.98078528040323 0.195090322016129 0.0
outer loop
vertex -3.86370330515627 -1.03527618041008 24.0
vertex -3.96577944549524 -0.522104768880205 0.0
vertex -3.96577944549524 -0.522104768880205 24.0
endloop
endfacet
facet normal 0.25881904510252 -0.965925826289068 0.0
outer loop
vertex -3.86370330515627 -1.03527618041008 24.0
vertex -5.98874012299222 -1.60467807963563 0.0
vertex -3.86370330515627 -1.03527618041008 0.0
endloop
endfacet
facet normal 0.25881904510252 -0.965925826289068 0.0
outer loop
vertex -5.98874012299222 -1.60467807963563 0.0
vertex -3.86370330515627 -1.03527618041008 24.0
vertex -5.98874012299222 -1.60467807963563 24.0
endloop
endfacet
facet normal -0.98078528040323 -0.195090322016128 -0.0
outer loop
vertex 3.86370330515627 1.03527618041008 24.0
vertex 3.96577944549524 0.522104768880205 0.0
vertex 3.96577944549524 0.522104768880205 24.0
endloop
endfacet
facet normal -0.99144486137381 -0.130526192220051 0.0
outer loop
vertex 3.96577944549524 0.522104768880205 0.0
vertex 3.86370330515627 1.03527618041008 24.0
vertex 3.86370330515627 1.03527618041008 0.0
endloop
endfacet
facet normal 0.707106781186548 0.707106781186547 0.0
outer loop
vertex 5.30330085889911 5.30330085889911 0.0
vertex 5.95015005218426 4.5657107175654 24.0
vertex 5.95015005218426 4.5657107175654 0.0
endloop
endfacet
facet normal 0.793353340291235 0.60876142900872 0.0
outer loop
vertex 5.95015005218426 4.5657107175654 24.0
vertex 5.30330085889911 5.30330085889911 0.0
vertex 5.30330085889911 5.30330085889911 24.0
endloop
endfacet
facet normal -0.555570233019602 0.831469612302545 0.0
outer loop
vertex 2.0 -3.46410161513775 24.0
vertex 2.43504571603488 -3.17341336116494 0.0
vertex 2.0 -3.46410161513775 0.0
endloop
endfacet
facet normal -0.60876142900872 0.793353340291235 0.0
outer loop
vertex 2.43504571603488 -3.17341336116494 0.0
vertex 2.0 -3.46410161513775 24.0
vertex 2.43504571603488 -3.17341336116494 24.0
endloop
endfacet
facet normal -4.69253034872531e-16 -1.0 0.0
outer loop
vertex 0.0 -7.5 24.0
vertex -0.978946441650394 -7.43583646030358 0.0
vertex 0.0 -7.5 0.0
endloop
endfacet
facet normal -0.130526192220052 -0.99144486137381 0.0
outer loop
vertex -0.978946441650394 -7.43583646030358 0.0
vertex 0.0 -7.5 24.0
vertex -0.978946441650394 -7.43583646030358 24.0
endloop
endfacet
facet normal -0.923879532511286 0.38268343236509 0.0
outer loop
vertex 3.69551813004515 -1.53073372946036 24.0
vertex 3.46410161513775 -2.0 0.0
vertex 3.46410161513775 -2.0 24.0
endloop
endfacet
facet normal -0.896872741532688 0.442288690219002 0.0
outer loop
vertex 3.46410161513775 -2.0 0.0
vertex 3.69551813004515 -1.53073372946036 24.0
vertex 3.69551813004515 -1.53073372946036 0.0
endloop
endfacet
facet normal -1.06245970159818e-16 1.0 0.0
outer loop
vertex 9.18485099360515e-16 7.5 24.0
vertex 0.97894644165039 7.43583646030358 0.0
vertex 9.18485099360515e-16 7.5 0.0
endloop
endfacet
facet normal 0.130526192220052 0.99144486137381 0.0
outer loop
vertex 0.97894644165039 7.43583646030358 0.0
vertex 9.18485099360515e-16 7.5 24.0
vertex 0.97894644165039 7.43583646030358 24.0
endloop
endfacet
facet normal 0.965925826289068 -0.258819045102521 0.0
outer loop
vertex 7.24444369716801 -1.94114283826891 0.0
vertex 6.92909649383465 -2.87012574273817 24.0
vertex 6.92909649383465 -2.87012574273817 0.0
endloop
endfacet
facet normal 0.923879532511287 -0.38268343236509 0.0
outer loop
vertex 6.92909649383465 -2.87012574273817 24.0
vertex 7.24444369716801 -1.94114283826891 0.0
vertex 7.24444369716801 -1.94114283826891 24.0
endloop
endfacet
facet normal -0.442288690219002 -0.896872741532688 -0.0
outer loop
vertex 2.0 3.46410161513775 24.0
vertex 1.53073372946036 3.69551813004515 0.0
vertex 2.0 3.46410161513775 0.0
endloop
endfacet
facet normal -0.38268343236509 -0.923879532511286 0.0
outer loop
vertex 1.53073372946036 3.69551813004515 0.0
vertex 2.0 3.46410161513775 24.0
vertex 1.53073372946036 3.69551813004515 24.0
endloop
endfacet
facet normal 0.258819045102521 0.965925826289068 0.0
outer loop
vertex 1.94114283826891 7.24444369716801 24.0
vertex 2.87012574273817 6.92909649383465 0.0
vertex 1.94114283826891 7.24444369716801 0.0
endloop
endfacet
facet normal 0.38268343236509 0.923879532511287 0.0
outer loop
vertex 2.87012574273817 6.92909649383465 0.0
vertex 1.94114283826891 7.24444369716801 24.0
vertex 2.87012574273817 6.92909649383465 24.0
endloop
endfacet
facet normal 0.866025403784439 -0.5 0.0
outer loop
vertex 3.1 5.36935750346352 0.0
vertex 2.0 3.46410161513775 24.0
vertex 2.0 3.46410161513775 0.0
endloop
endfacet
facet normal 0.866025403784439 -0.5 0.0
outer loop
vertex 2.0 3.46410161513775 24.0
vertex 3.1 5.36935750346352 0.0
vertex 3.1 5.36935750346352 24.0
endloop
endfacet
facet normal -0.896872741532689 -0.442288690219001 -0.0
outer loop
vertex 5.36935750346352 3.1 24.0
vertex 5.72805310156998 2.37263728066355 0.0
vertex 5.72805310156998 2.37263728066355 24.0
endloop
endfacet
facet normal -0.923879532511287 -0.382683432365089 0.0
outer loop
vertex 5.72805310156998 2.37263728066355 0.0
vertex 5.36935750346352 3.1 24.0
vertex 5.36935750346352 3.1 0.0
endloop
endfacet
facet normal -0.25881904510252 0.965925826289068 0.0
outer loop
vertex -1.9411428382689 7.24444369716801 24.0
vertex -0.978946441650385 7.43583646030358 0.0
vertex -1.9411428382689 7.24444369716801 0.0
endloop
endfacet
facet normal -0.130526192220051 0.99144486137381 0.0
outer loop
vertex -0.978946441650385 7.43583646030358 0.0
vertex -1.9411428382689 7.24444369716801 24.0
vertex -0.978946441650385 7.43583646030358 24.0
endloop
endfacet
facet normal -0.923879532511287 -0.382683432365089 0.0
outer loop
vertex 5.72805310156998 2.37263728066355 24.0
vertex 5.98874012299222 1.60467807963563 0.0
vertex 5.98874012299222 1.60467807963563 24.0
endloop
endfacet
facet normal -0.946930129495106 -0.321439465303161 -0.0
outer loop
vertex 5.98874012299222 1.60467807963563 0.0
vertex 5.72805310156998 2.37263728066355 24.0
vertex 5.72805310156998 2.37263728066355 0.0
endloop
endfacet
facet normal 0.555570233019602 -0.831469612302545 0.0
outer loop
vertex -2.0 3.46410161513775 24.0
vertex -2.43504571603488 3.17341336116494 0.0
vertex -2.0 3.46410161513775 0.0
endloop
endfacet
facet normal 0.60876142900872 -0.793353340291235 0.0
outer loop
vertex -2.43504571603488 3.17341336116494 0.0
vertex -2.0 3.46410161513775 24.0
vertex -2.43504571603488 3.17341336116494 24.0
endloop
endfacet
facet normal 0.896872741532688 -0.442288690219002 0.0
outer loop
vertex -3.46410161513775 2.0 0.0
vertex -3.69551813004515 1.53073372946036 24.0
vertex -3.69551813004515 1.53073372946036 0.0
endloop
endfacet
facet normal 0.923879532511287 -0.38268343236509 0.0
outer loop
vertex -3.69551813004515 1.53073372946036 24.0
vertex -3.46410161513775 2.0 0.0
vertex -3.46410161513775 2.0 24.0
endloop
endfacet
facet normal 0.965925826289068 0.258819045102521 0.0
outer loop
vertex 1.03527618041008 -3.86370330515627 0.0
vertex 1.60467807963563 -5.98874012299222 24.0
vertex 1.60467807963563 -5.98874012299222 0.0
endloop
endfacet
facet normal 0.965925826289068 0.258819045102521 0.0
outer loop
vertex 1.60467807963563 -5.98874012299222 24.0
vertex 1.03527618041008 -3.86370330515627 0.0
vertex 1.03527618041008 -3.86370330515627 24.0
endloop
endfacet
facet normal -0.60876142900872 0.793353340291235 0.0
outer loop
vertex -4.5657107175654 5.95015005218426 24.0
vertex -3.75 6.49519052838329 0.0
vertex -4.5657107175654 5.95015005218426 0.0
endloop
endfacet
facet normal -0.5 0.866025403784439 0.0
outer loop
vertex -3.75 6.49519052838329 0.0
vertex -4.5657107175654 5.95015005218426 24.0
vertex -3.75 6.49519052838329 24.0
endloop
endfacet
facet normal -0.321439465303162 0.946930129495106 0.0
outer loop
vertex 1.60467807963563 -5.98874012299222 24.0
vertex 2.37263728066356 -5.72805310156998 0.0
vertex 1.60467807963563 -5.98874012299222 0.0
endloop
endfacet
facet normal -0.38268343236509 0.923879532511287 0.0
outer loop
vertex 2.37263728066356 -5.72805310156998 0.0
vertex 1.60467807963563 -5.98874012299222 24.0
vertex 2.37263728066356 -5.72805310156998 24.0
endloop
endfacet
facet normal -0.38268343236509 0.923879532511287 0.0
outer loop
vertex 2.37263728066356 -5.72805310156998 24.0
vertex 3.1 -5.36935750346352 0.0
vertex 2.37263728066356 -5.72805310156998 0.0
endloop
endfacet
facet normal -0.442288690219001 0.896872741532689 0.0
outer loop
vertex 3.1 -5.36935750346352 0.0
vertex 2.37263728066356 -5.72805310156998 24.0
vertex 3.1 -5.36935750346352 24.0
endloop
endfacet
facet normal -0.0654031292301424 0.997858923238603 0.0
outer loop
vertex -4.89858719658941e-16 -4.0 24.0
vertex 0.522104768880205 -3.96577944549524 0.0
vertex -4.89858719658941e-16 -4.0 0.0
endloop
endfacet
facet normal -0.130526192220051 0.99144486137381 0.0
outer loop
vertex 0.522104768880205 -3.96577944549524 0.0
vertex -4.89858719658941e-16 -4.0 24.0
vertex 0.522104768880205 -3.96577944549524 24.0
endloop
endfacet
facet normal 0.321439465303161 -0.946930129495106 0.0
outer loop
vertex -1.60467807963563 5.98874012299222 24.0
vertex -2.37263728066355 5.72805310156998 0.0
vertex -1.60467807963563 5.98874012299222 0.0
endloop
endfacet
facet normal 0.382683432365089 -0.923879532511287 0.0
outer loop
vertex -2.37263728066355 5.72805310156998 0.0
vertex -1.60467807963563 5.98874012299222 24.0
vertex -2.37263728066355 5.72805310156998 24.0
endloop
endfacet
facet normal 0.793353340291235 0.608761429008721 0.0
outer loop
vertex -3.17341336116494 -2.43504571603488 0.0
vertex -2.82842712474619 -2.82842712474619 24.0
vertex -2.82842712474619 -2.82842712474619 0.0
endloop
endfacet
facet normal 0.751839807478978 0.659345815100068 0.0
outer loop
vertex -2.82842712474619 -2.82842712474619 24.0
vertex -3.17341336116494 -2.43504571603488 0.0
vertex -3.17341336116494 -2.43504571603488 24.0
endloop
endfacet
facet normal 0.707106781186547 -0.707106781186548 0.0
outer loop
vertex -2.82842712474619 -2.82842712474619 24.0
vertex -4.38406204335659 -4.38406204335659 0.0
vertex -2.82842712474619 -2.82842712474619 0.0
endloop
endfacet
facet normal 0.707106781186547 -0.707106781186548 0.0
outer loop
vertex -4.38406204335659 -4.38406204335659 0.0
vertex -2.82842712474619 -2.82842712474619 24.0
vertex -4.38406204335659 -4.38406204335659 24.0
endloop
endfacet
facet normal 0.0654031292301437 -0.997858923238603 0.0
outer loop
vertex 0.0 4.0 24.0
vertex -0.522104768880206 3.96577944549524 0.0
vertex 0.0 4.0 0.0
endloop
endfacet
facet normal 0.130526192220052 -0.99144486137381 0.0
outer loop
vertex -0.522104768880206 3.96577944549524 0.0
vertex 0.0 4.0 24.0
vertex -0.522104768880206 3.96577944549524 24.0
endloop
endfacet
facet normal 0.130526192220052 -0.99144486137381 0.0
outer loop
vertex -0.522104768880206 3.96577944549524 24.0
vertex -1.03527618041008 3.86370330515627 0.0
vertex -0.522104768880206 3.96577944549524 0.0
endloop
endfacet
facet normal 0.195090322016128 -0.980785280403231 0.0
outer loop
vertex -1.03527618041008 3.86370330515627 0.0
vertex -0.522104768880206 3.96577944549524 24.0
vertex -1.03527618041008 3.86370330515627 24.0
endloop
endfacet
facet normal -0.38268343236509 0.923879532511287 0.0
outer loop
vertex -2.87012574273817 6.92909649383465 24.0
vertex -1.9411428382689 7.24444369716801 0.0
vertex -2.87012574273817 6.92909649383465 0.0
endloop
endfacet
facet normal -0.25881904510252 0.965925826289068 0.0
outer loop
vertex -1.9411428382689 7.24444369716801 0.0
vertex -2.87012574273817 6.92909649383465 24.0
vertex -1.9411428382689 7.24444369716801 24.0
endloop
endfacet
facet normal -0.831469612302545 0.555570233019602 0.0
outer loop
vertex 5.36935750346352 -3.1 24.0
vertex 4.91879070980566 -3.77432085985407 0.0
vertex 4.91879070980566 -3.77432085985407 24.0
endloop
endfacet
facet normal -0.793353340291235 0.608761429008721 0.0
outer loop
vertex 4.91879070980566 -3.77432085985407 0.0
vertex 5.36935750346352 -3.1 24.0
vertex 5.36935750346352 -3.1 0.0
endloop
endfacet
facet normal -0.5 -0.866025403784439 -0.0
outer loop
vertex 5.36935750346352 -3.1 24.0
vertex 3.46410161513775 -2.0 0.0
vertex 5.36935750346352 -3.1 0.0
endloop
endfacet
facet normal -0.5 -0.866025403784439 -0.0
outer loop
vertex 3.46410161513775 -2.0 0.0
vertex 5.36935750346352 -3.1 24.0
vertex 3.46410161513775 -2.0 24.0
endloop
endfacet
facet normal -0.866025403784438 0.500000000000001 0.0
outer loop
vertex -6.49519052838329 3.75 24.0
vertex -6.92909649383465 2.87012574273818 0.0
vertex -6.92909649383465 2.87012574273818 24.0
endloop
endfacet
facet normal -0.923879532511287 0.38268343236509 0.0
outer loop
vertex -6.92909649383465 2.87012574273818 0.0
vertex -6.49519052838329 3.75 24.0
vertex -6.49519052838329 3.75 0.0
endloop
endfacet
facet normal -0.793353340291235 0.608761429008721 0.0
outer loop
vertex -5.95015005218426 4.56571071756541 24.0
vertex -6.49519052838329 3.75 0.0
vertex -6.49519052838329 3.75 24.0
endloop
endfacet
facet normal -0.866025403784438 0.500000000000001 0.0
outer loop
vertex -6.49519052838329 3.75 0.0
vertex -5.95015005218426 4.56571071756541 24.0
vertex -5.95015005218426 4.56571071756541 0.0
endloop
endfacet
facet normal -0.923879532511287 0.38268343236509 0.0
outer loop
vertex -6.92909649383465 2.87012574273818 24.0
vertex -7.24444369716801 1.94114283826891 0.0
vertex -7.24444369716801 1.94114283826891 24.0
endloop
endfacet
facet normal -0.965925826289068 0.258819045102521 0.0
outer loop
vertex -7.24444369716801 1.94114283826891 0.0
vertex -6.92909649383465 2.87012574273818 24.0
vertex -6.92909649383465 2.87012574273818 0.0
endloop
endfacet
facet normal 0.98078528040323 -0.19509032201613 0.0
outer loop
vertex -5.98874012299222 1.60467807963563 0.0
vertex -6.14695814051762 0.809262391764326 24.0
vertex -6.14695814051762 0.809262391764326 0.0
endloop
endfacet
facet normal 0.99144486137381 -0.130526192220052 0.0
outer loop
vertex -6.14695814051762 0.809262391764326 24.0
vertex -5.98874012299222 1.60467807963563 0.0
vertex -5.98874012299222 1.60467807963563 24.0
endloop
endfacet
facet normal 0.946930129495106 0.321439465303161 0.0
outer loop
vertex -5.98874012299222 -1.60467807963563 0.0
vertex -5.72805310156998 -2.37263728066355 24.0
vertex -5.72805310156998 -2.37263728066355 0.0
endloop
endfacet
facet normal 0.923879532511287 0.382683432365089 0.0
outer loop
vertex -5.72805310156998 -2.37263728066355 24.0
vertex -5.98874012299222 -1.60467807963563 0.0
vertex -5.98874012299222 -1.60467807963563 24.0
endloop
endfacet
facet normal 0.923879532511287 0.382683432365089 0.0
outer loop
vertex -5.72805310156998 -2.37263728066355 0.0
vertex -5.36935750346352 -3.1 24.0
vertex -5.36935750346352 -3.1 0.0
endloop
endfacet
facet normal 0.896872741532689 0.442288690219 0.0
outer loop
vertex -5.36935750346352 -3.1 24.0
vertex -5.72805310156998 -2.37263728066355 0.0
vertex -5.72805310156998 -2.37263728066355 24.0
endloop
endfacet
facet normal -0.499999999999999 0.866025403784439 0.0
outer loop
vertex -5.36935750346352 -3.1 24.0
vertex -3.46410161513776 -2.0 0.0
vertex -5.36935750346352 -3.1 0.0
endloop
endfacet
facet normal -0.499999999999999 0.866025403784439 0.0
outer loop
vertex -3.46410161513776 -2.0 0.0
vertex -5.36935750346352 -3.1 24.0
vertex -3.46410161513776 -2.0 24.0
endloop
endfacet
facet normal 0.831469612302545 0.555570233019603 0.0
outer loop
vertex -3.46410161513776 -2.0 0.0
vertex -3.17341336116494 -2.43504571603488 24.0
vertex -3.17341336116494 -2.43504571603488 0.0
endloop
endfacet
facet normal 0.793353340291235 0.608761429008721 0.0
outer loop
vertex -3.17341336116494 -2.43504571603488 24.0
vertex -3.46410161513776 -2.0 0.0
vertex -3.46410161513776 -2.0 24.0
endloop
endfacet
facet normal 1.6143071443306e-16 -1.0 0.0
outer loop
vertex 6.2 -3.7964050773568e-16 24.0
vertex 4.0 -7.34788079488412e-16 0.0
vertex 6.2 -3.7964050773568e-16 0.0
endloop
endfacet
facet normal 1.6143071443306e-16 -1.0 0.0
outer loop
vertex 4.0 -7.34788079488412e-16 0.0
vertex 6.2 -3.7964050773568e-16 24.0
vertex 4.0 -7.34788079488412e-16 24.0
endloop
endfacet
facet normal -0.99144486137381 -0.130526192220051 0.0
outer loop
vertex 3.96577944549524 0.522104768880205 24.0
vertex 4.0 -7.34788079488412e-16 0.0
vertex 4.0 -7.34788079488412e-16 24.0
endloop
endfacet
facet normal -0.997858923238603 -0.0654031292301424 -0.0
outer loop
vertex 4.0 -7.34788079488412e-16 0.0
vertex 3.96577944549524 0.522104768880205 24.0
vertex 3.96577944549524 0.522104768880205 0.0
endloop
endfacet
facet normal -0.258819045102521 0.965925826289068 0.0
outer loop
vertex 3.86370330515627 1.03527618041008 24.0
vertex 5.98874012299222 1.60467807963563 0.0
vertex 3.86370330515627 1.03527618041008 0.0
endloop
endfacet
facet normal -0.258819045102521 0.965925826289068 0.0
outer loop
vertex 5.98874012299222 1.60467807963563 0.0
vertex 3.86370330515627 1.03527618041008 24.0
vertex 5.98874012299222 1.60467807963563 24.0
endloop
endfacet
facet normal -0.997858923238603 0.065403129230143 0.0
outer loop
vertex 6.2 -3.7964050773568e-16 24.0
vertex 6.14695814051762 -0.809262391764321 0.0
vertex 6.14695814051762 -0.809262391764321 24.0
endloop
endfacet
facet normal -0.99144486137381 0.130526192220052 0.0
outer loop
vertex 6.14695814051762 -0.809262391764321 0.0
vertex 6.2 -3.7964050773568e-16 24.0
vertex 6.2 -3.7964050773568e-16 0.0
endloop
endfacet
facet normal 0.608761429008721 0.793353340291235 0.0
outer loop
vertex 4.56571071756541 5.95015005218426 24.0
vertex 5.30330085889911 5.30330085889911 0.0
vertex 4.56571071756541 5.95015005218426 0.0
endloop
endfacet
facet normal 0.707106781186548 0.707106781186547 0.0
outer loop
vertex 5.30330085889911 5.30330085889911 0.0
vertex 4.56571071756541 5.95015005218426 24.0
vertex 5.30330085889911 5.30330085889911 24.0
endloop
endfacet
facet normal 1.0 4.86960696565835e-17 0.0
outer loop
vertex 7.5 -4.59242549680257e-16 0.0
vertex 7.43583646030358 -0.978946441650388 24.0
vertex 7.43583646030358 -0.978946441650388 0.0
endloop
endfacet
facet normal 0.99144486137381 -0.130526192220052 0.0
outer loop
vertex 7.43583646030358 -0.978946441650388 24.0
vertex 7.5 -4.59242549680257e-16 0.0
vertex 7.5 -4.59242549680257e-16 24.0
endloop
endfacet
facet normal -0.130526192220051 0.99144486137381 0.0
outer loop
vertex -0.978946441650385 7.43583646030358 24.0
vertex 9.18485099360515e-16 7.5 0.0
vertex -0.978946441650385 7.43583646030358 0.0
endloop
endfacet
facet normal -1.06245970159818e-16 1.0 0.0
outer loop
vertex 9.18485099360515e-16 7.5 0.0
vertex -0.978946441650385 7.43583646030358 24.0
vertex 9.18485099360515e-16 7.5 24.0
endloop
endfacet
facet normal -0.130526192220052 -0.99144486137381 0.0
outer loop
vertex 0.809262391764322 6.14695814051762 24.0
vertex 7.59281015471359e-16 6.2 0.0
vertex 0.809262391764322 6.14695814051762 0.0
endloop
endfacet
facet normal -0.065403129230143 -0.997858923238604 -0.0
outer loop
vertex 7.59281015471359e-16 6.2 0.0
vertex 0.809262391764322 6.14695814051762 24.0
vertex 7.59281015471359e-16 6.2 24.0
endloop
endfacet
facet normal 1.0 -3.45127734305163e-16 0.0
outer loop
vertex 7.59281015471359e-16 6.2 0.0
vertex 0.0 4.0 24.0
vertex 0.0 4.0 0.0
endloop
endfacet
facet normal 1.0 -3.45127734305163e-16 0.0
outer loop
vertex 0.0 4.0 24.0
vertex 7.59281015471359e-16 6.2 0.0
vertex 7.59281015471359e-16 6.2 24.0
endloop
endfacet
facet normal -0.965925826289068 0.258819045102521 0.0
outer loop
vertex -7.24444369716801 1.94114283826891 24.0
vertex -7.43583646030358 0.978946441650394 0.0
vertex -7.43583646030358 0.978946441650394 24.0
endloop
endfacet
facet normal -0.99144486137381 0.130526192220052 0.0
outer loop
vertex -7.43583646030358 0.978946441650394 0.0
vertex -7.24444369716801 1.94114283826891 24.0
vertex -7.24444369716801 1.94114283826891 0.0
endloop
endfacet
facet normal 0.38268343236509 0.923879532511287 0.0
outer loop
vertex 2.87012574273817 6.92909649383465 24.0
vertex 3.75 6.49519052838329 0.0
vertex 2.87012574273817 6.92909649383465 0.0
endloop
endfacet
facet normal 0.500000000000001 0.866025403784438 0.0
outer loop
vertex 3.75 6.49519052838329 0.0
vertex 2.87012574273817 6.92909649383465 24.0
vertex 3.75 6.49519052838329 24.0
endloop
endfacet
facet normal 0.923879532511287 -0.38268343236509 0.0
outer loop
vertex -3.69551813004515 1.53073372946036 0.0
vertex -3.86370330515627 1.03527618041008 24.0
vertex -3.86370330515627 1.03527618041008 0.0
endloop
endfacet
facet normal 0.946930129495106 -0.321439465303162 0.0
outer loop
vertex -3.86370330515627 1.03527618041008 24.0
vertex -3.69551813004515 1.53073372946036 0.0
vertex -3.69551813004515 1.53073372946036 24.0
endloop
endfacet
facet normal -0.258819045102523 -0.965925826289068 -0.0
outer loop
vertex -3.86370330515627 1.03527618041008 24.0
vertex -5.98874012299222 1.60467807963563 0.0
vertex -3.86370330515627 1.03527618041008 0.0
endloop
endfacet
facet normal -0.258819045102523 -0.965925826289068 -0.0
outer loop
vertex -5.98874012299222 1.60467807963563 0.0
vertex -3.86370330515627 1.03527618041008 24.0
vertex -5.98874012299222 1.60467807963563 24.0
endloop
endfacet
facet normal -0.946930129495106 0.321439465303162 0.0
outer loop
vertex 3.86370330515627 -1.03527618041009 24.0
vertex 3.69551813004515 -1.53073372946036 0.0
vertex 3.69551813004515 -1.53073372946036 24.0
endloop
endfacet
facet normal -0.923879532511286 0.38268343236509 0.0
outer loop
vertex 3.69551813004515 -1.53073372946036 0.0
vertex 3.86370330515627 -1.03527618041009 24.0
vertex 3.86370330515627 -1.03527618041009 0.0
endloop
endfacet
facet normal -0.608761429008721 -0.793353340291235 0.0
outer loop
vertex 3.77432085985407 4.91879070980566 24.0
vertex 3.1 5.36935750346352 0.0
vertex 3.77432085985407 4.91879070980566 0.0
endloop
endfacet
facet normal -0.555570233019603 -0.831469612302545 -0.0
outer loop
vertex 3.1 5.36935750346352 0.0
vertex 3.77432085985407 4.91879070980566 24.0
vertex 3.1 5.36935750346352 24.0
endloop
endfacet
facet normal 0.659345815100069 0.751839807478977 0.0
outer loop
vertex -4.38406204335659 -4.38406204335659 24.0
vertex -3.77432085985407 -4.91879070980566 0.0
vertex -4.38406204335659 -4.38406204335659 0.0
endloop
endfacet
facet normal 0.608761429008721 0.793353340291235 0.0
outer loop
vertex -3.77432085985407 -4.91879070980566 0.0
vertex -4.38406204335659 -4.38406204335659 24.0
vertex -3.77432085985407 -4.91879070980566 24.0
endloop
endfacet
facet normal 0.608761429008721 0.793353340291235 0.0
outer loop
vertex -3.77432085985407 -4.91879070980566 24.0
vertex -3.1 -5.36935750346352 0.0
vertex -3.77432085985407 -4.91879070980566 0.0
endloop
endfacet
facet normal 0.555570233019602 0.831469612302545 0.0
outer loop
vertex -3.1 -5.36935750346352 0.0
vertex -3.77432085985407 -4.91879070980566 24.0
vertex -3.1 -5.36935750346352 24.0
endloop
endfacet
facet normal -0.866025403784438 0.500000000000001 0.0
outer loop
vertex -2.0 -3.46410161513775 24.0
vertex -3.1 -5.36935750346352 0.0
vertex -3.1 -5.36935750346352 24.0
endloop
endfacet
facet normal -0.866025403784438 0.500000000000001 0.0
outer loop
vertex -3.1 -5.36935750346352 0.0
vertex -2.0 -3.46410161513775 24.0
vertex -2.0 -3.46410161513775 0.0
endloop
endfacet
facet normal 0.442288690219001 0.896872741532688 0.0
outer loop
vertex -2.0 -3.46410161513775 24.0
vertex -1.53073372946036 -3.69551813004515 0.0
vertex -2.0 -3.46410161513775 0.0
endloop
endfacet
facet normal 0.38268343236509 0.923879532511287 0.0
outer loop
vertex -1.53073372946036 -3.69551813004515 0.0
vertex -2.0 -3.46410161513775 24.0
vertex -1.53073372946036 -3.69551813004515 24.0
endloop
endfacet
facet normal -0.866025403784439 -0.499999999999999 0.0
outer loop
vertex -6.49519052838329 -3.74999999999999 24.0
vertex -5.95015005218427 -4.5657107175654 0.0
vertex -5.95015005218427 -4.5657107175654 24.0
endloop
endfacet
facet normal -0.793353340291236 -0.60876142900872 0.0
outer loop
vertex -5.95015005218427 -4.5657107175654 0.0
vertex -6.49519052838329 -3.74999999999999 24.0
vertex -6.49519052838329 -3.74999999999999 0.0
endloop
endfacet
facet normal -0.923879532511287 -0.382683432365089 0.0
outer loop
vertex -6.92909649383465 -2.87012574273817 24.0
vertex -6.49519052838329 -3.74999999999999 0.0
vertex -6.49519052838329 -3.74999999999999 24.0
endloop
endfacet
facet normal -0.866025403784439 -0.499999999999999 0.0
outer loop
vertex -6.49519052838329 -3.74999999999999 0.0
vertex -6.92909649383465 -2.87012574273817 24.0
vertex -6.92909649383465 -2.87012574273817 0.0
endloop
endfacet
facet normal -1.0 4.9138761198916e-16 0.0
outer loop
vertex -7.5 1.37772764904077e-15 24.0
vertex -7.43583646030358 -0.978946441650384 0.0
vertex -7.43583646030358 -0.978946441650384 24.0
endloop
endfacet
facet normal -0.99144486137381 -0.130526192220051 0.0
outer loop
vertex -7.43583646030358 -0.978946441650384 0.0
vertex -7.5 1.37772764904077e-15 24.0
vertex -7.5 1.37772764904077e-15 0.0
endloop
endfacet
facet normal -0.99144486137381 0.130526192220052 0.0
outer loop
vertex -7.43583646030358 0.978946441650394 24.0
vertex -7.5 1.37772764904077e-15 0.0
vertex -7.5 1.37772764904077e-15 24.0
endloop
endfacet
facet normal -1.0 4.9138761198916e-16 0.0
outer loop
vertex -7.5 1.37772764904077e-15 0.0
vertex -7.43583646030358 0.978946441650394 24.0
vertex -7.43583646030358 0.978946441650394 0.0
endloop
endfacet
facet normal -0.965925826289069 -0.25881904510252 0.0
outer loop
vertex -7.24444369716801 -1.9411428382689 24.0
vertex -6.92909649383465 -2.87012574273817 0.0
vertex -6.92909649383465 -2.87012574273817 24.0
endloop
endfacet
facet normal -0.923879532511287 -0.382683432365089 0.0
outer loop
vertex -6.92909649383465 -2.87012574273817 0.0
vertex -7.24444369716801 -1.9411428382689 24.0
vertex -7.24444369716801 -1.9411428382689 0.0
endloop
endfacet
facet normal -0.99144486137381 -0.130526192220051 0.0
outer loop
vertex -7.43583646030358 -0.978946441650384 24.0
vertex -7.24444369716801 -1.9411428382689 0.0
vertex -7.24444369716801 -1.9411428382689 24.0
endloop
endfacet
facet normal -0.965925826289069 -0.25881904510252 0.0
outer loop
vertex -7.24444369716801 -1.9411428382689 0.0
vertex -7.43583646030358 -0.978946441650384 24.0
vertex -7.43583646030358 -0.978946441650384 0.0
endloop
endfacet
facet normal 0.38268343236509 0.923879532511287 0.0
outer loop
vertex -1.53073372946036 -3.69551813004515 24.0
vertex -1.03527618041008 -3.86370330515627 0.0
vertex -1.53073372946036 -3.69551813004515 0.0
endloop
endfacet
facet normal 0.321439465303162 0.946930129495105 0.0
outer loop
vertex -1.03527618041008 -3.86370330515627 0.0
vertex -1.53073372946036 -3.69551813004515 24.0
vertex -1.03527618041008 -3.86370330515627 24.0
endloop
endfacet
facet normal 0.965925826289068 -0.258819045102522 0.0
outer loop
vertex -1.03527618041008 -3.86370330515627 0.0
vertex -1.60467807963563 -5.98874012299222 24.0
vertex -1.60467807963563 -5.98874012299222 0.0
endloop
endfacet
facet normal 0.965925826289068 -0.258819045102522 0.0
outer loop
vertex -1.60467807963563 -5.98874012299222 24.0
vertex -1.03527618041008 -3.86370330515627 0.0
vertex -1.03527618041008 -3.86370330515627 24.0
endloop
endfacet
facet normal 0.19509032201613 0.98078528040323 0.0
outer loop
vertex -1.60467807963563 -5.98874012299222 24.0
vertex -0.809262391764326 -6.14695814051762 0.0
vertex -1.60467807963563 -5.98874012299222 0.0
endloop
endfacet
facet normal 0.130526192220052 0.99144486137381 0.0
outer loop
vertex -0.809262391764326 -6.14695814051762 0.0
vertex -1.60467807963563 -5.98874012299222 24.0
vertex -0.809262391764326 -6.14695814051762 24.0
endloop
endfacet
facet normal 0.130526192220052 0.99144486137381 0.0
outer loop
vertex -0.809262391764326 -6.14695814051762 24.0
vertex 0.0 -6.2 0.0
vertex -0.809262391764326 -6.14695814051762 0.0
endloop
endfacet
facet normal 0.0654031292301435 0.997858923238603 0.0
outer loop
vertex 0.0 -6.2 0.0
vertex -0.809262391764326 -6.14695814051762 24.0
vertex 0.0 -6.2 24.0
endloop
endfacet
facet normal -0.130526192220051 0.99144486137381 0.0
outer loop
vertex 0.522104768880205 -3.96577944549524 24.0
vertex 1.03527618041008 -3.86370330515627 0.0
vertex 0.522104768880205 -3.96577944549524 0.0
endloop
endfacet
facet normal -0.195090322016128 0.98078528040323 0.0
outer loop
vertex 1.03527618041008 -3.86370330515627 0.0
vertex 0.522104768880205 -3.96577944549524 24.0
vertex 1.03527618041008 -3.86370330515627 24.0
endloop
endfacet
facet normal -0.38268343236509 -0.923879532511287 0.0
outer loop
vertex -2.87012574273818 -6.92909649383465 24.0
vertex -3.75 -6.49519052838329 0.0
vertex -2.87012574273818 -6.92909649383465 0.0
endloop
endfacet
facet normal -0.500000000000001 -0.866025403784438 0.0
outer loop
vertex -3.75 -6.49519052838329 0.0
vertex -2.87012574273818 -6.92909649383465 24.0
vertex -3.75 -6.49519052838329 24.0
endloop
endfacet
facet normal -0.500000000000001 -0.866025403784438 0.0
outer loop
vertex -3.75 -6.49519052838329 24.0
vertex -4.56571071756541 -5.95015005218426 0.0
vertex -3.75 -6.49519052838329 0.0
endloop
endfacet
facet normal -0.608761429008721 -0.793353340291235 0.0
outer loop
vertex -4.56571071756541 -5.95015005218426 0.0
vertex -3.75 -6.49519052838329 24.0
vertex -4.56571071756541 -5.95015005218426 24.0
endloop
endfacet
facet normal -0.608761429008721 -0.793353340291235 0.0
outer loop
vertex -4.56571071756541 -5.95015005218426 24.0
vertex -5.30330085889911 -5.30330085889911 0.0
vertex -4.56571071756541 -5.95015005218426 0.0
endloop
endfacet
facet normal -0.707106781186548 -0.707106781186547 0.0
outer loop
vertex -5.30330085889911 -5.30330085889911 0.0
vertex -4.56571071756541 -5.95015005218426 24.0
vertex -5.30330085889911 -5.30330085889911 24.0
endloop
endfacet
facet normal 0.500000000000001 0.866025403784438 0.0
outer loop
vertex -5.36935750346352 3.1 24.0
vertex -3.46410161513775 2.0 0.0
vertex -5.36935750346352 3.1 0.0
endloop
endfacet
facet normal 0.500000000000001 0.866025403784438 0.0
outer loop
vertex -3.46410161513775 2.0 0.0
vertex -5.36935750346352 3.1 24.0
vertex -3.46410161513775 2.0 24.0
endloop
endfacet
facet normal 0.707106781186547 0.707106781186548 0.0
outer loop
vertex 2.82842712474619 -2.82842712474619 24.0
vertex 4.38406204335659 -4.38406204335659 0.0
vertex 2.82842712474619 -2.82842712474619 0.0
endloop
endfacet
facet normal 0.707106781186547 0.707106781186548 0.0
outer loop
vertex 4.38406204335659 -4.38406204335659 0.0
vertex 2.82842712474619 -2.82842712474619 24.0
vertex 4.38406204335659 -4.38406204335659 24.0
endloop
endfacet
facet normal -0.793353340291235 0.608761429008721 0.0
outer loop
vertex 4.91879070980566 -3.77432085985407 24.0
vertex 4.38406204335659 -4.38406204335659 0.0
vertex 4.38406204335659 -4.38406204335659 24.0
endloop
endfacet
facet normal -0.751839807478977 0.65934581510007 0.0
outer loop
vertex 4.38406204335659 -4.38406204335659 0.0
vertex 4.91879070980566 -3.77432085985407 24.0
vertex 4.91879070980566 -3.77432085985407 0.0
endloop
endfacet
facet normal 0.99144486137381 0.130526192220052 0.0
outer loop
vertex 7.43583646030358 0.978946441650385 0.0
vertex 7.5 -4.59242549680257e-16 24.0
vertex 7.5 -4.59242549680257e-16 0.0
endloop
endfacet
facet normal 1.0 4.86960696565835e-17 0.0
outer loop
vertex 7.5 -4.59242549680257e-16 24.0
vertex 7.43583646030358 0.978946441650385 0.0
vertex 7.43583646030358 0.978946441650385 24.0
endloop
endfacet
facet normal -0.60876142900872 0.793353340291235 0.0
outer loop
vertex 2.43504571603488 -3.17341336116494 24.0
vertex 2.82842712474619 -2.82842712474619 0.0
vertex 2.43504571603488 -3.17341336116494 0.0
endloop
endfacet
facet normal -0.659345815100068 0.751839807478978 0.0
outer loop
vertex 2.82842712474619 -2.82842712474619 0.0
vertex 2.43504571603488 -3.17341336116494 24.0
vertex 2.82842712474619 -2.82842712474619 24.0
endloop
endfacet
facet normal 0.99144486137381 -0.130526192220052 0.0
outer loop
vertex -6.14695814051762 0.809262391764326 0.0
vertex -6.2 1.13892152320704e-15 24.0
vertex -6.2 1.13892152320704e-15 0.0
endloop
endfacet
facet normal 0.997858923238603 -0.0654031292301436 0.0
outer loop
vertex -6.2 1.13892152320704e-15 24.0
vertex -6.14695814051762 0.809262391764326 0.0
vertex -6.14695814051762 0.809262391764326 24.0
endloop
endfacet
facet normal 4.06360074262531e-16 1.0 0.0
outer loop
vertex -6.2 1.13892152320704e-15 24.0
vertex -4.0 2.44929359829471e-16 0.0
vertex -6.2 1.13892152320704e-15 0.0
endloop
endfacet
facet normal 4.06360074262531e-16 1.0 0.0
outer loop
vertex -4.0 2.44929359829471e-16 0.0
vertex -6.2 1.13892152320704e-15 24.0
vertex -4.0 2.44929359829471e-16 24.0
endloop
endfacet
endsolid model
