solid OpenSCAD_Model
  facet normal -1 0 0
    outer loop
      vertex 0 0 0
      vertex 0 0 7
      vertex 0 10 0
    endloop
  endfacet
  facet normal -1 0 0
    outer loop
      vertex 0 10 0
      vertex 0 0 7
      vertex 0 10 7
    endloop
  endfacet
  facet normal 0 -1 0
    outer loop
      vertex 0 0 7
      vertex 0 0 0
      vertex 32.0818 0 0
    endloop
  endfacet
  facet normal 0 -1 0
    outer loop
      vertex 30 0 5
      vertex 0 0 7
      vertex 32.0818 0 0
    endloop
  endfacet
  facet normal 0 -1 0
    outer loop
      vertex 32.0818 0 5.49313
      vertex 31.9134 0 5.3806
      vertex 32.0818 0 0
    endloop
  endfacet
  facet normal 0 -1 0
    outer loop
      vertex 31.9134 0 5.3806
      vertex 30 0 5
      vertex 32.0818 0 0
    endloop
  endfacet
  facet normal 0 -1 0
    outer loop
      vertex 28.0866 0 5.3806
      vertex 0 0 7
      vertex 30 0 5
    endloop
  endfacet
  facet normal 0 -1 0
    outer loop
      vertex 26.1066 0 7
      vertex 0 0 7
      vertex 26.4645 0 6.46447
    endloop
  endfacet
  facet normal 0 -1 0
    outer loop
      vertex 28.0866 0 5.3806
      vertex 26.4645 0 6.46447
      vertex 0 0 7
    endloop
  endfacet
  facet normal 0 0 -1
    outer loop
      vertex 0 0 0
      vertex 0 10 0
      vertex 32.0818 0 0
    endloop
  endfacet
  facet normal 0 0 -1
    outer loop
      vertex 39.4729 5.8164 0
      vertex 0 10 0
      vertex 80 10 0
    endloop
  endfacet
  facet normal 0 0 -1
    outer loop
      vertex 44 0 0
      vertex 80 10 0
      vertex 80 0 0
    endloop
  endfacet
  facet normal 0 0 -1
    outer loop
      vertex 43.6749 1.9482 0
      vertex 80 10 0
      vertex 44 0 0
    endloop
  endfacet
  facet normal 0 0 -1
    outer loop
      vertex 35.5898 5.49464 0
      vertex 0 10 0
      vertex 37.5045 5.97951 0
    endloop
  endfacet
  facet normal 0 0 -1
    outer loop
      vertex 33.9363 4.41434 0
      vertex 0 10 0
      vertex 35.5898 5.49464 0
    endloop
  endfacet
  facet normal 0 0 -1
    outer loop
      vertex 42.7348 3.68528 0
      vertex 41.2817 5.023 0
      vertex 80 10 0
    endloop
  endfacet
  facet normal 0 0 -1
    outer loop
      vertex 37.5045 5.97951 0
      vertex 0 10 0
      vertex 39.4729 5.8164 0
    endloop
  endfacet
  facet normal 0 0 -1
    outer loop
      vertex 41.2817 5.023 0
      vertex 39.4729 5.8164 0
      vertex 80 10 0
    endloop
  endfacet
  facet normal 0 0 -1
    outer loop
      vertex 32.7232 2.85568 0
      vertex 0 10 0
      vertex 33.9363 4.41434 0
    endloop
  endfacet
  facet normal 0 0 -1
    outer loop
      vertex 32.0818 0.987568 0
      vertex 0 10 0
      vertex 32.7232 2.85568 0
    endloop
  endfacet
  facet normal 0 0 -1
    outer loop
      vertex 32.0818 0 0
      vertex 0 10 0
      vertex 32.0818 0.987568 0
    endloop
  endfacet
  facet normal 0 0 -1
    outer loop
      vertex 42.7348 3.68528 0
      vertex 80 10 0
      vertex 43.6749 1.9482 0
    endloop
  endfacet
  facet normal 0 1 0
    outer loop
      vertex 0 10 0
      vertex 0 10 7
      vertex 80 10 0
    endloop
  endfacet
  facet normal 0 1 0
    outer loop
      vertex 80 10 0
      vertex 0 10 7
      vertex 30 10 7
    endloop
  endfacet
  facet normal 0 1 0
    outer loop
      vertex 80 10 0
      vertex 30 10 7
      vertex 30 10 10
    endloop
  endfacet
  facet normal 0 1 0
    outer loop
      vertex 46 10 7
      vertex 30 10 10
      vertex 35 10 10
    endloop
  endfacet
  facet normal 0 1 0
    outer loop
      vertex 41 10 10
      vertex 35 10 10
      vertex 34.6194 10 11.9134
    endloop
  endfacet
  facet normal 0 1 0
    outer loop
      vertex 46 10 7
      vertex 41 10 10
      vertex 46 10 10
    endloop
  endfacet
  facet normal 0 1 0
    outer loop
      vertex 31.9134 10 14.6194
      vertex 30 10 15
      vertex 30 10 25
    endloop
  endfacet
  facet normal 0 1 0
    outer loop
      vertex 41 10 10
      vertex 34.6194 10 11.9134
      vertex 33.5355 10 13.5355
    endloop
  endfacet
  facet normal 0 1 0
    outer loop
      vertex 41 10 10
      vertex 33.5355 10 13.5355
      vertex 31.9134 10 14.6194
    endloop
  endfacet
  facet normal 0 1 0
    outer loop
      vertex 31.9134 10 14.6194
      vertex 30 10 25
      vertex 46 10 15
    endloop
  endfacet
  facet normal 0 1 0
    outer loop
      vertex 31.9134 10 14.6194
      vertex 46 10 15
      vertex 44.0866 10 14.6194
    endloop
  endfacet
  facet normal 0 1 0
    outer loop
      vertex 31.9134 10 14.6194
      vertex 44.0866 10 14.6194
      vertex 42.4645 10 13.5355
    endloop
  endfacet
  facet normal 0 1 0
    outer loop
      vertex 31.9134 10 14.6194
      vertex 42.4645 10 13.5355
      vertex 41.3806 10 11.9134
    endloop
  endfacet
  facet normal 0 1 0
    outer loop
      vertex 46 10 7
      vertex 35 10 10
      vertex 41 10 10
    endloop
  endfacet
  facet normal 0 1 0
    outer loop
      vertex 80 10 0
      vertex 30 10 10
      vertex 46 10 7
    endloop
  endfacet
  facet normal 0 1 0
    outer loop
      vertex 73 10 7
      vertex 80 10 0
      vertex 46 10 7
    endloop
  endfacet
  facet normal 0 1 0
    outer loop
      vertex 80 10 0
      vertex 73 10 7
      vertex 78.4 10 7
    endloop
  endfacet
  facet normal 0 1 0
    outer loop
      vertex 80 10 0
      vertex 78.4 10 7
      vertex 79.2 10 5.61436
    endloop
  endfacet
  facet normal 0 1 0
    outer loop
      vertex 80 10 0
      vertex 79.2 10 5.61436
      vertex 80 10 5.61436
    endloop
  endfacet
  facet normal 0 1 0
    outer loop
      vertex 46 10 15
      vertex 30 10 25
      vertex 46 10 25
    endloop
  endfacet
  facet normal 0 1 0
    outer loop
      vertex 41 10 10
      vertex 31.9134 10 14.6194
      vertex 41.3806 10 11.9134
    endloop
  endfacet
  facet normal 0 0 1
    outer loop
      vertex 0 10 7
      vertex 0 0 7
      vertex 26.1066 0 7
    endloop
  endfacet
  facet normal 0 0 1
    outer loop
      vertex 30 10 7
      vertex 0 10 7
      vertex 26.1066 10 7
    endloop
  endfacet
  facet normal 0 0 1
    outer loop
      vertex 26.1066 10 7
      vertex 0 10 7
      vertex 26.1066 0 7
    endloop
  endfacet
  facet normal -0.83147 -1.23361e-16 -0.55557
    outer loop
      vertex 26.4645 0 6.46447
      vertex 26.4645 -7.85046e-16 6.46447
      vertex 26.1066 0 7
    endloop
  endfacet
  facet normal -0.83147 -1.23361e-16 -0.55557
    outer loop
      vertex 25.3806 -4.24864e-16 8.08658
      vertex 25.3806 10 8.08658
      vertex 26.1066 0 7
    endloop
  endfacet
  facet normal -0.83147 -1.23361e-16 -0.55557
    outer loop
      vertex 25.3806 -4.24864e-16 8.08658
      vertex 26.1066 0 7
      vertex 26.4645 -7.85046e-16 6.46447
    endloop
  endfacet
  facet normal -0.83147 -1.23361e-16 -0.55557
    outer loop
      vertex 26.1066 0 7
      vertex 25.3806 10 8.08658
      vertex 26.1066 10 7
    endloop
  endfacet
  facet normal -0.55557 -1.84623e-16 -0.83147
    outer loop
      vertex 26.4645 -7.85046e-16 6.46447
      vertex 26.4645 0 6.46447
      vertex 28.0866 -1.02571e-15 5.3806
    endloop
  endfacet
  facet normal -0.55557 -1.84623e-16 -0.83147
    outer loop
      vertex 28.0866 -1.02571e-15 5.3806
      vertex 26.4645 0 6.46447
      vertex 28.0866 0 5.3806
    endloop
  endfacet
  facet normal -0.19509 -2.17778e-16 -0.980785
    outer loop
      vertex 28.0866 -1.02571e-15 5.3806
      vertex 28.0866 0 5.3806
      vertex 30 -1.11022e-15 5
    endloop
  endfacet
  facet normal -0.19509 -2.17778e-16 -0.980785
    outer loop
      vertex 30 -1.11022e-15 5
      vertex 28.0866 0 5.3806
      vertex 30 0 5
    endloop
  endfacet
  facet normal 0.19509 -2.17778e-16 -0.980785
    outer loop
      vertex 30 -1.11022e-15 5
      vertex 30 0 5
      vertex 31.9134 -1.02571e-15 5.3806
    endloop
  endfacet
  facet normal 0.19509 -2.17778e-16 -0.980785
    outer loop
      vertex 31.9134 -1.02571e-15 5.3806
      vertex 30 0 5
      vertex 31.9134 0 5.3806
    endloop
  endfacet
  facet normal 0.55557 -1.84623e-16 -0.83147
    outer loop
      vertex 31.9134 -1.02571e-15 5.3806
      vertex 31.9134 0 5.3806
      vertex 32.0818 -1.00073e-15 5.49313
    endloop
  endfacet
  facet normal 0.55557 -1.84623e-16 -0.83147
    outer loop
      vertex 32.0818 -1.00073e-15 5.49313
      vertex 31.9134 0 5.3806
      vertex 32.0818 0 5.49313
    endloop
  endfacet
  facet normal 1 0 0
    outer loop
      vertex 32.0818 0 5.49313
      vertex 32.0818 0 0
      vertex 32.0818 0.987568 0
    endloop
  endfacet
  facet normal 1 0 0
    outer loop
      vertex 32.0818 -1.9984e-16 9.1
      vertex 32.0818 0 5.49313
      vertex 32.0818 0.987568 9.1
    endloop
  endfacet
  facet normal 1 0 0
    outer loop
      vertex 32.0818 0.987568 9.1
      vertex 32.0818 0 5.49313
      vertex 32.0818 0.987568 0
    endloop
  endfacet
  facet normal 1 0 0
    outer loop
      vertex 32.0818 -1.00073e-15 5.49313
      vertex 32.0818 0 5.49313
      vertex 32.0818 -1.9984e-16 9.1
    endloop
  endfacet
  facet normal 0.945817 -0.324699 0
    outer loop
      vertex 32.7232 2.85568 0
      vertex 32.7232 2.85568 9.1
      vertex 32.0818 0.987568 9.1
    endloop
  endfacet
  facet normal 0.945817 -0.324699 0
    outer loop
      vertex 32.0818 0.987568 0
      vertex 32.7232 2.85568 0
      vertex 32.0818 0.987568 9.1
    endloop
  endfacet
  facet normal 0.78914 -0.614213 0
    outer loop
      vertex 33.9363 4.41434 0
      vertex 33.9363 4.41434 9.1
      vertex 32.7232 2.85568 9.1
    endloop
  endfacet
  facet normal 0.78914 -0.614213 0
    outer loop
      vertex 32.7232 2.85568 0
      vertex 33.9363 4.41434 0
      vertex 32.7232 2.85568 9.1
    endloop
  endfacet
  facet normal 0.546949 -0.837166 0
    outer loop
      vertex 35.5898 5.49464 0
      vertex 35.5898 5.49464 9.1
      vertex 33.9363 4.41434 9.1
    endloop
  endfacet
  facet normal 0.546949 -0.837166 0
    outer loop
      vertex 33.9363 4.41434 0
      vertex 35.5898 5.49464 0
      vertex 33.9363 4.41434 9.1
    endloop
  endfacet
  facet normal 0.245485 -0.9694 0
    outer loop
      vertex 37.5045 5.97951 0
      vertex 37.5045 5.97951 9.1
      vertex 35.5898 5.49464 9.1
    endloop
  endfacet
  facet normal 0.245485 -0.9694 0
    outer loop
      vertex 35.5898 5.49464 0
      vertex 37.5045 5.97951 0
      vertex 35.5898 5.49464 9.1
    endloop
  endfacet
  facet normal -0.0825792 -0.996585 0
    outer loop
      vertex 39.4729 5.8164 0
      vertex 39.4729 5.8164 9.1
      vertex 37.5045 5.97951 9.1
    endloop
  endfacet
  facet normal -0.0825792 -0.996585 0
    outer loop
      vertex 37.5045 5.97951 0
      vertex 39.4729 5.8164 0
      vertex 37.5045 5.97951 9.1
    endloop
  endfacet
  facet normal -0.401696 -0.915773 0
    outer loop
      vertex 41.2817 5.023 0
      vertex 41.2817 5.023 9.1
      vertex 39.4729 5.8164 9.1
    endloop
  endfacet
  facet normal -0.401696 -0.915773 0
    outer loop
      vertex 39.4729 5.8164 0
      vertex 41.2817 5.023 0
      vertex 39.4729 5.8164 9.1
    endloop
  endfacet
  facet normal -0.677282 -0.735724 0
    outer loop
      vertex 42.7348 3.68528 0
      vertex 42.7348 3.68528 9.1
      vertex 41.2817 5.023 9.1
    endloop
  endfacet
  facet normal -0.677282 -0.735724 0
    outer loop
      vertex 41.2817 5.023 0
      vertex 42.7348 3.68528 0
      vertex 41.2817 5.023 9.1
    endloop
  endfacet
  facet normal -0.879474 -0.475947 0
    outer loop
      vertex 43.6749 1.9482 9.1
      vertex 42.7348 3.68528 9.1
      vertex 43.6749 1.9482 0
    endloop
  endfacet
  facet normal -0.879474 -0.475947 0
    outer loop
      vertex 43.6749 1.9482 0
      vertex 42.7348 3.68528 9.1
      vertex 42.7348 3.68528 0
    endloop
  endfacet
  facet normal -0.986361 -0.164595 0
    outer loop
      vertex 44 0 9.1
      vertex 43.6749 1.9482 9.1
      vertex 44 0 5.43845
    endloop
  endfacet
  facet normal -0.986361 -0.164595 0
    outer loop
      vertex 44 0 5.43845
      vertex 43.6749 1.9482 9.1
      vertex 44 0 0
    endloop
  endfacet
  facet normal -0.986361 -0.164595 0
    outer loop
      vertex 44 0 0
      vertex 43.6749 1.9482 9.1
      vertex 43.6749 1.9482 0
    endloop
  endfacet
  facet normal 0 -1 0
    outer loop
      vertex 79.0038 0 0.07125
      vertex 44 0 0
      vertex 80 0 0
    endloop
  endfacet
  facet normal 0 -1 0
    outer loop
      vertex 46 0 5
      vertex 44 0 0
      vertex 79.0038 0 0.07125
    endloop
  endfacet
  facet normal 0 -1 0
    outer loop
      vertex 47.9134 0 5.3806
      vertex 75.416 0 1.70975
      vertex 74.1112 0 3.21551
    endloop
  endfacet
  facet normal 0 -1 0
    outer loop
      vertex 47.9134 0 5.3806
      vertex 77.0921 0 0.632576
      vertex 75.416 0 1.70975
    endloop
  endfacet
  facet normal 0 -1 0
    outer loop
      vertex 49.8934 0 7
      vertex 49.5355 0 6.46447
      vertex 73 0 7
    endloop
  endfacet
  facet normal 0 -1 0
    outer loop
      vertex 73.2835 0 5.02787
      vertex 47.9134 0 5.3806
      vertex 74.1112 0 3.21551
    endloop
  endfacet
  facet normal 0 -1 0
    outer loop
      vertex 44.0866 0 5.3806
      vertex 44 0 0
      vertex 46 0 5
    endloop
  endfacet
  facet normal 0 -1 0
    outer loop
      vertex 44 0 5.43845
      vertex 44 0 0
      vertex 44.0866 0 5.3806
    endloop
  endfacet
  facet normal 0 -1 0
    outer loop
      vertex 49.5355 0 6.46447
      vertex 73.2835 0 5.02787
      vertex 73 0 7
    endloop
  endfacet
  facet normal 0 -1 0
    outer loop
      vertex 80 0 0.07125
      vertex 79.0038 0 0.07125
      vertex 80 0 0
    endloop
  endfacet
  facet normal 0 -1 0
    outer loop
      vertex 49.5355 0 6.46447
      vertex 47.9134 0 5.3806
      vertex 73.2835 0 5.02787
    endloop
  endfacet
  facet normal 0 -1 0
    outer loop
      vertex 47.9134 0 5.3806
      vertex 79.0038 0 0.07125
      vertex 77.0921 0 0.632576
    endloop
  endfacet
  facet normal 0 -1 0
    outer loop
      vertex 47.9134 0 5.3806
      vertex 46 0 5
      vertex 79.0038 0 0.07125
    endloop
  endfacet
  facet normal 1 0 0
    outer loop
      vertex 80 0 0.07125
      vertex 80 0 0
      vertex 80 10 0
    endloop
  endfacet
  facet normal 1 0 0
    outer loop
      vertex 80 10 0.07125
      vertex 80 0 0.07125
      vertex 80 10 0
    endloop
  endfacet
  facet normal 1 0 0
    outer loop
      vertex 80 10 5.61436
      vertex 80 10 0.07125
      vertex 80 10 0
    endloop
  endfacet
  facet normal 0 2.22045e-16 1
    outer loop
      vertex 80.8 -3.07674e-16 5.61436
      vertex 80.8 10 5.61436
      vertex 80 10 5.61436
    endloop
  endfacet
  facet normal 0 2.22045e-16 1
    outer loop
      vertex 79.2 10 5.61436
      vertex 80.8 -3.07674e-16 5.61436
      vertex 80 10 5.61436
    endloop
  endfacet
  facet normal 0 2.22045e-16 1
    outer loop
      vertex 79.2 10 5.61436
      vertex 79.2 -3.07674e-16 5.61436
      vertex 80.8 -3.07674e-16 5.61436
    endloop
  endfacet
  facet normal 0.866025 1.11022e-16 0.5
    outer loop
      vertex 79.2 -3.07674e-16 5.61436
      vertex 79.2 10 5.61436
      vertex 78.4 10 7
    endloop
  endfacet
  facet normal 0.866025 1.11022e-16 0.5
    outer loop
      vertex 78.4 10 7
      vertex 78.4 4.93038e-32 7
      vertex 79.2 -3.07674e-16 5.61436
    endloop
  endfacet
  facet normal 0 1 -2.22045e-16
    outer loop
      vertex 73 10 7
      vertex 73.2835 10 8.97213
      vertex 78.4 10 7
    endloop
  endfacet
  facet normal 0 1 -2.22045e-16
    outer loop
      vertex 78.4 10 7
      vertex 73.2835 10 8.97213
      vertex 74.1112 10 10.7845
    endloop
  endfacet
  facet normal 0 1 -2.22045e-16
    outer loop
      vertex 78.4 10 7
      vertex 74.1112 10 10.7845
      vertex 75.416 10 12.2902
    endloop
  endfacet
  facet normal 0 1 -2.22045e-16
    outer loop
      vertex 79.2 10 8.38564
      vertex 80.9962 10 13.9287
      vertex 82.9079 10 13.3674
    endloop
  endfacet
  facet normal 0 1 -2.22045e-16
    outer loop
      vertex 78.4 10 7
      vertex 77.0921 10 13.3674
      vertex 79.0038 10 13.9287
    endloop
  endfacet
  facet normal 0 1 -2.22045e-16
    outer loop
      vertex 80.8 10 8.38564
      vertex 84.584 10 12.2902
      vertex 85.8888 10 10.7845
    endloop
  endfacet
  facet normal 0 1 -2.22045e-16
    outer loop
      vertex 79.2 10 8.38564
      vertex 84.584 10 12.2902
      vertex 80.8 10 8.38564
    endloop
  endfacet
  facet normal 0 1 -2.22045e-16
    outer loop
      vertex 81.6 10 7
      vertex 86.7165 10 8.97213
      vertex 87 10 7
    endloop
  endfacet
  facet normal 0 1 -2.22045e-16
    outer loop
      vertex 80.8 10 8.38564
      vertex 86.7165 10 8.97213
      vertex 81.6 10 7
    endloop
  endfacet
  facet normal 0 1 -2.22045e-16
    outer loop
      vertex 81.6 10 7
      vertex 87 10 7
      vertex 86.7165 10 5.02787
    endloop
  endfacet
  facet normal 0 1 -2.22045e-16
    outer loop
      vertex 81.6 10 7
      vertex 86.7165 10 5.02787
      vertex 80.8 10 5.61436
    endloop
  endfacet
  facet normal 0 1 -2.22045e-16
    outer loop
      vertex 86.7165 10 5.02787
      vertex 85.8888 10 3.21551
      vertex 80 10 5.61436
    endloop
  endfacet
  facet normal 0 1 -2.22045e-16
    outer loop
      vertex 86.7165 10 5.02787
      vertex 80 10 5.61436
      vertex 80.8 10 5.61436
    endloop
  endfacet
  facet normal 0 1 -2.22045e-16
    outer loop
      vertex 78.4 10 7
      vertex 80.9962 10 13.9287
      vertex 79.2 10 8.38564
    endloop
  endfacet
  facet normal 0 1 -2.22045e-16
    outer loop
      vertex 80.8 10 8.38564
      vertex 85.8888 10 10.7845
      vertex 86.7165 10 8.97213
    endloop
  endfacet
  facet normal 0 1 -2.22045e-16
    outer loop
      vertex 78.4 10 7
      vertex 79.0038 10 13.9287
      vertex 80.9962 10 13.9287
    endloop
  endfacet
  facet normal 0 1 -2.22045e-16
    outer loop
      vertex 79.2 10 8.38564
      vertex 82.9079 10 13.3674
      vertex 84.584 10 12.2902
    endloop
  endfacet
  facet normal 0 1 -2.22045e-16
    outer loop
      vertex 78.4 10 7
      vertex 75.416 10 12.2902
      vertex 77.0921 10 13.3674
    endloop
  endfacet
  facet normal 0 1 -2.22045e-16
    outer loop
      vertex 80 10 5.61436
      vertex 85.8888 10 3.21551
      vertex 84.584 10 1.70975
    endloop
  endfacet
  facet normal 0 1 -2.22045e-16
    outer loop
      vertex 80 10 5.61436
      vertex 84.584 10 1.70975
      vertex 82.9079 10 0.632576
    endloop
  endfacet
  facet normal 0 1 -2.22045e-16
    outer loop
      vertex 80 10 5.61436
      vertex 82.9079 10 0.632576
      vertex 80.9962 10 0.07125
    endloop
  endfacet
  facet normal 0 1 -2.22045e-16
    outer loop
      vertex 80 10 5.61436
      vertex 80.9962 10 0.07125
      vertex 80 10 0.07125
    endloop
  endfacet
  facet normal 0 0 1
    outer loop
      vertex 73 10 7
      vertex 46 10 7
      vertex 49.8934 10 7
    endloop
  endfacet
  facet normal 0 0 1
    outer loop
      vertex 49.8934 0 7
      vertex 73 0 7
      vertex 49.8934 10 7
    endloop
  endfacet
  facet normal 0 0 1
    outer loop
      vertex 73 0 7
      vertex 73 10 7
      vertex 49.8934 10 7
    endloop
  endfacet
  facet normal -0.989821 3.16002e-17 0.142315
    outer loop
      vertex 73 0 7
      vertex 73.2835 4.379e-16 8.97213
      vertex 73 10 7
    endloop
  endfacet
  facet normal -0.989821 3.16002e-17 0.142315
    outer loop
      vertex 73 10 7
      vertex 73.2835 4.379e-16 8.97213
      vertex 73.2835 10 8.97213
    endloop
  endfacet
  facet normal -0.989821 -3.16002e-17 -0.142315
    outer loop
      vertex 73.2835 0 5.02787
      vertex 73.2835 -4.379e-16 5.02787
      vertex 73 0 7
    endloop
  endfacet
  facet normal 0 1 -2.22045e-16
    outer loop
      vertex 41 10 10
      vertex 41.3806 10 11.9134
      vertex 46 10 10
    endloop
  endfacet
  facet normal 0 1 -2.22045e-16
    outer loop
      vertex 46 10 10
      vertex 41.3806 10 11.9134
      vertex 42.4645 10 13.5355
    endloop
  endfacet
  facet normal 0 1 -2.22045e-16
    outer loop
      vertex 46 10 10
      vertex 42.4645 10 13.5355
      vertex 44.0866 10 14.6194
    endloop
  endfacet
  facet normal 0 1 -2.22045e-16
    outer loop
      vertex 46 10 10
      vertex 44.0866 10 14.6194
      vertex 46 10 15
    endloop
  endfacet
  facet normal 0 1 -2.22045e-16
    outer loop
      vertex 46 10 10
      vertex 46 10 15
      vertex 47.9134 10 14.6194
    endloop
  endfacet
  facet normal 0 1 -2.22045e-16
    outer loop
      vertex 46 10 10
      vertex 47.9134 10 14.6194
      vertex 49.5355 10 13.5355
    endloop
  endfacet
  facet normal 0 1 -2.22045e-16
    outer loop
      vertex 46 10 10
      vertex 49.5355 10 13.5355
      vertex 50.6194 10 11.9134
    endloop
  endfacet
  facet normal 0 1 -2.22045e-16
    outer loop
      vertex 46 10 10
      vertex 50.6194 10 11.9134
      vertex 51 10 10
    endloop
  endfacet
  facet normal 0 1 -2.22045e-16
    outer loop
      vertex 46 10 10
      vertex 51 10 10
      vertex 50.6194 10 8.08658
    endloop
  endfacet
  facet normal 0 1 -2.22045e-16
    outer loop
      vertex 46 10 10
      vertex 50.6194 10 8.08658
      vertex 49.8934 10 7
    endloop
  endfacet
  facet normal 0 1 -2.22045e-16
    outer loop
      vertex 46 10 10
      vertex 49.8934 10 7
      vertex 46 10 7
    endloop
  endfacet
  facet normal 1 0 0
    outer loop
      vertex 46 0 25
      vertex 46 0 10
      vertex 46 1.11022e-15 15
    endloop
  endfacet
  facet normal 1 0 0
    outer loop
      vertex 46 10 15
      vertex 46 0 25
      vertex 46 1.11022e-15 15
    endloop
  endfacet
  facet normal 1 0 0
    outer loop
      vertex 46 10 15
      vertex 46 10 25
      vertex 46 0 25
    endloop
  endfacet
  facet normal 0.19509 2.17778e-16 0.980785
    outer loop
      vertex 46 10 15
      vertex 46 1.11022e-15 15
      vertex 47.9134 1.02571e-15 14.6194
    endloop
  endfacet
  facet normal 0.19509 2.17778e-16 0.980785
    outer loop
      vertex 47.9134 10 14.6194
      vertex 46 10 15
      vertex 47.9134 1.02571e-15 14.6194
    endloop
  endfacet
  facet normal 0 0 1
    outer loop
      vertex 36 0 25
      vertex 36.1981 0 25
      vertex 30 10 25
    endloop
  endfacet
  facet normal 0 0 1
    outer loop
      vertex 30 10 25
      vertex 30 0 25
      vertex 33 0 25
    endloop
  endfacet
  facet normal 0 0 1
    outer loop
      vertex 36 -8 25
      vertex 30 10 25
      vertex 33 0 25
    endloop
  endfacet
  facet normal 0 0 1
    outer loop
      vertex 33 -8 25
      vertex 36 -8 25
      vertex 33 0 25
    endloop
  endfacet
  facet normal 0 0 1
    outer loop
      vertex 36 -8 25
      vertex 36 0 25
      vertex 30 10 25
    endloop
  endfacet
  facet normal 0 0 1
    outer loop
      vertex 36.1981 0.867767 25
      vertex 37.555 1.94986 25
      vertex 30 10 25
    endloop
  endfacet
  facet normal 0 0 1
    outer loop
      vertex 39.247 1.56366 25
      vertex 43 0 25
      vertex 30 10 25
    endloop
  endfacet
  facet normal 0 0 1
    outer loop
      vertex 36.1981 0 25
      vertex 36.1981 0.867767 25
      vertex 30 10 25
    endloop
  endfacet
  facet normal 0 0 1
    outer loop
      vertex 37.555 1.94986 25
      vertex 39.247 1.56366 25
      vertex 30 10 25
    endloop
  endfacet
  facet normal 0 0 1
    outer loop
      vertex 40 0 25
      vertex 43 0 25
      vertex 39.247 1.56366 25
    endloop
  endfacet
  facet normal 0 0 1
    outer loop
      vertex 40 -8 25
      vertex 43 -8 25
      vertex 40 0 25
    endloop
  endfacet
  facet normal 0 0 1
    outer loop
      vertex 43 -8 25
      vertex 43 0 25
      vertex 40 0 25
    endloop
  endfacet
  facet normal 0 0 1
    outer loop
      vertex 43 0 25
      vertex 46 0 25
      vertex 30 10 25
    endloop
  endfacet
  facet normal 0 0 1
    outer loop
      vertex 46 0 25
      vertex 46 10 25
      vertex 30 10 25
    endloop
  endfacet
  facet normal -1 0 0
    outer loop
      vertex 30 0 10
      vertex 30 0 25
      vertex 30 1.11022e-15 15
    endloop
  endfacet
  facet normal -1 0 0
    outer loop
      vertex 30 1.11022e-15 15
      vertex 30 0 25
      vertex 30 10 25
    endloop
  endfacet
  facet normal -1 0 0
    outer loop
      vertex 30 1.11022e-15 15
      vertex 30 10 25
      vertex 30 10 15
    endloop
  endfacet
  facet normal -0.19509 2.17778e-16 0.980785
    outer loop
      vertex 28.0866 10 14.6194
      vertex 28.0866 1.02571e-15 14.6194
      vertex 30 1.11022e-15 15
    endloop
  endfacet
  facet normal -0.19509 2.17778e-16 0.980785
    outer loop
      vertex 30 10 15
      vertex 28.0866 10 14.6194
      vertex 30 1.11022e-15 15
    endloop
  endfacet
  facet normal 0 1 -2.22045e-16
    outer loop
      vertex 25 10 10
      vertex 25.3806 10 11.9134
      vertex 25.3806 10 8.08658
    endloop
  endfacet
  facet normal 0 1 -2.22045e-16
    outer loop
      vertex 25.3806 10 8.08658
      vertex 25.3806 10 11.9134
      vertex 26.4645 10 13.5355
    endloop
  endfacet
  facet normal 0 1 -2.22045e-16
    outer loop
      vertex 25.3806 10 8.08658
      vertex 26.4645 10 13.5355
      vertex 28.0866 10 14.6194
    endloop
  endfacet
  facet normal 0 1 -2.22045e-16
    outer loop
      vertex 25.3806 10 8.08658
      vertex 28.0866 10 14.6194
      vertex 30 10 15
    endloop
  endfacet
  facet normal 0 1 -2.22045e-16
    outer loop
      vertex 25.3806 10 8.08658
      vertex 30 10 15
      vertex 31.9134 10 14.6194
    endloop
  endfacet
  facet normal 0 1 -2.22045e-16
    outer loop
      vertex 25.3806 10 8.08658
      vertex 31.9134 10 14.6194
      vertex 33.5355 10 13.5355
    endloop
  endfacet
  facet normal 0 1 -2.22045e-16
    outer loop
      vertex 25.3806 10 8.08658
      vertex 33.5355 10 13.5355
      vertex 30 10 10
    endloop
  endfacet
  facet normal 0 1 -2.22045e-16
    outer loop
      vertex 30 10 10
      vertex 34.6194 10 11.9134
      vertex 35 10 10
    endloop
  endfacet
  facet normal 0 1 -2.22045e-16
    outer loop
      vertex 33.5355 10 13.5355
      vertex 34.6194 10 11.9134
      vertex 30 10 10
    endloop
  endfacet
  facet normal 0 1 -2.22045e-16
    outer loop
      vertex 25.3806 10 8.08658
      vertex 30 10 7
      vertex 26.1066 10 7
    endloop
  endfacet
  facet normal 0 1 -2.22045e-16
    outer loop
      vertex 30 10 7
      vertex 25.3806 10 8.08658
      vertex 30 10 10
    endloop
  endfacet
  facet normal 0 -1 2.22045e-16
    outer loop
      vertex 25.3806 4.24864e-16 11.9134
      vertex 25 0 10
      vertex 25.3806 -4.24864e-16 8.08658
    endloop
  endfacet
  facet normal 0 -1 2.22045e-16
    outer loop
      vertex 28.0866 -1.02571e-15 5.3806
      vertex 25.3806 4.24864e-16 11.9134
      vertex 26.4645 -7.85046e-16 6.46447
    endloop
  endfacet
  facet normal 0 -1 2.22045e-16
    outer loop
      vertex 26.4645 -7.85046e-16 6.46447
      vertex 25.3806 4.24864e-16 11.9134
      vertex 25.3806 -4.24864e-16 8.08658
    endloop
  endfacet
  facet normal 0 -1 2.22045e-16
    outer loop
      vertex 30 -1.11022e-15 5
      vertex 25.3806 4.24864e-16 11.9134
      vertex 28.0866 -1.02571e-15 5.3806
    endloop
  endfacet
  facet normal 0 -1 2.22045e-16
    outer loop
      vertex 31.9134 -1.02571e-15 5.3806
      vertex 25.3806 4.24864e-16 11.9134
      vertex 30 -1.11022e-15 5
    endloop
  endfacet
  facet normal 0 -1 2.22045e-16
    outer loop
      vertex 32.0818 -1.00073e-15 5.49313
      vertex 25.3806 4.24864e-16 11.9134
      vertex 31.9134 -1.02571e-15 5.3806
    endloop
  endfacet
  facet normal 0 -1 2.22045e-16
    outer loop
      vertex 32.0818 -1.9984e-16 9.1
      vertex 25.3806 4.24864e-16 11.9134
      vertex 32.0818 -1.00073e-15 5.49313
    endloop
  endfacet
  facet normal 0 -1 2.22045e-16
    outer loop
      vertex 30 0 10
      vertex 25.3806 4.24864e-16 11.9134
      vertex 32.0818 -1.9984e-16 9.1
    endloop
  endfacet
  facet normal 0 -1 2.22045e-16
    outer loop
      vertex 30 0 10
      vertex 30 1.11022e-15 15
      vertex 25.3806 4.24864e-16 11.9134
    endloop
  endfacet
  facet normal 0 -1 2.22045e-16
    outer loop
      vertex 33 -1.9984e-16 9.1
      vertex 30 0 10
      vertex 32.0818 -1.9984e-16 9.1
    endloop
  endfacet
  facet normal 0 -1 2.22045e-16
    outer loop
      vertex 28.0866 1.02571e-15 14.6194
      vertex 25.3806 4.24864e-16 11.9134
      vertex 30 1.11022e-15 15
    endloop
  endfacet
  facet normal 0 -1 2.22045e-16
    outer loop
      vertex 26.4645 7.85046e-16 13.5355
      vertex 25.3806 4.24864e-16 11.9134
      vertex 28.0866 1.02571e-15 14.6194
    endloop
  endfacet
  facet normal 0 -1 2.22045e-16
    outer loop
      vertex 33 0 10
      vertex 30 0 10
      vertex 33 -1.9984e-16 9.1
    endloop
  endfacet
  facet normal -0.980785 -4.33187e-17 -0.19509
    outer loop
      vertex 25 0 10
      vertex 25 10 10
      vertex 25.3806 -4.24864e-16 8.08658
    endloop
  endfacet
  facet normal -0.980785 -4.33187e-17 -0.19509
    outer loop
      vertex 25.3806 -4.24864e-16 8.08658
      vertex 25 10 10
      vertex 25.3806 10 8.08658
    endloop
  endfacet
  facet normal 0 0 -1
    outer loop
      vertex 32.7232 2.85568 9.1
      vertex 33.9363 4.41434 9.1
      vertex 32.0818 0.987568 9.1
    endloop
  endfacet
  facet normal 0 0 -1
    outer loop
      vertex 32.0818 0.987568 9.1
      vertex 33.9363 4.41434 9.1
      vertex 35.5898 5.49464 9.1
    endloop
  endfacet
  facet normal 0 0 -1
    outer loop
      vertex 34.4645 3.53553 9.1
      vertex 35.5898 5.49464 9.1
      vertex 37.5045 5.97951 9.1
    endloop
  endfacet
  facet normal 0 0 -1
    outer loop
      vertex 38 5 9.1
      vertex 37.5045 5.97951 9.1
      vertex 39.4729 5.8164 9.1
    endloop
  endfacet
  facet normal 0 0 -1
    outer loop
      vertex 39.9134 4.6194 9.1
      vertex 39.4729 5.8164 9.1
      vertex 41.2817 5.023 9.1
    endloop
  endfacet
  facet normal 0 0 -1
    outer loop
      vertex 41.5355 3.53553 9.1
      vertex 41.2817 5.023 9.1
      vertex 42.7348 3.68528 9.1
    endloop
  endfacet
  facet normal 0 0 -1
    outer loop
      vertex 42.6194 1.91342 9.1
      vertex 42.7348 3.68528 9.1
      vertex 43.6749 1.9482 9.1
    endloop
  endfacet
  facet normal 0 0 -1
    outer loop
      vertex 43 0 9.1
      vertex 44 -1.9984e-16 9.1
      vertex 43 -1.9984e-16 9.1
    endloop
  endfacet
  facet normal 0 0 -1
    outer loop
      vertex 41.5355 3.53553 9.1
      vertex 42.7348 3.68528 9.1
      vertex 42.6194 1.91342 9.1
    endloop
  endfacet
  facet normal 0 0 -1
    outer loop
      vertex 39.9134 4.6194 9.1
      vertex 41.2817 5.023 9.1
      vertex 41.5355 3.53553 9.1
    endloop
  endfacet
  facet normal 0 0 -1
    outer loop
      vertex 38 5 9.1
      vertex 39.4729 5.8164 9.1
      vertex 39.9134 4.6194 9.1
    endloop
  endfacet
  facet normal 0 0 -1
    outer loop
      vertex 36.0866 4.6194 9.1
      vertex 37.5045 5.97951 9.1
      vertex 38 5 9.1
    endloop
  endfacet
  facet normal 0 0 -1
    outer loop
      vertex 34.4645 3.53553 9.1
      vertex 37.5045 5.97951 9.1
      vertex 36.0866 4.6194 9.1
    endloop
  endfacet
  facet normal 0 0 -1
    outer loop
      vertex 32.0818 0.987568 9.1
      vertex 35.5898 5.49464 9.1
      vertex 34.4645 3.53553 9.1
    endloop
  endfacet
  facet normal 0 0 -1
    outer loop
      vertex 33.3806 1.91342 9.1
      vertex 32.0818 0.987568 9.1
      vertex 34.4645 3.53553 9.1
    endloop
  endfacet
  facet normal 0 0 -1
    outer loop
      vertex 33 0 9.1
      vertex 32.0818 0.987568 9.1
      vertex 33.3806 1.91342 9.1
    endloop
  endfacet
  facet normal 0 0 -1
    outer loop
      vertex 32.0818 0.987568 9.1
      vertex 33 0 9.1
      vertex 33 -1.9984e-16 9.1
    endloop
  endfacet
  facet normal 0 0 -1
    outer loop
      vertex 32.0818 0.987568 9.1
      vertex 33 -1.9984e-16 9.1
      vertex 32.0818 -1.9984e-16 9.1
    endloop
  endfacet
  facet normal 0 0 -1
    outer loop
      vertex 42.6194 1.91342 9.1
      vertex 43.6749 1.9482 9.1
      vertex 44 0 9.1
    endloop
  endfacet
  facet normal 0 0 -1
    outer loop
      vertex 42.6194 1.91342 9.1
      vertex 44 0 9.1
      vertex 44 -1.9984e-16 9.1
    endloop
  endfacet
  facet normal 0 0 -1
    outer loop
      vertex 42.6194 1.91342 9.1
      vertex 44 -1.9984e-16 9.1
      vertex 43 0 9.1
    endloop
  endfacet
  facet normal -0.986361 0.164595 0
    outer loop
      vertex 44 0 9.1
      vertex 44 0 5.43845
      vertex 44 -1.9984e-16 9.1
    endloop
  endfacet
  facet normal -0.986361 0.164595 0
    outer loop
      vertex 44 -1.9984e-16 9.1
      vertex 44 0 5.43845
      vertex 44 -1.01287e-15 5.43845
    endloop
  endfacet
  facet normal -0.55557 -1.84623e-16 -0.83147
    outer loop
      vertex 44 -1.01287e-15 5.43845
      vertex 44 0 5.43845
      vertex 44.0866 -1.02571e-15 5.3806
    endloop
  endfacet
  facet normal -0.55557 -1.84623e-16 -0.83147
    outer loop
      vertex 44.0866 -1.02571e-15 5.3806
      vertex 44 0 5.43845
      vertex 44.0866 0 5.3806
    endloop
  endfacet
  facet normal -0.19509 -2.17778e-16 -0.980785
    outer loop
      vertex 44.0866 -1.02571e-15 5.3806
      vertex 44.0866 0 5.3806
      vertex 46 -1.11022e-15 5
    endloop
  endfacet
  facet normal -0.19509 -2.17778e-16 -0.980785
    outer loop
      vertex 46 -1.11022e-15 5
      vertex 44.0866 0 5.3806
      vertex 46 0 5
    endloop
  endfacet
  facet normal 0.19509 -2.17778e-16 -0.980785
    outer loop
      vertex 46 -1.11022e-15 5
      vertex 46 0 5
      vertex 47.9134 -1.02571e-15 5.3806
    endloop
  endfacet
  facet normal 0.19509 -2.17778e-16 -0.980785
    outer loop
      vertex 47.9134 -1.02571e-15 5.3806
      vertex 46 0 5
      vertex 47.9134 0 5.3806
    endloop
  endfacet
  facet normal 0.55557 -1.84623e-16 -0.83147
    outer loop
      vertex 47.9134 -1.02571e-15 5.3806
      vertex 47.9134 0 5.3806
      vertex 49.5355 -7.85046e-16 6.46447
    endloop
  endfacet
  facet normal 0.55557 -1.84623e-16 -0.83147
    outer loop
      vertex 49.5355 -7.85046e-16 6.46447
      vertex 47.9134 0 5.3806
      vertex 49.5355 0 6.46447
    endloop
  endfacet
  facet normal 0.83147 -1.23361e-16 -0.55557
    outer loop
      vertex 50.6194 -4.24864e-16 8.08658
      vertex 49.5355 -7.85046e-16 6.46447
      vertex 49.5355 0 6.46447
    endloop
  endfacet
  facet normal 0.83147 -1.23361e-16 -0.55557
    outer loop
      vertex 49.8934 10 7
      vertex 50.6194 -4.24864e-16 8.08658
      vertex 49.8934 0 7
    endloop
  endfacet
  facet normal 0.83147 -1.23361e-16 -0.55557
    outer loop
      vertex 49.8934 0 7
      vertex 50.6194 -4.24864e-16 8.08658
      vertex 49.5355 0 6.46447
    endloop
  endfacet
  facet normal 0.83147 -1.23361e-16 -0.55557
    outer loop
      vertex 50.6194 10 8.08658
      vertex 50.6194 -4.24864e-16 8.08658
      vertex 49.8934 10 7
    endloop
  endfacet
  facet normal -0.909632 -9.22406e-17 -0.415415
    outer loop
      vertex 73.2835 -4.379e-16 5.02787
      vertex 73.2835 0 5.02787
      vertex 74.1112 -8.40325e-16 3.21551
    endloop
  endfacet
  facet normal -0.909632 -9.22406e-17 -0.415415
    outer loop
      vertex 74.1112 -8.40325e-16 3.21551
      vertex 73.2835 0 5.02787
      vertex 74.1112 0 3.21551
    endloop
  endfacet
  facet normal -0.755749 -1.45408e-16 -0.654861
    outer loop
      vertex 74.1112 -8.40325e-16 3.21551
      vertex 74.1112 0 3.21551
      vertex 75.416 -1.17467e-15 1.70975
    endloop
  endfacet
  facet normal -0.755749 -1.45408e-16 -0.654861
    outer loop
      vertex 75.416 -1.17467e-15 1.70975
      vertex 74.1112 0 3.21551
      vertex 75.416 0 1.70975
    endloop
  endfacet
  facet normal -0.540641 -1.86796e-16 -0.841254
    outer loop
      vertex 75.416 -1.17467e-15 1.70975
      vertex 75.416 0 1.70975
      vertex 77.0921 -1.41385e-15 0.632576
    endloop
  endfacet
  facet normal -0.540641 -1.86796e-16 -0.841254
    outer loop
      vertex 77.0921 -1.41385e-15 0.632576
      vertex 75.416 0 1.70975
      vertex 77.0921 0 0.632576
    endloop
  endfacet
  facet normal -0.281733 -2.1305e-16 -0.959493
    outer loop
      vertex 77.0921 -1.41385e-15 0.632576
      vertex 77.0921 0 0.632576
      vertex 79.0038 -1.53849e-15 0.07125
    endloop
  endfacet
  facet normal -0.281733 -2.1305e-16 -0.959493
    outer loop
      vertex 79.0038 -1.53849e-15 0.07125
      vertex 77.0921 0 0.632576
      vertex 79.0038 0 0.07125
    endloop
  endfacet
  facet normal 0 -2.22045e-16 -1
    outer loop
      vertex 79.0038 -1.53849e-15 0.07125
      vertex 79.0038 0 0.07125
      vertex 80.9962 -1.53849e-15 0.07125
    endloop
  endfacet
  facet normal 0 -2.22045e-16 -1
    outer loop
      vertex 80.9962 -1.53849e-15 0.07125
      vertex 79.0038 0 0.07125
      vertex 80 0 0.07125
    endloop
  endfacet
  facet normal 0 -2.22045e-16 -1
    outer loop
      vertex 80.9962 -1.53849e-15 0.07125
      vertex 80 0 0.07125
      vertex 80 10 0.07125
    endloop
  endfacet
  facet normal 0 -2.22045e-16 -1
    outer loop
      vertex 80.9962 -1.53849e-15 0.07125
      vertex 80 10 0.07125
      vertex 80.9962 10 0.07125
    endloop
  endfacet
  facet normal -0.866025 1.11022e-16 0.5
    outer loop
      vertex 81.6 10 7
      vertex 80.8 10 5.61436
      vertex 81.6 4.93038e-32 7
    endloop
  endfacet
  facet normal -0.866025 1.11022e-16 0.5
    outer loop
      vertex 81.6 4.93038e-32 7
      vertex 80.8 10 5.61436
      vertex 80.8 -3.07674e-16 5.61436
    endloop
  endfacet
  facet normal 0 -1 2.22045e-16
    outer loop
      vertex 73.2835 4.379e-16 8.97213
      vertex 73 0 7
      vertex 73.2835 -4.379e-16 5.02787
    endloop
  endfacet
  facet normal 0 -1 2.22045e-16
    outer loop
      vertex 75.416 -1.17467e-15 1.70975
      vertex 73.2835 4.379e-16 8.97213
      vertex 74.1112 -8.40325e-16 3.21551
    endloop
  endfacet
  facet normal 0 -1 2.22045e-16
    outer loop
      vertex 74.1112 -8.40325e-16 3.21551
      vertex 73.2835 4.379e-16 8.97213
      vertex 73.2835 -4.379e-16 5.02787
    endloop
  endfacet
  facet normal 0 -1 2.22045e-16
    outer loop
      vertex 77.0921 -1.41385e-15 0.632576
      vertex 73.2835 4.379e-16 8.97213
      vertex 75.416 -1.17467e-15 1.70975
    endloop
  endfacet
  facet normal 0 -1 2.22045e-16
    outer loop
      vertex 79.0038 -1.53849e-15 0.07125
      vertex 73.2835 4.379e-16 8.97213
      vertex 77.0921 -1.41385e-15 0.632576
    endloop
  endfacet
  facet normal 0 -1 2.22045e-16
    outer loop
      vertex 80.9962 -1.53849e-15 0.07125
      vertex 73.2835 4.379e-16 8.97213
      vertex 79.0038 -1.53849e-15 0.07125
    endloop
  endfacet
  facet normal 0 -1 2.22045e-16
    outer loop
      vertex 82.9079 -1.41385e-15 0.632576
      vertex 73.2835 4.379e-16 8.97213
      vertex 80.9962 -1.53849e-15 0.07125
    endloop
  endfacet
  facet normal 0 -1 2.22045e-16
    outer loop
      vertex 84.584 -1.17467e-15 1.70975
      vertex 73.2835 4.379e-16 8.97213
      vertex 82.9079 -1.41385e-15 0.632576
    endloop
  endfacet
  facet normal 0 -1 2.22045e-16
    outer loop
      vertex 79.2 -3.07674e-16 5.61436
      vertex 73.2835 4.379e-16 8.97213
      vertex 84.584 -1.17467e-15 1.70975
    endloop
  endfacet
  facet normal 0 -1 2.22045e-16
    outer loop
      vertex 79.2 -3.07674e-16 5.61436
      vertex 78.4 4.93038e-32 7
      vertex 73.2835 4.379e-16 8.97213
    endloop
  endfacet
  facet normal 0 -1 2.22045e-16
    outer loop
      vertex 81.6 4.93038e-32 7
      vertex 80.8 -3.07674e-16 5.61436
      vertex 85.8888 -8.40325e-16 3.21551
    endloop
  endfacet
  facet normal 0 -1 2.22045e-16
    outer loop
      vertex 85.8888 8.40325e-16 10.7845
      vertex 73.2835 4.379e-16 8.97213
      vertex 86.7165 4.379e-16 8.97213
    endloop
  endfacet
  facet normal 0 -1 2.22045e-16
    outer loop
      vertex 84.584 1.17467e-15 12.2902
      vertex 73.2835 4.379e-16 8.97213
      vertex 85.8888 8.40325e-16 10.7845
    endloop
  endfacet
  facet normal 0 -1 2.22045e-16
    outer loop
      vertex 82.9079 1.41385e-15 13.3674
      vertex 73.2835 4.379e-16 8.97213
      vertex 84.584 1.17467e-15 12.2902
    endloop
  endfacet
  facet normal 0 -1 2.22045e-16
    outer loop
      vertex 80.9962 1.53849e-15 13.9288
      vertex 73.2835 4.379e-16 8.97213
      vertex 82.9079 1.41385e-15 13.3674
    endloop
  endfacet
  facet normal 0 -1 2.22045e-16
    outer loop
      vertex 79.0038 1.53849e-15 13.9288
      vertex 73.2835 4.379e-16 8.97213
      vertex 80.9962 1.53849e-15 13.9288
    endloop
  endfacet
  facet normal 0 -1 2.22045e-16
    outer loop
      vertex 77.0921 1.41385e-15 13.3674
      vertex 73.2835 4.379e-16 8.97213
      vertex 79.0038 1.53849e-15 13.9288
    endloop
  endfacet
  facet normal 0 -1 2.22045e-16
    outer loop
      vertex 75.416 1.17467e-15 12.2902
      vertex 73.2835 4.379e-16 8.97213
      vertex 77.0921 1.41385e-15 13.3674
    endloop
  endfacet
  facet normal 0 -1 2.22045e-16
    outer loop
      vertex 74.1112 8.40325e-16 10.7845
      vertex 73.2835 4.379e-16 8.97213
      vertex 75.416 1.17467e-15 12.2902
    endloop
  endfacet
  facet normal 0 -1 2.22045e-16
    outer loop
      vertex 85.8888 -8.40325e-16 3.21551
      vertex 79.2 -3.07674e-16 5.61436
      vertex 84.584 -1.17467e-15 1.70975
    endloop
  endfacet
  facet normal 0 -1 2.22045e-16
    outer loop
      vertex 81.6 4.93038e-32 7
      vertex 85.8888 -8.40325e-16 3.21551
      vertex 86.7165 -4.379e-16 5.02787
    endloop
  endfacet
  facet normal 0 -1 2.22045e-16
    outer loop
      vertex 86.7165 4.379e-16 8.97213
      vertex 73.2835 4.379e-16 8.97213
      vertex 79.2 3.07674e-16 8.38564
    endloop
  endfacet
  facet normal 0 -1 2.22045e-16
    outer loop
      vertex 86.7165 4.379e-16 8.97213
      vertex 80.8 3.07674e-16 8.38564
      vertex 87 0 7
    endloop
  endfacet
  facet normal 0 -1 2.22045e-16
    outer loop
      vertex 86.7165 4.379e-16 8.97213
      vertex 79.2 3.07674e-16 8.38564
      vertex 80.8 3.07674e-16 8.38564
    endloop
  endfacet
  facet normal 0 -1 2.22045e-16
    outer loop
      vertex 87 0 7
      vertex 81.6 4.93038e-32 7
      vertex 86.7165 -4.379e-16 5.02787
    endloop
  endfacet
  facet normal 0 -1 2.22045e-16
    outer loop
      vertex 80.8 3.07674e-16 8.38564
      vertex 81.6 4.93038e-32 7
      vertex 87 0 7
    endloop
  endfacet
  facet normal 0 -1 2.22045e-16
    outer loop
      vertex 80.8 -3.07674e-16 5.61436
      vertex 79.2 -3.07674e-16 5.61436
      vertex 85.8888 -8.40325e-16 3.21551
    endloop
  endfacet
  facet normal 0 -1 2.22045e-16
    outer loop
      vertex 78.4 4.93038e-32 7
      vertex 79.2 3.07674e-16 8.38564
      vertex 73.2835 4.379e-16 8.97213
    endloop
  endfacet
  facet normal 0.866025 -1.11022e-16 -0.5
    outer loop
      vertex 78.4 10 7
      vertex 79.2 10 8.38564
      vertex 79.2 3.07674e-16 8.38564
    endloop
  endfacet
  facet normal 0.866025 -1.11022e-16 -0.5
    outer loop
      vertex 78.4 4.93038e-32 7
      vertex 78.4 10 7
      vertex 79.2 3.07674e-16 8.38564
    endloop
  endfacet
  facet normal 0 -2.22045e-16 -1
    outer loop
      vertex 80.8 10 8.38564
      vertex 80.8 3.07674e-16 8.38564
      vertex 79.2 10 8.38564
    endloop
  endfacet
  facet normal 0 -2.22045e-16 -1
    outer loop
      vertex 79.2 10 8.38564
      vertex 80.8 3.07674e-16 8.38564
      vertex 79.2 3.07674e-16 8.38564
    endloop
  endfacet
  facet normal -0.866025 -1.11022e-16 -0.5
    outer loop
      vertex 81.6 10 7
      vertex 81.6 4.93038e-32 7
      vertex 80.8 10 8.38564
    endloop
  endfacet
  facet normal -0.866025 -1.11022e-16 -0.5
    outer loop
      vertex 80.8 10 8.38564
      vertex 81.6 4.93038e-32 7
      vertex 80.8 3.07674e-16 8.38564
    endloop
  endfacet
  facet normal 0.281733 -2.1305e-16 -0.959493
    outer loop
      vertex 80.9962 -1.53849e-15 0.07125
      vertex 80.9962 10 0.07125
      vertex 82.9079 -1.41385e-15 0.632576
    endloop
  endfacet
  facet normal 0.281733 -2.1305e-16 -0.959493
    outer loop
      vertex 82.9079 -1.41385e-15 0.632576
      vertex 80.9962 10 0.07125
      vertex 82.9079 10 0.632576
    endloop
  endfacet
  facet normal 0.540641 -1.86796e-16 -0.841254
    outer loop
      vertex 82.9079 -1.41385e-15 0.632576
      vertex 82.9079 10 0.632576
      vertex 84.584 -1.17467e-15 1.70975
    endloop
  endfacet
  facet normal 0.540641 -1.86796e-16 -0.841254
    outer loop
      vertex 84.584 -1.17467e-15 1.70975
      vertex 82.9079 10 0.632576
      vertex 84.584 10 1.70975
    endloop
  endfacet
  facet normal 0.755749 -1.45408e-16 -0.654861
    outer loop
      vertex 85.8888 -8.40325e-16 3.21551
      vertex 84.584 -1.17467e-15 1.70975
      vertex 84.584 10 1.70975
    endloop
  endfacet
  facet normal 0.755749 -1.45408e-16 -0.654861
    outer loop
      vertex 85.8888 10 3.21551
      vertex 85.8888 -8.40325e-16 3.21551
      vertex 84.584 10 1.70975
    endloop
  endfacet
  facet normal 0.909632 -9.22406e-17 -0.415415
    outer loop
      vertex 86.7165 -4.379e-16 5.02787
      vertex 85.8888 -8.40325e-16 3.21551
      vertex 85.8888 10 3.21551
    endloop
  endfacet
  facet normal 0.909632 -9.22406e-17 -0.415415
    outer loop
      vertex 86.7165 10 5.02787
      vertex 86.7165 -4.379e-16 5.02787
      vertex 85.8888 10 3.21551
    endloop
  endfacet
  facet normal 0.989821 -3.16002e-17 -0.142315
    outer loop
      vertex 87 0 7
      vertex 86.7165 -4.379e-16 5.02787
      vertex 86.7165 10 5.02787
    endloop
  endfacet
  facet normal 0.989821 -3.16002e-17 -0.142315
    outer loop
      vertex 87 10 7
      vertex 87 0 7
      vertex 86.7165 10 5.02787
    endloop
  endfacet
  facet normal 0.989821 3.16002e-17 0.142315
    outer loop
      vertex 86.7165 10 8.97213
      vertex 86.7165 4.379e-16 8.97213
      vertex 87 0 7
    endloop
  endfacet
  facet normal 0.989821 3.16002e-17 0.142315
    outer loop
      vertex 87 10 7
      vertex 86.7165 10 8.97213
      vertex 87 0 7
    endloop
  endfacet
  facet normal 0.909632 9.22406e-17 0.415415
    outer loop
      vertex 85.8888 10 10.7845
      vertex 85.8888 8.40325e-16 10.7845
      vertex 86.7165 4.379e-16 8.97213
    endloop
  endfacet
  facet normal 0.909632 9.22406e-17 0.415415
    outer loop
      vertex 86.7165 10 8.97213
      vertex 85.8888 10 10.7845
      vertex 86.7165 4.379e-16 8.97213
    endloop
  endfacet
  facet normal 0.755749 1.45408e-16 0.654861
    outer loop
      vertex 84.584 10 12.2902
      vertex 84.584 1.17467e-15 12.2902
      vertex 85.8888 8.40325e-16 10.7845
    endloop
  endfacet
  facet normal 0.755749 1.45408e-16 0.654861
    outer loop
      vertex 85.8888 10 10.7845
      vertex 84.584 10 12.2902
      vertex 85.8888 8.40325e-16 10.7845
    endloop
  endfacet
  facet normal 0.540641 1.86796e-16 0.841254
    outer loop
      vertex 82.9079 10 13.3674
      vertex 82.9079 1.41385e-15 13.3674
      vertex 84.584 1.17467e-15 12.2902
    endloop
  endfacet
  facet normal 0.540641 1.86796e-16 0.841254
    outer loop
      vertex 84.584 10 12.2902
      vertex 82.9079 10 13.3674
      vertex 84.584 1.17467e-15 12.2902
    endloop
  endfacet
  facet normal 0.281733 2.1305e-16 0.959493
    outer loop
      vertex 80.9962 10 13.9287
      vertex 80.9962 1.53849e-15 13.9288
      vertex 82.9079 1.41385e-15 13.3674
    endloop
  endfacet
  facet normal 0.281733 2.1305e-16 0.959493
    outer loop
      vertex 82.9079 10 13.3674
      vertex 80.9962 10 13.9287
      vertex 82.9079 1.41385e-15 13.3674
    endloop
  endfacet
  facet normal 0 2.22045e-16 1
    outer loop
      vertex 79.0038 10 13.9287
      vertex 79.0038 1.53849e-15 13.9288
      vertex 80.9962 1.53849e-15 13.9288
    endloop
  endfacet
  facet normal 0 2.22045e-16 1
    outer loop
      vertex 80.9962 10 13.9287
      vertex 79.0038 10 13.9287
      vertex 80.9962 1.53849e-15 13.9288
    endloop
  endfacet
  facet normal -0.281733 2.1305e-16 0.959493
    outer loop
      vertex 77.0921 10 13.3674
      vertex 77.0921 1.41385e-15 13.3674
      vertex 79.0038 1.53849e-15 13.9288
    endloop
  endfacet
  facet normal -0.281733 2.1305e-16 0.959493
    outer loop
      vertex 79.0038 10 13.9287
      vertex 77.0921 10 13.3674
      vertex 79.0038 1.53849e-15 13.9288
    endloop
  endfacet
  facet normal -0.540641 1.86796e-16 0.841254
    outer loop
      vertex 75.416 10 12.2902
      vertex 75.416 1.17467e-15 12.2902
      vertex 77.0921 1.41385e-15 13.3674
    endloop
  endfacet
  facet normal -0.540641 1.86796e-16 0.841254
    outer loop
      vertex 77.0921 10 13.3674
      vertex 75.416 10 12.2902
      vertex 77.0921 1.41385e-15 13.3674
    endloop
  endfacet
  facet normal -0.755749 1.45408e-16 0.654861
    outer loop
      vertex 74.1112 8.40325e-16 10.7845
      vertex 75.416 1.17467e-15 12.2902
      vertex 74.1112 10 10.7845
    endloop
  endfacet
  facet normal -0.755749 1.45408e-16 0.654861
    outer loop
      vertex 74.1112 10 10.7845
      vertex 75.416 1.17467e-15 12.2902
      vertex 75.416 10 12.2902
    endloop
  endfacet
  facet normal -0.909632 9.22406e-17 0.415415
    outer loop
      vertex 73.2835 4.379e-16 8.97213
      vertex 74.1112 8.40325e-16 10.7845
      vertex 73.2835 10 8.97213
    endloop
  endfacet
  facet normal -0.909632 9.22406e-17 0.415415
    outer loop
      vertex 73.2835 10 8.97213
      vertex 74.1112 8.40325e-16 10.7845
      vertex 74.1112 10 10.7845
    endloop
  endfacet
  facet normal 0.980785 -4.33187e-17 -0.19509
    outer loop
      vertex 51 0 10
      vertex 50.6194 -4.24864e-16 8.08658
      vertex 50.6194 10 8.08658
    endloop
  endfacet
  facet normal 0.980785 -4.33187e-17 -0.19509
    outer loop
      vertex 51 10 10
      vertex 51 0 10
      vertex 50.6194 10 8.08658
    endloop
  endfacet
  facet normal 0.980785 4.33187e-17 0.19509
    outer loop
      vertex 50.6194 10 11.9134
      vertex 50.6194 4.24864e-16 11.9134
      vertex 51 0 10
    endloop
  endfacet
  facet normal 0.980785 4.33187e-17 0.19509
    outer loop
      vertex 51 10 10
      vertex 50.6194 10 11.9134
      vertex 51 0 10
    endloop
  endfacet
  facet normal 0.83147 1.23361e-16 0.55557
    outer loop
      vertex 49.5355 10 13.5355
      vertex 49.5355 7.85046e-16 13.5355
      vertex 50.6194 4.24864e-16 11.9134
    endloop
  endfacet
  facet normal 0.83147 1.23361e-16 0.55557
    outer loop
      vertex 50.6194 10 11.9134
      vertex 49.5355 10 13.5355
      vertex 50.6194 4.24864e-16 11.9134
    endloop
  endfacet
  facet normal 0.55557 1.84623e-16 0.83147
    outer loop
      vertex 47.9134 10 14.6194
      vertex 47.9134 1.02571e-15 14.6194
      vertex 49.5355 7.85046e-16 13.5355
    endloop
  endfacet
  facet normal 0.55557 1.84623e-16 0.83147
    outer loop
      vertex 49.5355 10 13.5355
      vertex 47.9134 10 14.6194
      vertex 49.5355 7.85046e-16 13.5355
    endloop
  endfacet
  facet normal 0 -1 0
    outer loop
      vertex 43 0 13
      vertex 43 0 10
      vertex 46 0 10
    endloop
  endfacet
  facet normal 0 -1 0
    outer loop
      vertex 44 0 13
      vertex 43 0 13
      vertex 46 0 10
    endloop
  endfacet
  facet normal 0 -1 0
    outer loop
      vertex 43 0 25
      vertex 43 0 21
      vertex 46 0 25
    endloop
  endfacet
  facet normal 0 -1 0
    outer loop
      vertex 43 0 21
      vertex 44 0 21
      vertex 46 0 25
    endloop
  endfacet
  facet normal 0 -1 0
    outer loop
      vertex 46 0 25
      vertex 44 0 13
      vertex 46 0 10
    endloop
  endfacet
  facet normal 0 -1 0
    outer loop
      vertex 44 0 21
      vertex 44 0 13
      vertex 46 0 25
    endloop
  endfacet
  facet normal 0 -1 2.22045e-16
    outer loop
      vertex 43 0 10
      vertex 43 -1.9984e-16 9.1
      vertex 44 -1.9984e-16 9.1
    endloop
  endfacet
  facet normal 0 -1 2.22045e-16
    outer loop
      vertex 49.5355 -7.85046e-16 6.46447
      vertex 43 0 10
      vertex 44 -1.9984e-16 9.1
    endloop
  endfacet
  facet normal 0 -1 2.22045e-16
    outer loop
      vertex 44 -1.01287e-15 5.43845
      vertex 44.0866 -1.02571e-15 5.3806
      vertex 44 -1.9984e-16 9.1
    endloop
  endfacet
  facet normal 0 -1 2.22045e-16
    outer loop
      vertex 44.0866 -1.02571e-15 5.3806
      vertex 46 -1.11022e-15 5
      vertex 44 -1.9984e-16 9.1
    endloop
  endfacet
  facet normal 0 -1 2.22045e-16
    outer loop
      vertex 46 -1.11022e-15 5
      vertex 47.9134 -1.02571e-15 5.3806
      vertex 44 -1.9984e-16 9.1
    endloop
  endfacet
  facet normal 0 -1 2.22045e-16
    outer loop
      vertex 47.9134 -1.02571e-15 5.3806
      vertex 49.5355 -7.85046e-16 6.46447
      vertex 44 -1.9984e-16 9.1
    endloop
  endfacet
  facet normal 0 -1 2.22045e-16
    outer loop
      vertex 49.5355 -7.85046e-16 6.46447
      vertex 50.6194 -4.24864e-16 8.08658
      vertex 43 0 10
    endloop
  endfacet
  facet normal 0 -1 2.22045e-16
    outer loop
      vertex 50.6194 -4.24864e-16 8.08658
      vertex 51 0 10
      vertex 46 0 10
    endloop
  endfacet
  facet normal 0 -1 2.22045e-16
    outer loop
      vertex 50.6194 -4.24864e-16 8.08658
      vertex 46 0 10
      vertex 43 0 10
    endloop
  endfacet
  facet normal 0 -1 2.22045e-16
    outer loop
      vertex 51 0 10
      vertex 50.6194 4.24864e-16 11.9134
      vertex 46 0 10
    endloop
  endfacet
  facet normal 0 -1 2.22045e-16
    outer loop
      vertex 46 1.11022e-15 15
      vertex 49.5355 7.85046e-16 13.5355
      vertex 47.9134 1.02571e-15 14.6194
    endloop
  endfacet
  facet normal 0 -1 2.22045e-16
    outer loop
      vertex 46 1.11022e-15 15
      vertex 50.6194 4.24864e-16 11.9134
      vertex 49.5355 7.85046e-16 13.5355
    endloop
  endfacet
  facet normal 0 -1 2.22045e-16
    outer loop
      vertex 46 1.11022e-15 15
      vertex 46 0 10
      vertex 50.6194 4.24864e-16 11.9134
    endloop
  endfacet
  facet normal 1 0 0
    outer loop
      vertex 43 -8 25
      vertex 43 -8 21
      vertex 43 -3.19531 21
    endloop
  endfacet
  facet normal 1 0 0
    outer loop
      vertex 43 0 25
      vertex 43 -8 25
      vertex 43 0 21
    endloop
  endfacet
  facet normal 1 0 0
    outer loop
      vertex 43 0 21
      vertex 43 -8 25
      vertex 43 -3.19531 21
    endloop
  endfacet
  facet normal 0 -1 0
    outer loop
      vertex 40 -8 25
      vertex 40 -8 21
      vertex 43 -8 21
    endloop
  endfacet
  facet normal 0 -1 0
    outer loop
      vertex 43 -8 25
      vertex 40 -8 25
      vertex 43 -8 21
    endloop
  endfacet
  facet normal -1 0 0
    outer loop
      vertex 40 0 25
      vertex 40 0 21
      vertex 40 -8 25
    endloop
  endfacet
  facet normal -1 0 0
    outer loop
      vertex 40 -8 25
      vertex 40 0 21
      vertex 40 -5.5852 21
    endloop
  endfacet
  facet normal -1 0 0
    outer loop
      vertex 40 -8 25
      vertex 40 -5.5852 21
      vertex 40 -8 21
    endloop
  endfacet
  facet normal -0.900969 -0.433884 0
    outer loop
      vertex 40 0 25
      vertex 39.247 1.56366 25
      vertex 40 0 21
    endloop
  endfacet
  facet normal -0.900969 -0.433884 0
    outer loop
      vertex 40 0 21
      vertex 39.247 1.56366 25
      vertex 39.247 1.56366 21
    endloop
  endfacet
  facet normal -0.222521 -0.974928 0
    outer loop
      vertex 39.247 1.56366 21
      vertex 39.247 1.56366 25
      vertex 37.555 1.94986 25
    endloop
  endfacet
  facet normal -0.222521 -0.974928 0
    outer loop
      vertex 37.555 1.94986 21
      vertex 39.247 1.56366 21
      vertex 37.555 1.94986 25
    endloop
  endfacet
  facet normal 0.62349 -0.781831 0
    outer loop
      vertex 37.555 1.94986 21
      vertex 37.555 1.94986 25
      vertex 36.1981 0.867767 25
    endloop
  endfacet
  facet normal 0.62349 -0.781831 0
    outer loop
      vertex 36.1981 0.867767 21
      vertex 37.555 1.94986 21
      vertex 36.1981 0.867767 25
    endloop
  endfacet
  facet normal 1 0 0
    outer loop
      vertex 36.1981 0.867767 21
      vertex 36.1981 0.867767 25
      vertex 36.1981 0 25
    endloop
  endfacet
  facet normal 1 0 0
    outer loop
      vertex 36.1981 0 21
      vertex 36.1981 0.867767 21
      vertex 36.1981 0 25
    endloop
  endfacet
  facet normal 0 -1 0
    outer loop
      vertex 36.1981 0 21
      vertex 36.1981 0 25
      vertex 36 0 25
    endloop
  endfacet
  facet normal 0 -1 0
    outer loop
      vertex 36 0 21
      vertex 36.1981 0 21
      vertex 36 0 25
    endloop
  endfacet
  facet normal 1 0 0
    outer loop
      vertex 36 -5.59851 21
      vertex 36 0 21
      vertex 36 0 25
    endloop
  endfacet
  facet normal 1 0 0
    outer loop
      vertex 36 -8 21
      vertex 36 -5.59851 21
      vertex 36 -8 25
    endloop
  endfacet
  facet normal 1 0 0
    outer loop
      vertex 36 -8 25
      vertex 36 -5.59851 21
      vertex 36 0 25
    endloop
  endfacet
  facet normal 0 -1 0
    outer loop
      vertex 33 -8 25
      vertex 33 -8 21
      vertex 36 -8 21
    endloop
  endfacet
  facet normal 0 -1 0
    outer loop
      vertex 36 -8 25
      vertex 33 -8 25
      vertex 36 -8 21
    endloop
  endfacet
  facet normal -1 0 0
    outer loop
      vertex 33 -8 21
      vertex 33 -8 25
      vertex 33 -3.21137 21
    endloop
  endfacet
  facet normal -1 0 0
    outer loop
      vertex 33 -3.21137 21
      vertex 33 -8 25
      vertex 33 0 25
    endloop
  endfacet
  facet normal -1 0 0
    outer loop
      vertex 33 -3.21137 21
      vertex 33 0 25
      vertex 33 0 21
    endloop
  endfacet
  facet normal 0 -1 0
    outer loop
      vertex 32.0818 0 13
      vertex 30 0 10
      vertex 33 0 10
    endloop
  endfacet
  facet normal 0 -1 0
    outer loop
      vertex 32.0818 0 13
      vertex 32.0818 0 21
      vertex 30 0 25
    endloop
  endfacet
  facet normal 0 -1 0
    outer loop
      vertex 30 0 25
      vertex 30 0 10
      vertex 32.0818 0 13
    endloop
  endfacet
  facet normal 0 -1 0
    outer loop
      vertex 33 0 21
      vertex 30 0 25
      vertex 32.0818 0 21
    endloop
  endfacet
  facet normal 0 -1 0
    outer loop
      vertex 33 0 25
      vertex 30 0 25
      vertex 33 0 21
    endloop
  endfacet
  facet normal 0 -1 0
    outer loop
      vertex 33 0 13
      vertex 32.0818 0 13
      vertex 33 0 10
    endloop
  endfacet
  facet normal -0.55557 1.84623e-16 0.83147
    outer loop
      vertex 26.4645 10 13.5355
      vertex 26.4645 7.85046e-16 13.5355
      vertex 28.0866 1.02571e-15 14.6194
    endloop
  endfacet
  facet normal -0.55557 1.84623e-16 0.83147
    outer loop
      vertex 28.0866 10 14.6194
      vertex 26.4645 10 13.5355
      vertex 28.0866 1.02571e-15 14.6194
    endloop
  endfacet
  facet normal -0.83147 1.23361e-16 0.55557
    outer loop
      vertex 25.3806 4.24864e-16 11.9134
      vertex 26.4645 7.85046e-16 13.5355
      vertex 25.3806 10 11.9134
    endloop
  endfacet
  facet normal -0.83147 1.23361e-16 0.55557
    outer loop
      vertex 25.3806 10 11.9134
      vertex 26.4645 7.85046e-16 13.5355
      vertex 26.4645 10 13.5355
    endloop
  endfacet
  facet normal -0.980785 4.33187e-17 0.19509
    outer loop
      vertex 25 0 10
      vertex 25.3806 4.24864e-16 11.9134
      vertex 25 10 10
    endloop
  endfacet
  facet normal -0.980785 4.33187e-17 0.19509
    outer loop
      vertex 25 10 10
      vertex 25.3806 4.24864e-16 11.9134
      vertex 25.3806 10 11.9134
    endloop
  endfacet
  facet normal 0.980785 -0.19509 0
    outer loop
      vertex 33.3806 1.91342 9.1
      vertex 33.3806 1.91342 13
      vertex 33 0 13
    endloop
  endfacet
  facet normal 0.980785 -0.19509 0
    outer loop
      vertex 33 0 9.1
      vertex 33.3806 1.91342 9.1
      vertex 33 0 10
    endloop
  endfacet
  facet normal 0.980785 -0.19509 0
    outer loop
      vertex 33 0 10
      vertex 33.3806 1.91342 9.1
      vertex 33 0 13
    endloop
  endfacet
  facet normal 0.980785 0.19509 0
    outer loop
      vertex 33 0 10
      vertex 33 -1.9984e-16 9.1
      vertex 33 0 9.1
    endloop
  endfacet
  facet normal 0.83147 -0.55557 0
    outer loop
      vertex 34.4645 3.53553 9.1
      vertex 34.4645 3.53553 13
      vertex 33.3806 1.91342 13
    endloop
  endfacet
  facet normal 0.83147 -0.55557 0
    outer loop
      vertex 33.3806 1.91342 9.1
      vertex 34.4645 3.53553 9.1
      vertex 33.3806 1.91342 13
    endloop
  endfacet
  facet normal 0.55557 -0.83147 0
    outer loop
      vertex 36.0866 4.6194 9.1
      vertex 36.0866 4.6194 13
      vertex 34.4645 3.53553 13
    endloop
  endfacet
  facet normal 0.55557 -0.83147 0
    outer loop
      vertex 34.4645 3.53553 9.1
      vertex 36.0866 4.6194 9.1
      vertex 34.4645 3.53553 13
    endloop
  endfacet
  facet normal 0.19509 -0.980785 0
    outer loop
      vertex 38 5 9.1
      vertex 38 5 13
      vertex 36.0866 4.6194 13
    endloop
  endfacet
  facet normal 0.19509 -0.980785 0
    outer loop
      vertex 36.0866 4.6194 9.1
      vertex 38 5 9.1
      vertex 36.0866 4.6194 13
    endloop
  endfacet
  facet normal -0.19509 -0.980785 0
    outer loop
      vertex 39.9134 4.6194 9.1
      vertex 39.9134 4.6194 13
      vertex 38 5 13
    endloop
  endfacet
  facet normal -0.19509 -0.980785 0
    outer loop
      vertex 38 5 9.1
      vertex 39.9134 4.6194 9.1
      vertex 38 5 13
    endloop
  endfacet
  facet normal -0.55557 -0.83147 0
    outer loop
      vertex 41.5355 3.53553 9.1
      vertex 41.5355 3.53553 13
      vertex 39.9134 4.6194 13
    endloop
  endfacet
  facet normal -0.55557 -0.83147 0
    outer loop
      vertex 39.9134 4.6194 9.1
      vertex 41.5355 3.53553 9.1
      vertex 39.9134 4.6194 13
    endloop
  endfacet
  facet normal -0.83147 -0.55557 0
    outer loop
      vertex 42.6194 1.91342 13
      vertex 41.5355 3.53553 13
      vertex 42.6194 1.91342 9.1
    endloop
  endfacet
  facet normal -0.83147 -0.55557 0
    outer loop
      vertex 42.6194 1.91342 9.1
      vertex 41.5355 3.53553 13
      vertex 41.5355 3.53553 9.1
    endloop
  endfacet
  facet normal -0.980785 -0.19509 0
    outer loop
      vertex 43 0 13
      vertex 42.6194 1.91342 13
      vertex 43 0 10
    endloop
  endfacet
  facet normal -0.980785 -0.19509 0
    outer loop
      vertex 43 0 10
      vertex 42.6194 1.91342 13
      vertex 43 0 9.1
    endloop
  endfacet
  facet normal -0.980785 -0.19509 0
    outer loop
      vertex 43 0 9.1
      vertex 42.6194 1.91342 13
      vertex 42.6194 1.91342 9.1
    endloop
  endfacet
  facet normal -0.980785 0.19509 0
    outer loop
      vertex 43 0 10
      vertex 43 0 9.1
      vertex 43 -1.9984e-16 9.1
    endloop
  endfacet
  facet normal 0 0 1
    outer loop
      vertex 35.5898 5.49464 13
      vertex 33.3806 1.91342 13
      vertex 34.4645 3.53553 13
    endloop
  endfacet
  facet normal 0 0 1
    outer loop
      vertex 38 5 13
      vertex 39.4729 5.8164 13
      vertex 36.0866 4.6194 13
    endloop
  endfacet
  facet normal 0 0 1
    outer loop
      vertex 36.0866 4.6194 13
      vertex 37.5045 5.97951 13
      vertex 34.4645 3.53553 13
    endloop
  endfacet
  facet normal 0 0 1
    outer loop
      vertex 33 0 13
      vertex 33.3806 1.91342 13
      vertex 32.7232 2.85568 13
    endloop
  endfacet
  facet normal 0 0 1
    outer loop
      vertex 39.9134 4.6194 13
      vertex 41.2817 5.023 13
      vertex 38 5 13
    endloop
  endfacet
  facet normal 0 0 1
    outer loop
      vertex 41.5355 3.53553 13
      vertex 42.7348 3.68528 13
      vertex 39.9134 4.6194 13
    endloop
  endfacet
  facet normal 0 0 1
    outer loop
      vertex 42.6194 1.91342 13
      vertex 44 0 13
      vertex 41.5355 3.53553 13
    endloop
  endfacet
  facet normal 0 0 1
    outer loop
      vertex 43 0 13
      vertex 44 0 13
      vertex 42.6194 1.91342 13
    endloop
  endfacet
  facet normal 0 0 1
    outer loop
      vertex 44 0 13
      vertex 43.6749 1.9482 13
      vertex 41.5355 3.53553 13
    endloop
  endfacet
  facet normal 0 0 1
    outer loop
      vertex 43.6749 1.9482 13
      vertex 42.7348 3.68528 13
      vertex 41.5355 3.53553 13
    endloop
  endfacet
  facet normal 0 0 1
    outer loop
      vertex 42.7348 3.68528 13
      vertex 41.2817 5.023 13
      vertex 39.9134 4.6194 13
    endloop
  endfacet
  facet normal 0 0 1
    outer loop
      vertex 41.2817 5.023 13
      vertex 39.4729 5.8164 13
      vertex 38 5 13
    endloop
  endfacet
  facet normal 0 0 1
    outer loop
      vertex 39.4729 5.8164 13
      vertex 37.5045 5.97951 13
      vertex 36.0866 4.6194 13
    endloop
  endfacet
  facet normal 0 0 1
    outer loop
      vertex 37.5045 5.97951 13
      vertex 35.5898 5.49464 13
      vertex 34.4645 3.53553 13
    endloop
  endfacet
  facet normal 0 0 1
    outer loop
      vertex 35.5898 5.49464 13
      vertex 33.9363 4.41434 13
      vertex 33.3806 1.91342 13
    endloop
  endfacet
  facet normal 0 0 1
    outer loop
      vertex 33.9363 4.41434 13
      vertex 32.7232 2.85568 13
      vertex 33.3806 1.91342 13
    endloop
  endfacet
  facet normal 0 0 1
    outer loop
      vertex 32.7232 2.85568 13
      vertex 32.0818 0.987568 13
      vertex 33 0 13
    endloop
  endfacet
  facet normal 0 0 1
    outer loop
      vertex 32.0818 0.987568 13
      vertex 32.0818 0 13
      vertex 33 0 13
    endloop
  endfacet
  facet normal -0.986361 -0.164595 0
    outer loop
      vertex 44 0 21
      vertex 43.6749 1.9482 21
      vertex 44 0 13
    endloop
  endfacet
  facet normal -0.986361 -0.164595 0
    outer loop
      vertex 44 0 13
      vertex 43.6749 1.9482 21
      vertex 43.6749 1.9482 13
    endloop
  endfacet
  facet normal 0 0 -1
    outer loop
      vertex 32.0818 0 21
      vertex 32.0818 0.987568 21
      vertex 33 0 21
    endloop
  endfacet
  facet normal 0 0 -1
    outer loop
      vertex 33 0 21
      vertex 32.0818 0.987568 21
      vertex 32.7232 2.85568 21
    endloop
  endfacet
  facet normal 0 0 -1
    outer loop
      vertex 33 0 21
      vertex 32.7232 2.85568 21
      vertex 33.9363 4.41434 21
    endloop
  endfacet
  facet normal 0 0 -1
    outer loop
      vertex 33 0 21
      vertex 33.9363 4.41434 21
      vertex 35.5898 5.49464 21
    endloop
  endfacet
  facet normal 0 0 -1
    outer loop
      vertex 33 0 21
      vertex 35.5898 5.49464 21
      vertex 37.5045 5.97951 21
    endloop
  endfacet
  facet normal 0 0 -1
    outer loop
      vertex 33 0 21
      vertex 37.5045 5.97951 21
      vertex 39.4729 5.8164 21
    endloop
  endfacet
  facet normal 0 0 -1
    outer loop
      vertex 33 0 21
      vertex 39.4729 5.8164 21
      vertex 41.2817 5.023 21
    endloop
  endfacet
  facet normal 0 0 -1
    outer loop
      vertex 37.555 1.94986 21
      vertex 41.2817 5.023 21
      vertex 42.7348 3.68528 21
    endloop
  endfacet
  facet normal 0 0 -1
    outer loop
      vertex 39.247 1.56366 21
      vertex 42.7348 3.68528 21
      vertex 43.6749 1.9482 21
    endloop
  endfacet
  facet normal 0 0 -1
    outer loop
      vertex 43 0 21
      vertex 43.6749 1.9482 21
      vertex 44 0 21
    endloop
  endfacet
  facet normal 0 0 -1
    outer loop
      vertex 36.1981 0.867767 21
      vertex 33 0 21
      vertex 37.555 1.94986 21
    endloop
  endfacet
  facet normal 0 0 -1
    outer loop
      vertex 40 0 21
      vertex 43 -3.19531 21
      vertex 42.7348 -3.68528 21
    endloop
  endfacet
  facet normal 0 0 -1
    outer loop
      vertex 36 -5.59851 21
      vertex 33 0 21
      vertex 36 0 21
    endloop
  endfacet
  facet normal 0 0 -1
    outer loop
      vertex 40 0 21
      vertex 42.7348 -3.68528 21
      vertex 41.2817 -5.023 21
    endloop
  endfacet
  facet normal 0 0 -1
    outer loop
      vertex 40 0 21
      vertex 41.2817 -5.023 21
      vertex 40 -5.5852 21
    endloop
  endfacet
  facet normal 0 0 -1
    outer loop
      vertex 43 0 21
      vertex 43 -3.19531 21
      vertex 40 0 21
    endloop
  endfacet
  facet normal 0 0 -1
    outer loop
      vertex 43 0 21
      vertex 40 0 21
      vertex 43.6749 1.9482 21
    endloop
  endfacet
  facet normal 0 0 -1
    outer loop
      vertex 37.555 1.94986 21
      vertex 42.7348 3.68528 21
      vertex 39.247 1.56366 21
    endloop
  endfacet
  facet normal 0 0 -1
    outer loop
      vertex 33 0 21
      vertex 41.2817 5.023 21
      vertex 37.555 1.94986 21
    endloop
  endfacet
  facet normal 0 0 -1
    outer loop
      vertex 36 0 21
      vertex 33 0 21
      vertex 36.1981 0.867767 21
    endloop
  endfacet
  facet normal 0 0 -1
    outer loop
      vertex 36.1981 0 21
      vertex 36 0 21
      vertex 36.1981 0.867767 21
    endloop
  endfacet
  facet normal 0 0 -1
    outer loop
      vertex 39.247 1.56366 21
      vertex 43.6749 1.9482 21
      vertex 40 0 21
    endloop
  endfacet
  facet normal 0 0 -1
    outer loop
      vertex 33 0 21
      vertex 36 -5.59851 21
      vertex 35.5898 -5.49464 21
    endloop
  endfacet
  facet normal 0 0 -1
    outer loop
      vertex 33 0 21
      vertex 35.5898 -5.49464 21
      vertex 33.9363 -4.41434 21
    endloop
  endfacet
  facet normal 0 0 -1
    outer loop
      vertex 33 0 21
      vertex 33.9363 -4.41434 21
      vertex 33 -3.21137 21
    endloop
  endfacet
  facet normal 0 0 -1
    outer loop
      vertex 40 -8 21
      vertex 40 -5.5852 21
      vertex 43 -8 21
    endloop
  endfacet
  facet normal 0 0 -1
    outer loop
      vertex 43 -8 21
      vertex 40 -5.5852 21
      vertex 41.2817 -5.023 21
    endloop
  endfacet
  facet normal 0 0 -1
    outer loop
      vertex 43 -8 21
      vertex 41.2817 -5.023 21
      vertex 42.7348 -3.68528 21
    endloop
  endfacet
  facet normal 0 0 -1
    outer loop
      vertex 42.7348 -3.68528 21
      vertex 43 -3.19531 21
      vertex 43 -8 21
    endloop
  endfacet
  facet normal 0 0 -1
    outer loop
      vertex 33 -8 21
      vertex 33 -3.21137 21
      vertex 36 -8 21
    endloop
  endfacet
  facet normal 0 0 -1
    outer loop
      vertex 36 -8 21
      vertex 33 -3.21137 21
      vertex 33.9363 -4.41434 21
    endloop
  endfacet
  facet normal 0 0 -1
    outer loop
      vertex 36 -8 21
      vertex 33.9363 -4.41434 21
      vertex 35.5898 -5.49464 21
    endloop
  endfacet
  facet normal 0 0 -1
    outer loop
      vertex 35.5898 -5.49464 21
      vertex 36 -5.59851 21
      vertex 36 -8 21
    endloop
  endfacet
  facet normal 1 0 0
    outer loop
      vertex 32.0818 0.987568 13
      vertex 32.0818 0.987568 21
      vertex 32.0818 0 21
    endloop
  endfacet
  facet normal 1 0 0
    outer loop
      vertex 32.0818 0 13
      vertex 32.0818 0.987568 13
      vertex 32.0818 0 21
    endloop
  endfacet
  facet normal 0.945817 -0.324699 0
    outer loop
      vertex 32.7232 2.85568 13
      vertex 32.7232 2.85568 21
      vertex 32.0818 0.987568 21
    endloop
  endfacet
  facet normal 0.945817 -0.324699 0
    outer loop
      vertex 32.0818 0.987568 13
      vertex 32.7232 2.85568 13
      vertex 32.0818 0.987568 21
    endloop
  endfacet
  facet normal 0.78914 -0.614213 0
    outer loop
      vertex 33.9363 4.41434 13
      vertex 33.9363 4.41434 21
      vertex 32.7232 2.85568 21
    endloop
  endfacet
  facet normal 0.78914 -0.614213 0
    outer loop
      vertex 32.7232 2.85568 13
      vertex 33.9363 4.41434 13
      vertex 32.7232 2.85568 21
    endloop
  endfacet
  facet normal 0.546949 -0.837166 0
    outer loop
      vertex 35.5898 5.49464 13
      vertex 35.5898 5.49464 21
      vertex 33.9363 4.41434 21
    endloop
  endfacet
  facet normal 0.546949 -0.837166 0
    outer loop
      vertex 33.9363 4.41434 13
      vertex 35.5898 5.49464 13
      vertex 33.9363 4.41434 21
    endloop
  endfacet
  facet normal 0.245485 -0.9694 0
    outer loop
      vertex 37.5045 5.97951 13
      vertex 37.5045 5.97951 21
      vertex 35.5898 5.49464 21
    endloop
  endfacet
  facet normal 0.245485 -0.9694 0
    outer loop
      vertex 35.5898 5.49464 13
      vertex 37.5045 5.97951 13
      vertex 35.5898 5.49464 21
    endloop
  endfacet
  facet normal -0.0825792 -0.996585 0
    outer loop
      vertex 39.4729 5.8164 13
      vertex 39.4729 5.8164 21
      vertex 37.5045 5.97951 21
    endloop
  endfacet
  facet normal -0.0825792 -0.996585 0
    outer loop
      vertex 37.5045 5.97951 13
      vertex 39.4729 5.8164 13
      vertex 37.5045 5.97951 21
    endloop
  endfacet
  facet normal -0.401696 -0.915773 0
    outer loop
      vertex 41.2817 5.023 13
      vertex 41.2817 5.023 21
      vertex 39.4729 5.8164 21
    endloop
  endfacet
  facet normal -0.401696 -0.915773 0
    outer loop
      vertex 39.4729 5.8164 13
      vertex 41.2817 5.023 13
      vertex 39.4729 5.8164 21
    endloop
  endfacet
  facet normal -0.677282 -0.735724 0
    outer loop
      vertex 42.7348 3.68528 13
      vertex 42.7348 3.68528 21
      vertex 41.2817 5.023 21
    endloop
  endfacet
  facet normal -0.677282 -0.735724 0
    outer loop
      vertex 41.2817 5.023 13
      vertex 42.7348 3.68528 13
      vertex 41.2817 5.023 21
    endloop
  endfacet
  facet normal -0.879474 -0.475947 0
    outer loop
      vertex 43.6749 1.9482 21
      vertex 42.7348 3.68528 21
      vertex 43.6749 1.9482 13
    endloop
  endfacet
  facet normal -0.879474 -0.475947 0
    outer loop
      vertex 43.6749 1.9482 13
      vertex 42.7348 3.68528 21
      vertex 42.7348 3.68528 13
    endloop
  endfacet
endsolid OpenSCAD_Model
